SplineFontDB: 3.0
FontName: Neuton-Extralight
FullName: Neuton Extralight
FamilyName: Neuton
Weight: Extralight
Copyright: Copyright (c) 2010, 2011 Brian M Zick (http://21326.info/), \nwith Reserved Font Name "Neuton".\n\nThis Font Software is licensed under the SIL Open Font License, Version 1.1.This license is available with a FAQ at: http://scripts.sil.org/OFL\n   WITHOUT WARRANTIES OR CONDITIONS OF ANY KIND, either express or implied.\n   See the License for the specific language governing permissions and\n   limitations under the License.
UComments: "Neuton is a dark, dutch-inspired, compact text serif, intended for use on screen. Neuton is Brian Zick's debut font, and includes text figures, an extended character set, and smooth, readable forms. Neuton works well in any size, as well as in print." 
Version: 1.42
ItalicAngle: 0
UnderlinePosition: -361
UnderlineWidth: 0
Ascent: 1638
Descent: 410
LayerCount: 2
Layer: 0 1 "Back"  1
Layer: 1 1 "Fore"  0
NeedsXUIDChange: 1
FSType: 0
OS2Version: 1
OS2_WeightWidthSlopeOnly: 0
OS2_UseTypoMetrics: 0
CreationTime: 1304912001
ModificationTime: 1316061331
PfmFamily: 17
TTFWeight: 200
TTFWidth: 5
LineGap: 0
VLineGap: 0
Panose: 2 0 2 3 0 0 0 0 0 0
OS2TypoAscent: 2106
OS2TypoAOffset: 0
OS2TypoDescent: -485
OS2TypoDOffset: 0
OS2TypoLinegap: 0
OS2WinAscent: 2106
OS2WinAOffset: 0
OS2WinDescent: 485
OS2WinDOffset: 0
HheadAscent: 2106
HheadAOffset: 0
HheadDescent: -485
HheadDOffset: 0
OS2Vendor: 'PfEd'
Lookup: 1 0 0 "'sups' Superscript lookup 0"  {"'sups' Superscript lookup 0 subtable" ("superior" ) } ['sups' ('DFLT' <'dflt' > ) ]
MarkAttachClasses: 1
DEI: 91125
TtTable: prep
PUSHW_1
 511
SCANCTRL
PUSHB_1
 4
SCANTYPE
EndTTInstrs

StartChar: A
Encoding: 65 65 0
Width: 1413
VWidth: 0
Flags: HMW
LayerCount: 2
Fore
SplineSet
500 534 m 1,0,-1
 893 534 l 1,1,-1
 700 1085 l 1,2,-1
 500 534 l 1,0,-1
108 0 m 1,3,-1
 113 42 l 1,4,-1
 255 72 l 1,5,-1
 693 1254 l 1,6,-1
 746 1268 l 1,7,-1
 1161 66 l 1,8,-1
 1293 47 l 1,9,-1
 1285 1 l 1,10,-1
 876 1 l 1,11,-1
 885 43 l 1,12,-1
 1051 73 l 1,13,-1
 912 478 l 1,14,-1
 480 478 l 1,15,-1
 332 65 l 1,16,-1
 516 46 l 1,17,-1
 507 0 l 1,18,-1
 108 0 l 1,3,-1
EndSplineSet
Colour: ffffff
EndChar

StartChar: AE
Encoding: 198 198 1
Width: 1688
VWidth: 0
Flags: HMW
LayerCount: 2
Fore
SplineSet
867 537 m 1,0,-1
 867 1093 l 1,1,-1
 553 537 l 1,2,-1
 867 537 l 1,0,-1
972 1193 m 1,3,-1
 972 659 l 1,4,-1
 1314 659 l 1,5,-1
 1350 798 l 1,6,-1
 1399 806 l 1,7,-1
 1366 417 l 1,8,-1
 1319 408 l 1,9,-1
 1302 605 l 1,10,-1
 972 605 l 1,11,-1
 972 54 l 1,12,-1
 1536 54 l 1,13,-1
 1607 323 l 1,14,-1
 1649 313 l 1,15,-1
 1619 0 l 1,16,-1
 665 0 l 1,17,-1
 671 42 l 1,18,-1
 864 72 l 1,19,-1
 864 472 l 1,20,-1
 515 472 l 1,21,-1
 279 66 l 1,22,-1
 463 48 l 1,23,-1
 453 3 l 1,24,-1
 42 3 l 1,25,-1
 46 43 l 1,26,-1
 189 73 l 1,27,-1
 843 1180 l 1,28,-1
 610 1205 l 1,29,-1
 616 1244 l 1,30,-1
 1603 1244 l 1,31,-1
 1571 925 l 1,32,-1
 1527 931 l 1,33,-1
 1506 1193 l 1,34,-1
 972 1193 l 1,3,-1
EndSplineSet
Colour: ffffff
EndChar

StartChar: Aacute
Encoding: 193 193 2
Width: 1413
VWidth: 0
Flags: HMW
LayerCount: 2
Fore
SplineSet
500 534 m 1,0,-1
 893 534 l 1,1,-1
 700 1085 l 1,2,-1
 500 534 l 1,0,-1
108 0 m 1,3,-1
 113 42 l 1,4,-1
 255 72 l 1,5,-1
 693 1254 l 1,6,-1
 746 1268 l 1,7,-1
 1161 66 l 1,8,-1
 1293 47 l 1,9,-1
 1285 1 l 1,10,-1
 876 1 l 1,11,-1
 885 43 l 1,12,-1
 1051 73 l 1,13,-1
 912 478 l 1,14,-1
 480 478 l 1,15,-1
 332 65 l 1,16,-1
 516 46 l 1,17,-1
 507 0 l 1,18,-1
 108 0 l 1,3,-1
681 1376 m 1,19,-1
 813 1713 l 1,20,-1
 909 1674 l 1,21,-1
 726 1350 l 1,22,-1
 681 1376 l 1,19,-1
EndSplineSet
Colour: ffffff
EndChar

StartChar: Abreve
Encoding: 258 258 3
Width: 1413
VWidth: 0
Flags: HMW
LayerCount: 2
Fore
SplineSet
500 534 m 1,0,-1
 893 534 l 1,1,-1
 700 1085 l 1,2,-1
 500 534 l 1,0,-1
108 0 m 1,3,-1
 113 42 l 1,4,-1
 255 72 l 1,5,-1
 693 1254 l 1,6,-1
 746 1268 l 1,7,-1
 1161 66 l 1,8,-1
 1293 47 l 1,9,-1
 1285 1 l 1,10,-1
 876 1 l 1,11,-1
 885 43 l 1,12,-1
 1051 73 l 1,13,-1
 912 478 l 1,14,-1
 480 478 l 1,15,-1
 332 65 l 1,16,-1
 516 46 l 1,17,-1
 507 0 l 1,18,-1
 108 0 l 1,3,-1
730.5 1456 m 128,-1,20
 827 1456 827 1456 897 1585 c 1,21,-1
 920 1564 l 1,22,23
 860 1381 860 1381 721.5 1381 c 128,-1,24
 583 1381 583 1381 538 1559 c 1,25,-1
 568 1583 l 1,26,19
 634 1456 634 1456 730.5 1456 c 128,-1,20
EndSplineSet
Colour: ffffff
EndChar

StartChar: Acaron
Encoding: 461 461 4
Width: 1413
VWidth: 0
Flags: HMW
LayerCount: 2
Fore
SplineSet
500 534 m 1,0,-1
 893 534 l 1,1,-1
 700 1085 l 1,2,-1
 500 534 l 1,0,-1
108 0 m 1,3,-1
 113 42 l 1,4,-1
 255 72 l 1,5,-1
 693 1254 l 1,6,-1
 746 1268 l 1,7,-1
 1161 66 l 1,8,-1
 1293 47 l 1,9,-1
 1285 1 l 1,10,-1
 876 1 l 1,11,-1
 885 43 l 1,12,-1
 1051 73 l 1,13,-1
 912 478 l 1,14,-1
 480 478 l 1,15,-1
 332 65 l 1,16,-1
 516 46 l 1,17,-1
 507 0 l 1,18,-1
 108 0 l 1,3,-1
520 1543 m 1,19,-1
 575 1592 l 1,20,-1
 741 1423 l 1,21,-1
 750 1423 l 1,22,-1
 893 1588 l 1,23,-1
 929 1561 l 1,24,-1
 755 1377 l 1,25,-1
 699 1363 l 1,26,-1
 520 1543 l 1,19,-1
EndSplineSet
Colour: ffffff
EndChar

StartChar: Acircumflex
Encoding: 194 194 5
Width: 1413
VWidth: 0
Flags: HMW
LayerCount: 2
Fore
SplineSet
500 534 m 1,0,-1
 893 534 l 1,1,-1
 700 1085 l 1,2,-1
 500 534 l 1,0,-1
108 0 m 1,3,-1
 113 42 l 1,4,-1
 255 72 l 1,5,-1
 693 1254 l 1,6,-1
 746 1268 l 1,7,-1
 1161 66 l 1,8,-1
 1293 47 l 1,9,-1
 1285 1 l 1,10,-1
 876 1 l 1,11,-1
 885 43 l 1,12,-1
 1051 73 l 1,13,-1
 912 478 l 1,14,-1
 480 478 l 1,15,-1
 332 65 l 1,16,-1
 516 46 l 1,17,-1
 507 0 l 1,18,-1
 108 0 l 1,3,-1
525 1394 m 1,19,-1
 692 1575 l 1,20,-1
 746 1588 l 1,21,-1
 925 1402 l 1,22,-1
 893 1365 l 1,23,-1
 712 1500 l 1,24,-1
 703 1500 l 1,25,-1
 546 1364 l 1,26,-1
 525 1394 l 1,19,-1
EndSplineSet
Colour: ffffff
EndChar

StartChar: Adieresis
Encoding: 196 196 6
Width: 1413
VWidth: 0
Flags: HMW
LayerCount: 2
Fore
SplineSet
789 1463.5 m 128,-1,1
 789 1543 789 1543 845 1543 c 128,-1,2
 901 1543 901 1543 901 1463.5 c 128,-1,3
 901 1384 901 1384 845 1384 c 128,-1,0
 789 1384 789 1384 789 1463.5 c 128,-1,1
577 1384 m 0,4,5
 520 1384 520 1384 520 1463.5 c 128,-1,6
 520 1543 520 1543 576.5 1543 c 128,-1,7
 633 1543 633 1543 633 1465 c 0,8,9
 633 1424 633 1424 620.5 1404 c 128,-1,10
 608 1384 608 1384 577 1384 c 0,4,5
500 534 m 1,11,-1
 893 534 l 1,12,-1
 700 1085 l 1,13,-1
 500 534 l 1,11,-1
108 0 m 1,14,-1
 113 42 l 1,15,-1
 255 72 l 1,16,-1
 693 1254 l 1,17,-1
 746 1268 l 1,18,-1
 1161 66 l 1,19,-1
 1293 47 l 1,20,-1
 1285 1 l 1,21,-1
 876 1 l 1,22,-1
 885 43 l 1,23,-1
 1051 73 l 1,24,-1
 912 478 l 1,25,-1
 480 478 l 1,26,-1
 332 65 l 1,27,-1
 516 46 l 1,28,-1
 507 0 l 1,29,-1
 108 0 l 1,14,-1
EndSplineSet
Colour: ffffff
EndChar

StartChar: Agrave
Encoding: 192 192 7
Width: 1413
VWidth: 0
Flags: HMW
LayerCount: 2
Fore
SplineSet
500 534 m 1,0,-1
 893 534 l 1,1,-1
 700 1085 l 1,2,-1
 500 534 l 1,0,-1
108 0 m 1,3,-1
 113 42 l 1,4,-1
 255 72 l 1,5,-1
 693 1254 l 1,6,-1
 746 1268 l 1,7,-1
 1161 66 l 1,8,-1
 1293 47 l 1,9,-1
 1285 1 l 1,10,-1
 876 1 l 1,11,-1
 885 43 l 1,12,-1
 1051 73 l 1,13,-1
 912 478 l 1,14,-1
 480 478 l 1,15,-1
 332 65 l 1,16,-1
 516 46 l 1,17,-1
 507 0 l 1,18,-1
 108 0 l 1,3,-1
539 1667 m 1,19,-1
 633 1704 l 1,20,-1
 766 1368 l 1,21,-1
 720 1341 l 1,22,-1
 539 1667 l 1,19,-1
EndSplineSet
Colour: ffffff
EndChar

StartChar: Amacron
Encoding: 256 256 8
Width: 1413
VWidth: 0
Flags: HMW
LayerCount: 2
Fore
SplineSet
500 534 m 1,0,-1
 893 534 l 1,1,-1
 700 1085 l 1,2,-1
 500 534 l 1,0,-1
108 0 m 1,3,-1
 113 42 l 1,4,-1
 255 72 l 1,5,-1
 693 1254 l 1,6,-1
 746 1268 l 1,7,-1
 1161 66 l 1,8,-1
 1293 47 l 1,9,-1
 1285 1 l 1,10,-1
 876 1 l 1,11,-1
 885 43 l 1,12,-1
 1051 73 l 1,13,-1
 912 478 l 1,14,-1
 480 478 l 1,15,-1
 332 65 l 1,16,-1
 516 46 l 1,17,-1
 507 0 l 1,18,-1
 108 0 l 1,3,-1
487 1386 m 1,19,-1
 496 1438 l 1,20,-1
 936 1438 l 1,21,-1
 928 1386 l 1,22,-1
 487 1386 l 1,19,-1
EndSplineSet
Colour: ffffff
EndChar

StartChar: Aogonek
Encoding: 260 260 9
Width: 1413
VWidth: 0
Flags: HMW
LayerCount: 2
Fore
SplineSet
500 534 m 1,0,-1
 893 534 l 1,1,-1
 700 1085 l 1,2,-1
 500 534 l 1,0,-1
1200 -159.5 m 128,-1,4
 1200 -225 1200 -225 1234.5 -268 c 128,-1,5
 1269 -311 1269 -311 1341 -353 c 1,6,-1
 1308 -387 l 1,7,8
 1206 -376 1206 -376 1154 -326.5 c 128,-1,9
 1102 -277 1102 -277 1102 -220.5 c 128,-1,10
 1102 -164 1102 -164 1128.5 -116 c 128,-1,11
 1155 -68 1155 -68 1228 1 c 1,12,-1
 876 1 l 1,13,-1
 885 43 l 1,14,-1
 1051 73 l 1,15,-1
 912 478 l 1,16,-1
 480 478 l 1,17,-1
 332 65 l 1,18,-1
 516 46 l 1,19,-1
 507 0 l 1,20,-1
 108 0 l 1,21,-1
 113 42 l 1,22,-1
 255 72 l 1,23,-1
 693 1254 l 1,24,-1
 746 1268 l 1,25,-1
 1161 66 l 1,26,-1
 1293 47 l 1,27,-1
 1285 1 l 1,28,-1
 1278 1 l 1,29,3
 1200 -94 1200 -94 1200 -159.5 c 128,-1,4
EndSplineSet
Colour: ffffff
EndChar

StartChar: Aring
Encoding: 197 197 10
Width: 1413
VWidth: 0
Flags: HMW
LayerCount: 2
Fore
SplineSet
500 534 m 1,0,-1
 893 534 l 1,1,-1
 700 1085 l 1,2,-1
 500 534 l 1,0,-1
108 0 m 1,3,-1
 113 42 l 1,4,-1
 255 72 l 1,5,-1
 693 1254 l 1,6,-1
 746 1268 l 1,7,-1
 1161 66 l 1,8,-1
 1293 47 l 1,9,-1
 1285 1 l 1,10,-1
 876 1 l 1,11,-1
 885 43 l 1,12,-1
 1051 73 l 1,13,-1
 912 478 l 1,14,-1
 480 478 l 1,15,-1
 332 65 l 1,16,-1
 516 46 l 1,17,-1
 507 0 l 1,18,-1
 108 0 l 1,3,-1
618 1544.5 m 128,-1,20
 618 1493 618 1493 644.5 1451.5 c 128,-1,21
 671 1410 671 1410 717 1410 c 128,-1,22
 763 1410 763 1410 788 1441 c 128,-1,23
 813 1472 813 1472 813 1527 c 128,-1,24
 813 1582 813 1582 784.5 1624 c 128,-1,25
 756 1666 756 1666 710 1666 c 128,-1,26
 664 1666 664 1666 641 1631 c 128,-1,19
 618 1596 618 1596 618 1544.5 c 128,-1,20
553 1532 m 128,-1,28
 553 1605 553 1605 602 1655.5 c 128,-1,29
 651 1706 651 1706 722 1706 c 128,-1,30
 793 1706 793 1706 836 1660.5 c 128,-1,31
 879 1615 879 1615 879 1544 c 128,-1,32
 879 1473 879 1473 831 1421 c 128,-1,33
 783 1369 783 1369 711 1369 c 128,-1,34
 639 1369 639 1369 596 1414 c 128,-1,27
 553 1459 553 1459 553 1532 c 128,-1,28
EndSplineSet
Colour: ffffff
EndChar

StartChar: Atilde
Encoding: 195 195 11
Width: 1413
VWidth: 0
Flags: HMW
LayerCount: 2
Fore
SplineSet
500 534 m 1,0,-1
 893 534 l 1,1,-1
 700 1085 l 1,2,-1
 500 534 l 1,0,-1
108 0 m 1,3,-1
 113 42 l 1,4,-1
 255 72 l 1,5,-1
 693 1254 l 1,6,-1
 746 1268 l 1,7,-1
 1161 66 l 1,8,-1
 1293 47 l 1,9,-1
 1285 1 l 1,10,-1
 876 1 l 1,11,-1
 885 43 l 1,12,-1
 1051 73 l 1,13,-1
 912 478 l 1,14,-1
 480 478 l 1,15,-1
 332 65 l 1,16,-1
 516 46 l 1,17,-1
 507 0 l 1,18,-1
 108 0 l 1,3,-1
470 1389 m 1,19,20
 470 1407 470 1407 486 1440 c 128,-1,21
 502 1473 502 1473 510 1483 c 0,22,23
 566 1549 566 1549 628 1524 c 1,24,-1
 809 1470 l 2,25,26
 841 1460 841 1460 865 1477 c 128,-1,27
 889 1494 889 1494 897 1516 c 2,28,-1
 905 1537 l 1,29,-1
 939 1535 l 1,30,31
 938 1534 938 1534 937 1530 c 0,32,33
 929 1503 929 1503 924 1492 c 2,34,-1
 912 1467 l 2,35,36
 902 1447 902 1447 881 1427 c 0,37,38
 831 1379 831 1379 773 1401 c 1,39,-1
 597 1453 l 2,40,41
 569 1462 569 1462 544 1443 c 0,42,43
 518 1424 518 1424 508 1400 c 2,44,-1
 498 1377 l 1,45,-1
 470 1389 l 1,19,20
EndSplineSet
Colour: ffffff
EndChar

StartChar: B
Encoding: 66 66 12
Width: 1123
VWidth: 0
Flags: HMW
LayerCount: 2
Fore
SplineSet
393 680 m 1,0,-1
 703 680 l 1,1,2
 770 723 770 723 819 788 c 128,-1,3
 868 853 868 853 868 933 c 0,4,5
 868 1071 868 1071 774.5 1141.5 c 128,-1,6
 681 1212 681 1212 515 1212 c 0,7,8
 420 1212 420 1212 393 1206 c 1,9,-1
 393 680 l 1,0,-1
393 54 m 1,10,-1
 639 54 l 2,11,12
 892 54 892 54 953 242 c 0,13,14
 969 291 969 291 969 344 c 0,15,16
 969 451 969 451 896.5 541 c 128,-1,17
 824 631 824 631 649 631 c 2,18,-1
 393 631 l 1,19,-1
 393 54 l 1,10,-1
573 1257 m 0,20,21
 761 1257 761 1257 865.5 1172.5 c 128,-1,22
 970 1088 970 1088 970 967 c 0,23,24
 970 792 970 792 763 678 c 1,25,-1
 763 672 l 1,26,27
 908 664 908 664 991.5 576.5 c 128,-1,28
 1075 489 1075 489 1075 380 c 0,29,30
 1076 92 1076 92 756 21 c 0,31,32
 662 0 662 0 540 0 c 2,33,-1
 115 0 l 1,34,-1
 123 42 l 1,35,-1
 292 72 l 1,36,-1
 292 1153 l 1,37,-1
 120 1175 l 1,38,-1
 130 1211 l 1,39,40
 364 1250 364 1250 443 1253.5 c 128,-1,41
 522 1257 522 1257 573 1257 c 0,20,21
EndSplineSet
Colour: ffffff
EndChar

StartChar: C
Encoding: 67 67 13
Width: 1071
VWidth: 0
Flags: HMW
LayerCount: 2
Fore
SplineSet
154 607 m 0,0,1
 154 758 154 758 214 909 c 0,2,3
 274 1061 274 1061 402 1166 c 0,4,5
 530 1271 530 1271 727 1271 c 128,-1,6
 924 1271 924 1271 1057 1171 c 1,7,-1
 1026 834 l 1,8,-1
 979 842 l 1,9,-1
 949 1101 l 1,10,11
 862 1215 862 1215 682 1215 c 128,-1,12
 502 1215 502 1215 381 1053.5 c 128,-1,13
 260 892 260 892 260 627 c 128,-1,14
 260 362 260 362 377.5 208 c 128,-1,15
 495 54 495 54 711 54 c 0,16,17
 818 54 818 54 919 109 c 128,-1,18
 1020 164 1020 164 1089 243 c 1,19,-1
 1112 206 l 1,20,21
 1060 128 1060 128 940 51 c 0,22,23
 819 -26 819 -26 665 -26 c 0,24,25
 435 -26 435 -26 294.5 146.5 c 128,-1,26
 154 319 154 319 154 607 c 0,0,1
EndSplineSet
Colour: ffffff
EndChar

StartChar: Cacute
Encoding: 262 262 14
Width: 1071
VWidth: 0
Flags: HMW
LayerCount: 2
Fore
SplineSet
154 607 m 0,0,1
 154 758 154 758 214 909 c 0,2,3
 274 1061 274 1061 402 1166 c 0,4,5
 530 1271 530 1271 727 1271 c 128,-1,6
 924 1271 924 1271 1057 1171 c 1,7,-1
 1026 834 l 1,8,-1
 979 842 l 1,9,-1
 949 1101 l 1,10,11
 862 1215 862 1215 682 1215 c 128,-1,12
 502 1215 502 1215 381 1053.5 c 128,-1,13
 260 892 260 892 260 627 c 128,-1,14
 260 362 260 362 377.5 208 c 128,-1,15
 495 54 495 54 711 54 c 0,16,17
 818 54 818 54 919 109 c 128,-1,18
 1020 164 1020 164 1089 243 c 1,19,-1
 1112 206 l 1,20,21
 1060 128 1060 128 940 51 c 0,22,23
 819 -26 819 -26 665 -26 c 0,24,25
 435 -26 435 -26 294.5 146.5 c 128,-1,26
 154 319 154 319 154 607 c 0,0,1
671 1376 m 1,27,-1
 803 1713 l 1,28,-1
 899 1674 l 1,29,-1
 716 1350 l 1,30,-1
 671 1376 l 1,27,-1
EndSplineSet
Colour: ffffff
EndChar

StartChar: Ccaron
Encoding: 268 268 15
Width: 1071
VWidth: 0
Flags: HMW
LayerCount: 2
Fore
SplineSet
154 607 m 0,0,1
 154 758 154 758 214 909 c 0,2,3
 274 1061 274 1061 402 1166 c 0,4,5
 530 1271 530 1271 727 1271 c 128,-1,6
 924 1271 924 1271 1057 1171 c 1,7,-1
 1026 834 l 1,8,-1
 979 842 l 1,9,-1
 949 1101 l 1,10,11
 862 1215 862 1215 682 1215 c 128,-1,12
 502 1215 502 1215 381 1053.5 c 128,-1,13
 260 892 260 892 260 627 c 128,-1,14
 260 362 260 362 377.5 208 c 128,-1,15
 495 54 495 54 711 54 c 0,16,17
 818 54 818 54 919 109 c 128,-1,18
 1020 164 1020 164 1089 243 c 1,19,-1
 1112 206 l 1,20,21
 1060 128 1060 128 940 51 c 0,22,23
 819 -26 819 -26 665 -26 c 0,24,25
 435 -26 435 -26 294.5 146.5 c 128,-1,26
 154 319 154 319 154 607 c 0,0,1
517 1543 m 1,27,-1
 572 1592 l 1,28,-1
 738 1423 l 1,29,-1
 747 1423 l 1,30,-1
 890 1588 l 1,31,-1
 926 1561 l 1,32,-1
 752 1377 l 1,33,-1
 696 1363 l 1,34,-1
 517 1543 l 1,27,-1
EndSplineSet
Colour: ffffff
EndChar

StartChar: Ccedilla
Encoding: 199 199 16
Width: 1071
VWidth: 0
Flags: HMW
LayerCount: 2
Fore
SplineSet
154 607 m 0,0,1
 154 758 154 758 214 909 c 0,2,3
 274 1061 274 1061 402 1166 c 0,4,5
 530 1271 530 1271 727 1271 c 128,-1,6
 924 1271 924 1271 1057 1171 c 1,7,-1
 1026 834 l 1,8,-1
 979 842 l 1,9,-1
 949 1101 l 1,10,11
 862 1215 862 1215 682 1215 c 128,-1,12
 502 1215 502 1215 381 1053.5 c 128,-1,13
 260 892 260 892 260 627 c 128,-1,14
 260 362 260 362 377.5 208 c 128,-1,15
 495 54 495 54 711 54 c 0,16,17
 818 54 818 54 919 109 c 128,-1,18
 1020 164 1020 164 1089 243 c 1,19,-1
 1112 206 l 1,20,21
 1065 136 1065 136 964 66 c 0,22,23
 863 -4 863 -4 730 -22 c 1,24,-1
 692 -76 l 1,25,26
 781 -155 781 -155 781 -219 c 128,-1,27
 781 -283 781 -283 729.5 -322 c 128,-1,28
 678 -361 678 -361 582 -390 c 1,29,-1
 571 -347 l 1,30,31
 614 -332 614 -332 651.5 -300.5 c 128,-1,32
 689 -269 689 -269 689 -246.5 c 128,-1,33
 689 -224 689 -224 679.5 -203.5 c 128,-1,34
 670 -183 670 -183 661 -172.5 c 128,-1,35
 652 -162 652 -162 630.5 -143 c 128,-1,36
 609 -124 609 -124 603 -118 c 1,37,-1
 668 -26 l 1,38,39
 667 -26 667 -26 665 -26 c 0,40,41
 435 -26 435 -26 294.5 146.5 c 128,-1,42
 154 319 154 319 154 607 c 0,0,1
EndSplineSet
Colour: ffffff
EndChar

StartChar: Cdotaccent
Encoding: 266 266 17
Width: 1071
VWidth: 0
Flags: HMW
LayerCount: 2
Fore
SplineSet
698 1376 m 128,-1,1
 635 1376 635 1376 635 1476 c 128,-1,2
 635 1576 635 1576 698 1576 c 128,-1,3
 761 1576 761 1576 761 1476 c 128,-1,0
 761 1376 761 1376 698 1376 c 128,-1,1
154 607 m 0,4,5
 154 758 154 758 214 909 c 0,6,7
 274 1061 274 1061 402 1166 c 0,8,9
 530 1271 530 1271 727 1271 c 128,-1,10
 924 1271 924 1271 1057 1171 c 1,11,-1
 1026 834 l 1,12,-1
 979 842 l 1,13,-1
 949 1101 l 1,14,15
 862 1215 862 1215 682 1215 c 128,-1,16
 502 1215 502 1215 381 1053.5 c 128,-1,17
 260 892 260 892 260 627 c 128,-1,18
 260 362 260 362 377.5 208 c 128,-1,19
 495 54 495 54 711 54 c 0,20,21
 818 54 818 54 919 109 c 128,-1,22
 1020 164 1020 164 1089 243 c 1,23,-1
 1112 206 l 1,24,25
 1060 128 1060 128 940 51 c 0,26,27
 819 -26 819 -26 665 -26 c 0,28,29
 435 -26 435 -26 294.5 146.5 c 128,-1,30
 154 319 154 319 154 607 c 0,4,5
EndSplineSet
Colour: ffffff
EndChar

StartChar: D
Encoding: 68 68 18
Width: 1322
VWidth: 0
Flags: HMW
LayerCount: 2
Fore
SplineSet
393 54 m 1,0,-1
 573 54 l 2,1,2
 837 54 837 54 997.5 212 c 128,-1,3
 1158 370 1158 370 1158 638 c 128,-1,4
 1158 906 1158 906 1004 1055.5 c 128,-1,5
 850 1205 850 1205 567 1205 c 0,6,7
 421 1205 421 1205 393 1201 c 1,8,-1
 393 54 l 1,0,-1
590 1259 m 0,9,10
 744 1258 744 1258 858 1224 c 0,11,12
 1066 1161 1066 1161 1166 1003.5 c 128,-1,13
 1266 846 1266 846 1266 655 c 0,14,15
 1266 313 1266 313 1022 132 c 0,16,17
 843 0 843 0 546 0 c 2,18,-1
 115 0 l 1,19,-1
 123 42 l 1,20,-1
 292 72 l 1,21,-1
 292 1153 l 1,22,-1
 120 1175 l 1,23,-1
 130 1211 l 1,24,25
 435 1259 435 1259 590 1259 c 0,9,10
EndSplineSet
Colour: ffffff
EndChar

StartChar: Dcaron
Encoding: 270 270 19
Width: 1322
VWidth: 0
Flags: HMW
LayerCount: 2
Fore
SplineSet
393 54 m 1,0,-1
 573 54 l 2,1,2
 837 54 837 54 997.5 212 c 128,-1,3
 1158 370 1158 370 1158 638 c 128,-1,4
 1158 906 1158 906 1004 1055.5 c 128,-1,5
 850 1205 850 1205 567 1205 c 0,6,7
 421 1205 421 1205 393 1201 c 1,8,-1
 393 54 l 1,0,-1
590 1259 m 0,9,10
 744 1258 744 1258 858 1224 c 0,11,12
 1066 1161 1066 1161 1166 1003.5 c 128,-1,13
 1266 846 1266 846 1266 655 c 0,14,15
 1266 313 1266 313 1022 132 c 0,16,17
 843 0 843 0 546 0 c 2,18,-1
 115 0 l 1,19,-1
 123 42 l 1,20,-1
 292 72 l 1,21,-1
 292 1153 l 1,22,-1
 120 1175 l 1,23,-1
 130 1211 l 1,24,25
 435 1259 435 1259 590 1259 c 0,9,10
440 1543 m 1,26,-1
 495 1592 l 1,27,-1
 661 1423 l 1,28,-1
 670 1423 l 1,29,-1
 813 1588 l 1,30,-1
 849 1561 l 1,31,-1
 675 1377 l 1,32,-1
 619 1363 l 1,33,-1
 440 1543 l 1,26,-1
EndSplineSet
Colour: ffffff
EndChar

StartChar: Dcroat
Encoding: 272 272 20
Width: 1322
VWidth: 0
Flags: HMW
LayerCount: 2
Fore
SplineSet
393 54 m 1,0,-1
 573 54 l 2,1,2
 839 54 839 54 1000 202.5 c 128,-1,3
 1161 351 1161 351 1161 614.5 c 128,-1,4
 1161 878 1161 878 1007 1041.5 c 128,-1,5
 853 1205 853 1205 567 1205 c 0,6,7
 421 1205 421 1205 393 1201 c 1,8,-1
 393 672 l 1,9,-1
 680 691 l 1,10,-1
 672 631 l 1,11,-1
 393 612 l 1,12,-1
 393 54 l 1,0,-1
594 1259 m 0,13,14
 752 1260 752 1260 868 1226 c 0,15,16
 1081 1165 1081 1165 1178 1010.5 c 128,-1,17
 1275 856 1275 856 1275 646 c 0,18,19
 1276 436 1276 436 1166 277 c 0,20,21
 976 0 976 0 546 0 c 2,22,-1
 115 0 l 1,23,-1
 123 42 l 1,24,-1
 292 72 l 1,25,-1
 292 605 l 1,26,-1
 111 592 l 1,27,-1
 120 653 l 1,28,-1
 292 664 l 1,29,-1
 292 1153 l 1,30,-1
 120 1175 l 1,31,-1
 130 1211 l 1,32,33
 436 1259 436 1259 594 1259 c 0,13,14
EndSplineSet
Colour: ffffff
EndChar

StartChar: E
Encoding: 69 69 21
Width: 1071
VWidth: 0
Flags: HMW
LayerCount: 2
Fore
SplineSet
401 1193 m 1,0,-1
 401 659 l 1,1,-1
 736 659 l 1,2,-1
 773 798 l 1,3,-1
 827 806 l 1,4,-1
 794 417 l 1,5,-1
 743 408 l 1,6,-1
 727 605 l 1,7,-1
 401 605 l 1,8,-1
 401 54 l 1,9,-1
 963 54 l 1,10,-1
 1037 323 l 1,11,-1
 1078 313 l 1,12,-1
 1048 0 l 1,13,-1
 121 0 l 1,14,-1
 127 42 l 1,15,-1
 297 72 l 1,16,-1
 297 1175 l 1,17,-1
 118 1202 l 1,18,-1
 125 1244 l 1,19,-1
 1031 1244 l 1,20,-1
 1000 925 l 1,21,-1
 954 931 l 1,22,-1
 935 1193 l 1,23,-1
 401 1193 l 1,0,-1
EndSplineSet
Colour: ffffff
EndChar

StartChar: Eacute
Encoding: 201 201 22
Width: 1071
VWidth: 0
Flags: HMW
LayerCount: 2
Fore
SplineSet
401 1193 m 1,0,-1
 401 659 l 1,1,-1
 736 659 l 1,2,-1
 773 798 l 1,3,-1
 827 806 l 1,4,-1
 794 417 l 1,5,-1
 743 408 l 1,6,-1
 727 605 l 1,7,-1
 401 605 l 1,8,-1
 401 54 l 1,9,-1
 963 54 l 1,10,-1
 1037 323 l 1,11,-1
 1078 313 l 1,12,-1
 1048 0 l 1,13,-1
 121 0 l 1,14,-1
 127 42 l 1,15,-1
 297 72 l 1,16,-1
 297 1175 l 1,17,-1
 118 1202 l 1,18,-1
 125 1244 l 1,19,-1
 1031 1244 l 1,20,-1
 1000 925 l 1,21,-1
 954 931 l 1,22,-1
 935 1193 l 1,23,-1
 401 1193 l 1,0,-1
556 1376 m 1,24,-1
 688 1713 l 1,25,-1
 784 1674 l 1,26,-1
 601 1350 l 1,27,-1
 556 1376 l 1,24,-1
EndSplineSet
Colour: ffffff
EndChar

StartChar: Ecaron
Encoding: 282 282 23
Width: 1071
VWidth: 0
Flags: HMW
LayerCount: 2
Fore
SplineSet
401 1193 m 1,0,-1
 401 659 l 1,1,-1
 736 659 l 1,2,-1
 773 798 l 1,3,-1
 827 806 l 1,4,-1
 794 417 l 1,5,-1
 743 408 l 1,6,-1
 727 605 l 1,7,-1
 401 605 l 1,8,-1
 401 54 l 1,9,-1
 963 54 l 1,10,-1
 1037 323 l 1,11,-1
 1078 313 l 1,12,-1
 1048 0 l 1,13,-1
 121 0 l 1,14,-1
 127 42 l 1,15,-1
 297 72 l 1,16,-1
 297 1175 l 1,17,-1
 118 1202 l 1,18,-1
 125 1244 l 1,19,-1
 1031 1244 l 1,20,-1
 1000 925 l 1,21,-1
 954 931 l 1,22,-1
 935 1193 l 1,23,-1
 401 1193 l 1,0,-1
434 1543 m 1,24,-1
 489 1592 l 1,25,-1
 655 1423 l 1,26,-1
 664 1423 l 1,27,-1
 807 1588 l 1,28,-1
 843 1561 l 1,29,-1
 669 1377 l 1,30,-1
 613 1363 l 1,31,-1
 434 1543 l 1,24,-1
EndSplineSet
Colour: ffffff
EndChar

StartChar: Ecircumflex
Encoding: 202 202 24
Width: 1071
VWidth: 0
Flags: HMW
LayerCount: 2
Fore
SplineSet
401 1193 m 1,0,-1
 401 659 l 1,1,-1
 736 659 l 1,2,-1
 773 798 l 1,3,-1
 827 806 l 1,4,-1
 794 417 l 1,5,-1
 743 408 l 1,6,-1
 727 605 l 1,7,-1
 401 605 l 1,8,-1
 401 54 l 1,9,-1
 963 54 l 1,10,-1
 1037 323 l 1,11,-1
 1078 313 l 1,12,-1
 1048 0 l 1,13,-1
 121 0 l 1,14,-1
 127 42 l 1,15,-1
 297 72 l 1,16,-1
 297 1175 l 1,17,-1
 118 1202 l 1,18,-1
 125 1244 l 1,19,-1
 1031 1244 l 1,20,-1
 1000 925 l 1,21,-1
 954 931 l 1,22,-1
 935 1193 l 1,23,-1
 401 1193 l 1,0,-1
423 1394 m 1,24,-1
 590 1575 l 1,25,-1
 644 1588 l 1,26,-1
 823 1402 l 1,27,-1
 791 1365 l 1,28,-1
 610 1500 l 1,29,-1
 601 1500 l 1,30,-1
 444 1364 l 1,31,-1
 423 1394 l 1,24,-1
EndSplineSet
Colour: ffffff
EndChar

StartChar: Edieresis
Encoding: 203 203 25
Width: 1071
VWidth: 0
Flags: HMW
LayerCount: 2
Fore
SplineSet
401 1193 m 1,0,-1
 401 659 l 1,1,-1
 736 659 l 1,2,-1
 773 798 l 1,3,-1
 827 806 l 1,4,-1
 794 417 l 1,5,-1
 743 408 l 1,6,-1
 727 605 l 1,7,-1
 401 605 l 1,8,-1
 401 54 l 1,9,-1
 963 54 l 1,10,-1
 1037 323 l 1,11,-1
 1078 313 l 1,12,-1
 1048 0 l 1,13,-1
 121 0 l 1,14,-1
 127 42 l 1,15,-1
 297 72 l 1,16,-1
 297 1175 l 1,17,-1
 118 1202 l 1,18,-1
 125 1244 l 1,19,-1
 1031 1244 l 1,20,-1
 1000 925 l 1,21,-1
 954 931 l 1,22,-1
 935 1193 l 1,23,-1
 401 1193 l 1,0,-1
699 1452.5 m 128,-1,25
 699 1532 699 1532 755 1532 c 128,-1,26
 811 1532 811 1532 811 1452.5 c 128,-1,27
 811 1373 811 1373 755 1373 c 128,-1,24
 699 1373 699 1373 699 1452.5 c 128,-1,25
487 1373 m 0,28,29
 430 1373 430 1373 430 1452.5 c 128,-1,30
 430 1532 430 1532 486.5 1532 c 128,-1,31
 543 1532 543 1532 543 1454 c 0,32,33
 543 1413 543 1413 530.5 1393 c 128,-1,34
 518 1373 518 1373 487 1373 c 0,28,29
EndSplineSet
Colour: ffffff
EndChar

StartChar: Edotaccent
Encoding: 278 278 26
Width: 1071
VWidth: 0
Flags: HMW
LayerCount: 2
Fore
SplineSet
401 1193 m 1,0,-1
 401 659 l 1,1,-1
 736 659 l 1,2,-1
 773 798 l 1,3,-1
 827 806 l 1,4,-1
 794 417 l 1,5,-1
 743 408 l 1,6,-1
 727 605 l 1,7,-1
 401 605 l 1,8,-1
 401 54 l 1,9,-1
 963 54 l 1,10,-1
 1037 323 l 1,11,-1
 1078 313 l 1,12,-1
 1048 0 l 1,13,-1
 121 0 l 1,14,-1
 127 42 l 1,15,-1
 297 72 l 1,16,-1
 297 1175 l 1,17,-1
 118 1202 l 1,18,-1
 125 1244 l 1,19,-1
 1031 1244 l 1,20,-1
 1000 925 l 1,21,-1
 954 931 l 1,22,-1
 935 1193 l 1,23,-1
 401 1193 l 1,0,-1
550 1455.5 m 128,-1,25
 550 1555 550 1555 613 1555 c 128,-1,26
 676 1555 676 1555 676 1455.5 c 128,-1,27
 676 1356 676 1356 613 1356 c 128,-1,24
 550 1356 550 1356 550 1455.5 c 128,-1,25
EndSplineSet
Colour: ffffff
EndChar

StartChar: Egrave
Encoding: 200 200 27
Width: 1071
VWidth: 0
Flags: HMW
LayerCount: 2
Fore
SplineSet
401 1193 m 1,0,-1
 401 659 l 1,1,-1
 736 659 l 1,2,-1
 773 798 l 1,3,-1
 827 806 l 1,4,-1
 794 417 l 1,5,-1
 743 408 l 1,6,-1
 727 605 l 1,7,-1
 401 605 l 1,8,-1
 401 54 l 1,9,-1
 963 54 l 1,10,-1
 1037 323 l 1,11,-1
 1078 313 l 1,12,-1
 1048 0 l 1,13,-1
 121 0 l 1,14,-1
 127 42 l 1,15,-1
 297 72 l 1,16,-1
 297 1175 l 1,17,-1
 118 1202 l 1,18,-1
 125 1244 l 1,19,-1
 1031 1244 l 1,20,-1
 1000 925 l 1,21,-1
 954 931 l 1,22,-1
 935 1193 l 1,23,-1
 401 1193 l 1,0,-1
457 1667 m 1,24,-1
 551 1704 l 1,25,-1
 684 1368 l 1,26,-1
 638 1341 l 1,27,-1
 457 1667 l 1,24,-1
EndSplineSet
Colour: ffffff
EndChar

StartChar: Emacron
Encoding: 274 274 28
Width: 1071
VWidth: 0
Flags: HMW
LayerCount: 2
Fore
SplineSet
401 1193 m 1,0,-1
 401 659 l 1,1,-1
 736 659 l 1,2,-1
 773 798 l 1,3,-1
 827 806 l 1,4,-1
 794 417 l 1,5,-1
 743 408 l 1,6,-1
 727 605 l 1,7,-1
 401 605 l 1,8,-1
 401 54 l 1,9,-1
 963 54 l 1,10,-1
 1037 323 l 1,11,-1
 1078 313 l 1,12,-1
 1048 0 l 1,13,-1
 121 0 l 1,14,-1
 127 42 l 1,15,-1
 297 72 l 1,16,-1
 297 1175 l 1,17,-1
 118 1202 l 1,18,-1
 125 1244 l 1,19,-1
 1031 1244 l 1,20,-1
 1000 925 l 1,21,-1
 954 931 l 1,22,-1
 935 1193 l 1,23,-1
 401 1193 l 1,0,-1
379 1386 m 1,24,-1
 388 1438 l 1,25,-1
 828 1438 l 1,26,-1
 820 1386 l 1,27,-1
 379 1386 l 1,24,-1
EndSplineSet
Colour: ffffff
EndChar

StartChar: Eng
Encoding: 330 330 29
Width: 1377
VWidth: 0
Flags: HMW
LayerCount: 2
Fore
SplineSet
1151 151 m 2,0,1
 1151 -197 1151 -197 930 -353 c 1,2,-1
 885 -384 l 1,3,-1
 852 -335 l 1,4,5
 1025 -207 1025 -207 1052 50 c 1,6,-1
 335 1133 l 1,7,-1
 335 65 l 1,8,-1
 519 46 l 1,9,-1
 509 0 l 1,10,-1
 88 0 l 1,11,-1
 94 42 l 1,12,-1
 261 72 l 1,13,-1
 261 1175 l 1,14,-1
 76 1208 l 1,15,-1
 84 1244 l 1,16,-1
 387 1244 l 1,17,-1
 1078 179 l 1,18,-1
 1078 1180 l 1,19,-1
 895 1205 l 1,20,-1
 901 1244 l 1,21,-1
 1325 1244 l 1,22,-1
 1317 1205 l 1,23,-1
 1151 1182 l 1,24,-1
 1151 151 l 2,0,1
EndSplineSet
Colour: ffffff
EndChar

StartChar: Eogonek
Encoding: 280 280 30
Width: 1071
VWidth: 0
Flags: HMW
LayerCount: 2
Fore
SplineSet
956 -161 m 128,-1,1
 956 -225 956 -225 990.5 -268 c 128,-1,2
 1025 -311 1025 -311 1097 -353 c 1,3,-1
 1064 -387 l 1,4,5
 962 -376 962 -376 910 -326.5 c 128,-1,6
 858 -277 858 -277 858 -220.5 c 128,-1,7
 858 -164 858 -164 884.5 -116 c 128,-1,8
 911 -68 911 -68 984 0 c 1,9,-1
 121 0 l 1,10,-1
 127 42 l 1,11,-1
 297 72 l 1,12,-1
 297 1175 l 1,13,-1
 118 1202 l 1,14,-1
 125 1244 l 1,15,-1
 1031 1244 l 1,16,-1
 1000 925 l 1,17,-1
 954 931 l 1,18,-1
 935 1193 l 1,19,-1
 401 1193 l 1,20,-1
 401 659 l 1,21,-1
 736 659 l 1,22,-1
 773 798 l 1,23,-1
 827 806 l 1,24,-1
 794 417 l 1,25,-1
 743 408 l 1,26,-1
 727 605 l 1,27,-1
 401 605 l 1,28,-1
 401 54 l 1,29,-1
 963 54 l 1,30,-1
 1037 323 l 1,31,-1
 1078 313 l 1,32,-1
 1048 0 l 1,33,-1
 1034 0 l 1,34,0
 956 -97 956 -97 956 -161 c 128,-1,1
EndSplineSet
Colour: ffffff
EndChar

StartChar: Eth
Encoding: 208 208 31
Width: 1322
VWidth: 0
Flags: HMW
LayerCount: 2
Fore
SplineSet
393 54 m 1,0,-1
 573 54 l 2,1,2
 839 54 839 54 1000 202.5 c 128,-1,3
 1161 351 1161 351 1161 614.5 c 128,-1,4
 1161 878 1161 878 1007 1041.5 c 128,-1,5
 853 1205 853 1205 567 1205 c 0,6,7
 421 1205 421 1205 393 1201 c 1,8,-1
 393 672 l 1,9,-1
 680 691 l 1,10,-1
 672 631 l 1,11,-1
 393 612 l 1,12,-1
 393 54 l 1,0,-1
594 1259 m 0,13,14
 752 1260 752 1260 868 1226 c 0,15,16
 1081 1165 1081 1165 1178 1010.5 c 128,-1,17
 1275 856 1275 856 1275 646 c 0,18,19
 1276 436 1276 436 1166 277 c 0,20,21
 976 0 976 0 546 0 c 2,22,-1
 115 0 l 1,23,-1
 123 42 l 1,24,-1
 292 72 l 1,25,-1
 292 605 l 1,26,-1
 111 592 l 1,27,-1
 120 653 l 1,28,-1
 292 664 l 1,29,-1
 292 1153 l 1,30,-1
 120 1175 l 1,31,-1
 130 1211 l 1,32,33
 436 1259 436 1259 594 1259 c 0,13,14
EndSplineSet
Colour: ffffff
EndChar

StartChar: Euro
Encoding: 8364 8364 32
Width: 1071
VWidth: 0
Flags: HMW
LayerCount: 2
Fore
SplineSet
676 1271 m 128,-1,1
 782 1271 782 1271 849 1249 c 128,-1,2
 916 1227 916 1227 990 1171 c 1,3,-1
 958 834 l 1,4,-1
 914 842 l 1,5,-1
 884 1101 l 1,6,7
 852 1155 852 1155 806.5 1180.5 c 128,-1,8
 761 1206 761 1206 680 1206 c 0,9,10
 507 1206 507 1206 401.5 1088.5 c 128,-1,11
 296 971 296 971 270 758 c 1,12,-1
 806 758 l 1,13,-1
 793 693 l 1,14,-1
 264 693 l 1,15,16
 262 656 262 656 262 628 c 128,-1,17
 262 600 262 600 262 584 c 1,18,-1
 760 584 l 1,19,-1
 747 517 l 1,20,-1
 266 517 l 1,21,22
 285 283 285 283 393.5 163 c 128,-1,23
 502 43 502 43 679 43 c 0,24,25
 732 43 732 43 792.5 75.5 c 128,-1,26
 853 108 853 108 899 172 c 1,27,-1
 931 432 l 1,28,-1
 975 438 l 1,29,-1
 1006 103 l 1,30,31
 910 35 910 35 826.5 4.5 c 128,-1,32
 743 -26 743 -26 627 -26 c 0,33,34
 425 -26 425 -26 291.5 122 c 128,-1,35
 158 270 158 270 141 517 c 1,36,-1
 -37 517 l 1,37,-1
 -36 584 l 1,38,-1
 139 584 l 1,39,40
 139 640 139 640 144 693 c 1,41,-1
 -31 693 l 1,42,-1
 -29 758 l 1,43,-1
 152 758 l 1,44,45
 188 985 188 985 318 1124 c 0,46,47
 383 1194 383 1194 476.5 1232.5 c 128,-1,0
 570 1271 570 1271 676 1271 c 128,-1,1
EndSplineSet
Colour: ffffff
EndChar

StartChar: Euro.osf
Encoding: 65536 -1 33
Width: 1071
VWidth: 0
Flags: HMW
LayerCount: 2
Fore
SplineSet
576 972 m 0,0,1
 690 972 690 972 813 899 c 1,2,-1
 783 614 l 1,3,-1
 736 622 l 1,4,-1
 707 831 l 1,5,6
 631 908 631 908 544 908 c 128,-1,7
 457 908 457 908 399 863 c 0,8,9
 290 778 290 778 267 574 c 1,10,-1
 628 574 l 1,11,-1
 616 509 l 1,12,-1
 263 509 l 1,13,14
 262 493 262 493 262 472 c 128,-1,15
 262 451 262 451 264 425 c 1,16,-1
 595 425 l 1,17,-1
 582 358 l 1,18,-1
 272 358 l 1,19,20
 296 221 296 221 374 131.5 c 128,-1,21
 452 42 452 42 581 42 c 0,22,23
 669 42 669 42 723 105 c 1,24,-1
 752 317 l 1,25,-1
 798 323 l 1,26,-1
 829 54 l 1,27,28
 736 -24 736 -24 571 -24 c 0,29,30
 301 -24 301 -24 190 206 c 0,31,32
 156 275 156 275 145 358 c 1,33,-1
 7 358 l 1,34,-1
 15 425 l 1,35,-1
 139 425 l 1,36,37
 138 467 138 467 142 509 c 1,38,-1
 15 509 l 1,39,-1
 19 574 l 1,40,-1
 152 574 l 1,41,42
 185 743 185 743 296.5 857.5 c 128,-1,43
 408 972 408 972 576 972 c 0,0,1
EndSplineSet
Colour: ffffff
EndChar

StartChar: F
Encoding: 70 70 34
Width: 1181
VWidth: 0
Flags: HMW
LayerCount: 2
Fore
SplineSet
391 1193 m 1,0,-1
 391 633 l 1,1,-1
 724 633 l 1,2,-1
 763 773 l 1,3,-1
 819 780 l 1,4,-1
 788 392 l 1,5,-1
 733 384 l 1,6,-1
 715 580 l 1,7,-1
 391 580 l 1,8,-1
 391 70 l 1,9,-1
 637 53 l 1,10,-1
 625 0 l 1,11,-1
 115 0 l 1,12,-1
 118 42 l 1,13,-1
 288 72 l 1,14,-1
 288 1175 l 1,15,-1
 111 1202 l 1,16,-1
 118 1244 l 1,17,-1
 1024 1244 l 1,18,-1
 991 922 l 1,19,-1
 942 930 l 1,20,-1
 921 1193 l 1,21,-1
 391 1193 l 1,0,-1
EndSplineSet
Colour: ffffff
EndChar

StartChar: G
Encoding: 71 71 35
Width: 1413
VWidth: 0
Flags: HMW
LayerCount: 2
Fore
SplineSet
1130 79 m 1,0,1
 965 -20 965 -20 688 -20 c 0,2,3
 448 -20 448 -20 304 147 c 0,4,5
 236 226 236 226 195 344.5 c 128,-1,6
 154 463 154 463 154 579.5 c 128,-1,7
 154 696 154 696 179 790 c 0,8,9
 230 981 230 981 379.5 1121.5 c 128,-1,10
 529 1262 529 1262 764.5 1262 c 128,-1,11
 1000 1262 1000 1262 1135 1160 c 1,12,-1
 1105 842 l 1,13,-1
 1060 847 l 1,14,-1
 1029 1083 l 1,15,16
 990 1133 990 1133 910 1168 c 128,-1,17
 830 1203 830 1203 719 1203 c 0,18,19
 513 1203 513 1203 390.5 1042 c 128,-1,20
 268 881 268 881 268 633 c 0,21,22
 268 331 268 331 430 168 c 0,23,24
 552 45 552 45 764 45 c 0,25,26
 919 45 919 45 1024 118 c 1,27,-1
 1026 492 l 1,28,-1
 785 517 l 1,29,-1
 791 556 l 1,30,-1
 1271 556 l 1,31,-1
 1264 517 l 1,32,-1
 1130 496 l 1,33,-1
 1130 79 l 1,0,1
EndSplineSet
Colour: ffffff
EndChar

StartChar: Gbreve
Encoding: 286 286 36
Width: 1413
VWidth: 0
Flags: HMW
LayerCount: 2
Fore
SplineSet
1130 79 m 1,0,1
 965 -20 965 -20 688 -20 c 0,2,3
 448 -20 448 -20 304 147 c 0,4,5
 236 226 236 226 195 344.5 c 128,-1,6
 154 463 154 463 154 579.5 c 128,-1,7
 154 696 154 696 179 790 c 0,8,9
 230 981 230 981 379.5 1121.5 c 128,-1,10
 529 1262 529 1262 764.5 1262 c 128,-1,11
 1000 1262 1000 1262 1135 1160 c 1,12,-1
 1105 842 l 1,13,-1
 1060 847 l 1,14,-1
 1029 1083 l 1,15,16
 990 1133 990 1133 910 1168 c 128,-1,17
 830 1203 830 1203 719 1203 c 0,18,19
 513 1203 513 1203 390.5 1042 c 128,-1,20
 268 881 268 881 268 633 c 0,21,22
 268 331 268 331 430 168 c 0,23,24
 552 45 552 45 764 45 c 0,25,26
 919 45 919 45 1024 118 c 1,27,-1
 1026 492 l 1,28,-1
 785 517 l 1,29,-1
 791 556 l 1,30,-1
 1271 556 l 1,31,-1
 1264 517 l 1,32,-1
 1130 496 l 1,33,-1
 1130 79 l 1,0,1
742.5 1456 m 128,-1,35
 839 1456 839 1456 909 1585 c 1,36,-1
 932 1564 l 1,37,38
 872 1381 872 1381 733.5 1381 c 128,-1,39
 595 1381 595 1381 550 1559 c 1,40,-1
 580 1583 l 1,41,34
 646 1456 646 1456 742.5 1456 c 128,-1,35
EndSplineSet
Colour: ffffff
EndChar

StartChar: Gcommaaccent
Encoding: 290 290 37
Width: 1413
VWidth: 0
Flags: HMW
LayerCount: 2
Fore
SplineSet
1130 79 m 1,0,1
 965 -20 965 -20 688 -20 c 0,2,3
 448 -20 448 -20 304 147 c 0,4,5
 236 226 236 226 195 344.5 c 128,-1,6
 154 463 154 463 154 579.5 c 128,-1,7
 154 696 154 696 179 790 c 0,8,9
 230 981 230 981 379.5 1121.5 c 128,-1,10
 529 1262 529 1262 764.5 1262 c 128,-1,11
 1000 1262 1000 1262 1135 1160 c 1,12,-1
 1105 842 l 1,13,-1
 1060 847 l 1,14,-1
 1029 1083 l 1,15,16
 990 1133 990 1133 910 1168 c 128,-1,17
 830 1203 830 1203 719 1203 c 0,18,19
 513 1203 513 1203 390.5 1042 c 128,-1,20
 268 881 268 881 268 633 c 0,21,22
 268 331 268 331 430 168 c 0,23,24
 552 45 552 45 764 45 c 0,25,26
 919 45 919 45 1024 118 c 1,27,-1
 1026 492 l 1,28,-1
 785 517 l 1,29,-1
 791 556 l 1,30,-1
 1271 556 l 1,31,-1
 1264 517 l 1,32,-1
 1130 496 l 1,33,-1
 1130 79 l 1,0,1
758 -241 m 0,34,35
 758 -158 758 -158 653 -151 c 1,36,37
 653 -127 653 -127 675 -106 c 128,-1,38
 697 -85 697 -85 736 -85 c 128,-1,39
 775 -85 775 -85 804.5 -117 c 128,-1,40
 834 -149 834 -149 834 -195 c 128,-1,41
 834 -241 834 -241 818 -276 c 128,-1,42
 802 -311 802 -311 758 -344 c 128,-1,43
 714 -377 714 -377 648 -390 c 1,44,-1
 632 -353 l 1,45,46
 692 -339 692 -339 725 -309.5 c 128,-1,47
 758 -280 758 -280 758 -241 c 0,34,35
EndSplineSet
Colour: ffffff
EndChar

StartChar: Gdotaccent
Encoding: 288 288 38
Width: 1413
VWidth: 0
Flags: HMW
LayerCount: 2
Fore
SplineSet
706 1376 m 128,-1,1
 643 1376 643 1376 643 1476 c 128,-1,2
 643 1576 643 1576 706 1576 c 128,-1,3
 769 1576 769 1576 769 1476 c 128,-1,0
 769 1376 769 1376 706 1376 c 128,-1,1
1130 79 m 1,4,5
 965 -20 965 -20 688 -20 c 0,6,7
 448 -20 448 -20 304 147 c 0,8,9
 236 226 236 226 195 344.5 c 128,-1,10
 154 463 154 463 154 579.5 c 128,-1,11
 154 696 154 696 179 790 c 0,12,13
 230 981 230 981 379.5 1121.5 c 128,-1,14
 529 1262 529 1262 764.5 1262 c 128,-1,15
 1000 1262 1000 1262 1135 1160 c 1,16,-1
 1105 842 l 1,17,-1
 1060 847 l 1,18,-1
 1029 1083 l 1,19,20
 990 1133 990 1133 910 1168 c 128,-1,21
 830 1203 830 1203 719 1203 c 0,22,23
 513 1203 513 1203 390.5 1042 c 128,-1,24
 268 881 268 881 268 633 c 0,25,26
 268 331 268 331 430 168 c 0,27,28
 552 45 552 45 764 45 c 0,29,30
 919 45 919 45 1024 118 c 1,31,-1
 1026 492 l 1,32,-1
 785 517 l 1,33,-1
 791 556 l 1,34,-1
 1271 556 l 1,35,-1
 1264 517 l 1,36,-1
 1130 496 l 1,37,-1
 1130 79 l 1,4,5
EndSplineSet
Colour: ffffff
EndChar

StartChar: H
Encoding: 72 72 39
Width: 1413
VWidth: 0
Flags: HMW
LayerCount: 2
Fore
SplineSet
402 651 m 1,0,-1
 1120 651 l 1,1,-1
 1120 1180 l 1,2,-1
 936 1205 l 1,3,-1
 943 1244 l 1,4,-1
 1398 1244 l 1,5,-1
 1390 1205 l 1,6,-1
 1223 1182 l 1,7,-1
 1223 65 l 1,8,-1
 1406 46 l 1,9,-1
 1399 0 l 1,10,-1
 946 0 l 1,11,-1
 954 42 l 1,12,-1
 1120 72 l 1,13,-1
 1120 591 l 1,14,-1
 402 591 l 1,15,-1
 402 65 l 1,16,-1
 588 46 l 1,17,-1
 577 0 l 1,18,-1
 125 0 l 1,19,-1
 130 42 l 1,20,-1
 297 72 l 1,21,-1
 297 1180 l 1,22,-1
 117 1205 l 1,23,-1
 120 1244 l 1,24,-1
 576 1244 l 1,25,-1
 571 1205 l 1,26,-1
 402 1182 l 1,27,-1
 402 651 l 1,0,-1
EndSplineSet
Colour: ffffff
EndChar

StartChar: Hbar
Encoding: 294 294 40
Width: 1413
VWidth: 0
Flags: HMW
LayerCount: 2
Fore
SplineSet
297 1012 m 1,0,-1
 297 1180 l 1,1,-1
 117 1205 l 1,2,-1
 120 1244 l 1,3,-1
 576 1244 l 1,4,-1
 571 1205 l 1,5,-1
 402 1182 l 1,6,-1
 402 1006 l 1,7,-1
 1120 1006 l 1,8,-1
 1120 1180 l 1,9,-1
 936 1205 l 1,10,-1
 943 1244 l 1,11,-1
 1398 1244 l 1,12,-1
 1390 1205 l 1,13,-1
 1223 1182 l 1,14,-1
 1223 1012 l 1,15,-1
 1378 1012 l 1,16,-1
 1371 943 l 1,17,-1
 1223 943 l 1,18,-1
 1223 65 l 1,19,-1
 1406 46 l 1,20,-1
 1399 0 l 1,21,-1
 946 0 l 1,22,-1
 954 42 l 1,23,-1
 1120 72 l 1,24,-1
 1120 591 l 1,25,-1
 402 591 l 1,26,-1
 402 65 l 1,27,-1
 588 46 l 1,28,-1
 577 0 l 1,29,-1
 125 0 l 1,30,-1
 130 42 l 1,31,-1
 297 72 l 1,32,-1
 297 943 l 1,33,-1
 123 943 l 1,34,-1
 132 1012 l 1,35,-1
 297 1012 l 1,0,-1
1120 952 m 1,36,-1
 402 952 l 1,37,-1
 402 651 l 1,38,-1
 1120 651 l 1,39,-1
 1120 952 l 1,36,-1
EndSplineSet
Colour: ffffff
EndChar

StartChar: I
Encoding: 73 73 41
Width: 692
VWidth: 0
Flags: HMW
LayerCount: 2
Fore
SplineSet
121 1205 m 1,0,-1
 127 1244 l 1,1,-1
 584 1244 l 1,2,-1
 577 1205 l 1,3,-1
 402 1182 l 1,4,-1
 402 65 l 1,5,-1
 595 46 l 1,6,-1
 586 0 l 1,7,-1
 131 0 l 1,8,-1
 136 42 l 1,9,-1
 294 72 l 1,10,-1
 294 1180 l 1,11,-1
 121 1205 l 1,0,-1
EndSplineSet
Colour: ffffff
EndChar

StartChar: Iacute
Encoding: 205 205 42
Width: 692
VWidth: 0
Flags: HMW
LayerCount: 2
Fore
SplineSet
121 1205 m 1,0,-1
 127 1244 l 1,1,-1
 584 1244 l 1,2,-1
 577 1205 l 1,3,-1
 402 1182 l 1,4,-1
 402 65 l 1,5,-1
 595 46 l 1,6,-1
 586 0 l 1,7,-1
 131 0 l 1,8,-1
 136 42 l 1,9,-1
 294 72 l 1,10,-1
 294 1180 l 1,11,-1
 121 1205 l 1,0,-1
303 1376 m 1,12,-1
 435 1713 l 1,13,-1
 531 1674 l 1,14,-1
 348 1350 l 1,15,-1
 303 1376 l 1,12,-1
EndSplineSet
Colour: ffffff
EndChar

StartChar: Icaron
Encoding: 463 463 43
Width: 692
VWidth: 0
Flags: HMW
LayerCount: 2
Fore
SplineSet
121 1205 m 1,0,-1
 127 1244 l 1,1,-1
 584 1244 l 1,2,-1
 577 1205 l 1,3,-1
 402 1182 l 1,4,-1
 402 65 l 1,5,-1
 595 46 l 1,6,-1
 586 0 l 1,7,-1
 131 0 l 1,8,-1
 136 42 l 1,9,-1
 294 72 l 1,10,-1
 294 1180 l 1,11,-1
 121 1205 l 1,0,-1
149 1543 m 1,12,-1
 204 1592 l 1,13,-1
 370 1423 l 1,14,-1
 379 1423 l 1,15,-1
 522 1588 l 1,16,-1
 558 1561 l 1,17,-1
 384 1377 l 1,18,-1
 328 1363 l 1,19,-1
 149 1543 l 1,12,-1
EndSplineSet
Colour: ffffff
EndChar

StartChar: Icircumflex
Encoding: 206 206 44
Width: 692
VWidth: 0
Flags: HMW
LayerCount: 2
Fore
SplineSet
121 1205 m 1,0,-1
 127 1244 l 1,1,-1
 584 1244 l 1,2,-1
 577 1205 l 1,3,-1
 402 1182 l 1,4,-1
 402 65 l 1,5,-1
 595 46 l 1,6,-1
 586 0 l 1,7,-1
 131 0 l 1,8,-1
 136 42 l 1,9,-1
 294 72 l 1,10,-1
 294 1180 l 1,11,-1
 121 1205 l 1,0,-1
148 1394 m 1,12,-1
 315 1575 l 1,13,-1
 369 1588 l 1,14,-1
 548 1402 l 1,15,-1
 516 1365 l 1,16,-1
 335 1500 l 1,17,-1
 326 1500 l 1,18,-1
 169 1364 l 1,19,-1
 148 1394 l 1,12,-1
EndSplineSet
Colour: ffffff
EndChar

StartChar: Idieresis
Encoding: 207 207 45
Width: 692
VWidth: 0
Flags: HMW
LayerCount: 2
Fore
SplineSet
121 1205 m 1,0,-1
 127 1244 l 1,1,-1
 584 1244 l 1,2,-1
 577 1205 l 1,3,-1
 402 1182 l 1,4,-1
 402 65 l 1,5,-1
 595 46 l 1,6,-1
 586 0 l 1,7,-1
 131 0 l 1,8,-1
 136 42 l 1,9,-1
 294 72 l 1,10,-1
 294 1180 l 1,11,-1
 121 1205 l 1,0,-1
432 1452.5 m 128,-1,13
 432 1532 432 1532 488 1532 c 128,-1,14
 544 1532 544 1532 544 1452.5 c 128,-1,15
 544 1373 544 1373 488 1373 c 128,-1,12
 432 1373 432 1373 432 1452.5 c 128,-1,13
220 1373 m 0,16,17
 163 1373 163 1373 163 1452.5 c 128,-1,18
 163 1532 163 1532 219.5 1532 c 128,-1,19
 276 1532 276 1532 276 1454 c 0,20,21
 276 1413 276 1413 263.5 1393 c 128,-1,22
 251 1373 251 1373 220 1373 c 0,16,17
EndSplineSet
Colour: ffffff
EndChar

StartChar: Idotaccent
Encoding: 304 304 46
Width: 692
VWidth: 0
Flags: HMW
LayerCount: 2
Fore
SplineSet
121 1205 m 1,0,-1
 127 1244 l 1,1,-1
 584 1244 l 1,2,-1
 577 1205 l 1,3,-1
 402 1182 l 1,4,-1
 402 65 l 1,5,-1
 595 46 l 1,6,-1
 586 0 l 1,7,-1
 131 0 l 1,8,-1
 136 42 l 1,9,-1
 294 72 l 1,10,-1
 294 1180 l 1,11,-1
 121 1205 l 1,0,-1
351 1382 m 128,-1,13
 288 1382 288 1382 288 1482 c 128,-1,14
 288 1582 288 1582 351 1582 c 128,-1,15
 414 1582 414 1582 414 1482 c 128,-1,12
 414 1382 414 1382 351 1382 c 128,-1,13
EndSplineSet
Colour: ffffff
EndChar

StartChar: Igrave
Encoding: 204 204 47
Width: 692
VWidth: 0
Flags: HMW
LayerCount: 2
Fore
SplineSet
121 1205 m 1,0,-1
 127 1244 l 1,1,-1
 584 1244 l 1,2,-1
 577 1205 l 1,3,-1
 402 1182 l 1,4,-1
 402 65 l 1,5,-1
 595 46 l 1,6,-1
 586 0 l 1,7,-1
 131 0 l 1,8,-1
 136 42 l 1,9,-1
 294 72 l 1,10,-1
 294 1180 l 1,11,-1
 121 1205 l 1,0,-1
173 1667 m 1,12,-1
 267 1704 l 1,13,-1
 400 1368 l 1,14,-1
 354 1341 l 1,15,-1
 173 1667 l 1,12,-1
EndSplineSet
Colour: ffffff
EndChar

StartChar: Imacron
Encoding: 298 298 48
Width: 692
VWidth: 0
Flags: HMW
LayerCount: 2
Fore
SplineSet
121 1205 m 1,0,-1
 127 1244 l 1,1,-1
 584 1244 l 1,2,-1
 577 1205 l 1,3,-1
 402 1182 l 1,4,-1
 402 65 l 1,5,-1
 595 46 l 1,6,-1
 586 0 l 1,7,-1
 131 0 l 1,8,-1
 136 42 l 1,9,-1
 294 72 l 1,10,-1
 294 1180 l 1,11,-1
 121 1205 l 1,0,-1
127 1386 m 1,12,-1
 136 1438 l 1,13,-1
 576 1438 l 1,14,-1
 568 1386 l 1,15,-1
 127 1386 l 1,12,-1
EndSplineSet
Colour: ffffff
EndChar

StartChar: Iogonek
Encoding: 302 302 49
Width: 692
VWidth: 0
Flags: HMW
LayerCount: 2
Fore
SplineSet
383 -220.5 m 128,-1,1
 383 -164 383 -164 409.5 -116 c 128,-1,2
 436 -68 436 -68 509 0 c 1,3,-1
 131 0 l 1,4,-1
 136 42 l 1,5,-1
 294 72 l 1,6,-1
 294 1180 l 1,7,-1
 121 1205 l 1,8,-1
 127 1244 l 1,9,-1
 584 1244 l 1,10,-1
 577 1205 l 1,11,-1
 402 1182 l 1,12,-1
 402 65 l 1,13,-1
 595 46 l 1,14,-1
 586 0 l 1,15,-1
 559 0 l 1,16,17
 430 -161 430 -161 516 -268 c 0,18,19
 550 -311 550 -311 622 -353 c 1,20,-1
 589 -387 l 1,21,22
 487 -376 487 -376 435 -326.5 c 128,-1,0
 383 -277 383 -277 383 -220.5 c 128,-1,1
EndSplineSet
Colour: ffffff
EndChar

StartChar: J
Encoding: 74 74 50
Width: 589
VWidth: 0
Flags: HMW
LayerCount: 2
Fore
SplineSet
293 282 m 2,0,-1
 293 1180 l 1,1,-1
 113 1205 l 1,2,-1
 118 1244 l 1,3,-1
 577 1244 l 1,4,-1
 571 1205 l 1,5,-1
 404 1182 l 1,6,-1
 400 360 l 2,7,8
 399 212 399 212 382.5 113.5 c 128,-1,9
 366 15 366 15 323.5 -64 c 128,-1,10
 281 -143 281 -143 222.5 -199 c 128,-1,11
 164 -255 164 -255 64 -325 c 1,12,-1
 42 -281 l 1,13,14
 175 -168 175 -168 234 -44 c 128,-1,15
 293 80 293 80 293 282 c 2,0,-1
EndSplineSet
Colour: ffffff
EndChar

StartChar: K
Encoding: 75 75 51
Width: 1212
VWidth: 0
Flags: HMW
LayerCount: 2
Fore
SplineSet
1087 -22 m 0,0,1
 1010 -22 1010 -22 935 43.5 c 128,-1,2
 860 109 860 109 760 230 c 1,3,-1
 457 604 l 1,4,-1
 455 619 l 1,5,6
 549 720 549 720 602 783 c 2,7,-1
 933 1180 l 1,8,-1
 760 1205 l 1,9,-1
 764 1244 l 1,10,-1
 1171 1244 l 1,11,-1
 1168 1205 l 1,12,-1
 1015 1182 l 1,13,-1
 559 629 l 1,14,-1
 821 321 l 2,15,16
 937 185 937 185 1010.5 126 c 128,-1,17
 1084 67 1084 67 1169 54 c 2,18,-1
 1223 46 l 1,19,-1
 1211 3 l 1,20,-1
 1187 -5 l 2,21,22
 1172 -10 1172 -10 1165 -12 c 0,23,24
 1158 -16 1158 -16 1148 -18 c 0,25,26
 1130 -22 1130 -22 1087 -22 c 0,0,1
120 1205 m 1,27,-1
 125 1244 l 1,28,-1
 574 1244 l 1,29,-1
 571 1205 l 1,30,-1
 401 1182 l 1,31,-1
 401 65 l 1,32,-1
 587 46 l 1,33,-1
 576 0 l 1,34,-1
 130 0 l 1,35,-1
 136 42 l 1,36,-1
 293 72 l 1,37,-1
 293 1180 l 1,38,-1
 120 1205 l 1,27,-1
EndSplineSet
Colour: ffffff
EndChar

StartChar: Kcommaaccent
Encoding: 310 310 52
Width: 1212
VWidth: 0
Flags: HMW
LayerCount: 2
Fore
SplineSet
1087 -22 m 0,0,1
 1010 -22 1010 -22 935 43.5 c 128,-1,2
 860 109 860 109 760 230 c 1,3,-1
 457 604 l 1,4,-1
 455 619 l 1,5,6
 549 720 549 720 602 783 c 2,7,-1
 933 1180 l 1,8,-1
 760 1205 l 1,9,-1
 764 1244 l 1,10,-1
 1171 1244 l 1,11,-1
 1168 1205 l 1,12,-1
 1015 1182 l 1,13,-1
 559 629 l 1,14,-1
 821 321 l 2,15,16
 937 185 937 185 1010.5 126 c 128,-1,17
 1084 67 1084 67 1169 54 c 2,18,-1
 1223 46 l 1,19,-1
 1211 3 l 1,20,-1
 1187 -5 l 2,21,22
 1172 -10 1172 -10 1165 -12 c 0,23,24
 1158 -16 1158 -16 1148 -18 c 0,25,26
 1130 -22 1130 -22 1087 -22 c 0,0,1
120 1205 m 1,27,-1
 125 1244 l 1,28,-1
 574 1244 l 1,29,-1
 571 1205 l 1,30,-1
 401 1182 l 1,31,-1
 401 65 l 1,32,-1
 587 46 l 1,33,-1
 576 0 l 1,34,-1
 130 0 l 1,35,-1
 136 42 l 1,36,-1
 293 72 l 1,37,-1
 293 1180 l 1,38,-1
 120 1205 l 1,27,-1
754 -262 m 0,39,40
 754 -179 754 -179 649 -172 c 1,41,42
 649 -148 649 -148 671 -127 c 128,-1,43
 693 -106 693 -106 732 -106 c 128,-1,44
 771 -106 771 -106 800.5 -138 c 128,-1,45
 830 -170 830 -170 830 -216 c 128,-1,46
 830 -262 830 -262 814 -297 c 128,-1,47
 798 -332 798 -332 754 -365 c 128,-1,48
 710 -398 710 -398 644 -411 c 1,49,-1
 628 -374 l 1,50,51
 688 -360 688 -360 721 -330.5 c 128,-1,52
 754 -301 754 -301 754 -262 c 0,39,40
EndSplineSet
Colour: ffffff
EndChar

StartChar: L
Encoding: 76 76 53
Width: 1079
VWidth: 0
Flags: HMW
LayerCount: 2
Fore
SplineSet
412 54 m 1,0,-1
 942 54 l 1,1,-1
 1019 338 l 1,2,-1
 1063 330 l 1,3,-1
 1031 0 l 1,4,-1
 131 0 l 1,5,-1
 136 42 l 1,6,-1
 305 72 l 1,7,-1
 305 1178 l 1,8,-1
 133 1203 l 1,9,-1
 137 1243 l 1,10,-1
 592 1243 l 1,11,-1
 588 1203 l 1,12,-1
 412 1182 l 1,13,-1
 412 54 l 1,0,-1
EndSplineSet
Colour: ffffff
EndChar

StartChar: Lacute
Encoding: 313 313 54
Width: 1079
VWidth: 0
Flags: HMW
LayerCount: 2
Fore
SplineSet
412 54 m 1,0,-1
 942 54 l 1,1,-1
 1019 338 l 1,2,-1
 1063 330 l 1,3,-1
 1031 0 l 1,4,-1
 131 0 l 1,5,-1
 136 42 l 1,6,-1
 305 72 l 1,7,-1
 305 1178 l 1,8,-1
 133 1203 l 1,9,-1
 137 1243 l 1,10,-1
 592 1243 l 1,11,-1
 588 1203 l 1,12,-1
 412 1182 l 1,13,-1
 412 54 l 1,0,-1
303 1376 m 1,14,-1
 435 1713 l 1,15,-1
 531 1674 l 1,16,-1
 348 1350 l 1,17,-1
 303 1376 l 1,14,-1
EndSplineSet
Colour: ffffff
EndChar

StartChar: Lcaron
Encoding: 317 317 55
Width: 1079
VWidth: 0
Flags: HMW
LayerCount: 2
Fore
SplineSet
412 54 m 1,0,-1
 942 54 l 1,1,-1
 1019 338 l 1,2,-1
 1063 330 l 1,3,-1
 1031 0 l 1,4,-1
 131 0 l 1,5,-1
 136 42 l 1,6,-1
 305 72 l 1,7,-1
 305 1178 l 1,8,-1
 133 1203 l 1,9,-1
 137 1243 l 1,10,-1
 592 1243 l 1,11,-1
 588 1203 l 1,12,-1
 412 1182 l 1,13,-1
 412 54 l 1,0,-1
838 1031.5 m 128,-1,15
 838 1097 838 1097 806.5 1136 c 128,-1,16
 775 1175 775 1175 729 1175 c 0,17,18
 711 1175 711 1175 702 1171 c 1,19,20
 699 1180 699 1180 699 1205.5 c 128,-1,21
 699 1231 699 1231 725.5 1256 c 128,-1,22
 752 1281 752 1281 803.5 1281 c 128,-1,23
 855 1281 855 1281 896.5 1226 c 128,-1,24
 938 1171 938 1171 938 1083.5 c 128,-1,25
 938 996 938 996 881 913.5 c 128,-1,26
 824 831 824 831 672 782 c 1,27,-1
 660 827 l 1,28,29
 761 867 761 867 799.5 916.5 c 128,-1,14
 838 966 838 966 838 1031.5 c 128,-1,15
EndSplineSet
Colour: ffffff
EndChar

StartChar: Lcommaaccent
Encoding: 315 315 56
Width: 1079
VWidth: 0
Flags: HMW
LayerCount: 2
Fore
SplineSet
412 54 m 1,0,-1
 942 54 l 1,1,-1
 1019 338 l 1,2,-1
 1063 330 l 1,3,-1
 1031 0 l 1,4,-1
 131 0 l 1,5,-1
 136 42 l 1,6,-1
 305 72 l 1,7,-1
 305 1178 l 1,8,-1
 133 1203 l 1,9,-1
 137 1243 l 1,10,-1
 592 1243 l 1,11,-1
 588 1203 l 1,12,-1
 412 1182 l 1,13,-1
 412 54 l 1,0,-1
630 -226 m 0,14,15
 630 -143 630 -143 525 -136 c 1,16,17
 525 -112 525 -112 547 -91 c 128,-1,18
 569 -70 569 -70 608 -70 c 128,-1,19
 647 -70 647 -70 676.5 -102 c 128,-1,20
 706 -134 706 -134 706 -180 c 128,-1,21
 706 -226 706 -226 690 -261 c 128,-1,22
 674 -296 674 -296 630 -329 c 128,-1,23
 586 -362 586 -362 520 -375 c 1,24,-1
 504 -338 l 1,25,26
 564 -324 564 -324 597 -294.5 c 128,-1,27
 630 -265 630 -265 630 -226 c 0,14,15
EndSplineSet
Colour: ffffff
EndChar

StartChar: Lslash
Encoding: 321 321 57
Width: 1079
VWidth: 0
Flags: HMW
LayerCount: 2
Fore
SplineSet
412 54 m 1,0,-1
 942 54 l 1,1,-1
 1019 338 l 1,2,-1
 1063 330 l 1,3,-1
 1031 0 l 1,4,-1
 131 0 l 1,5,-1
 136 42 l 1,6,-1
 305 72 l 1,7,-1
 305 585 l 1,8,-1
 118 475 l 1,9,-1
 131 558 l 1,10,-1
 305 659 l 1,11,-1
 305 1178 l 1,12,-1
 133 1203 l 1,13,-1
 137 1243 l 1,14,-1
 592 1243 l 1,15,-1
 588 1203 l 1,16,-1
 412 1182 l 1,17,-1
 412 721 l 1,18,-1
 622 843 l 1,19,-1
 609 763 l 1,20,-1
 412 647 l 1,21,-1
 412 54 l 1,0,-1
EndSplineSet
Colour: ffffff
EndChar

StartChar: M
Encoding: 77 77 58
Width: 1661
VWidth: 0
Flags: HMW
LayerCount: 2
Fore
SplineSet
78 0 m 1,0,-1
 83 33 l 1,1,-1
 250 64 l 1,2,-1
 333 1175 l 1,3,-1
 149 1208 l 1,4,-1
 156 1244 l 1,5,-1
 475 1244 l 1,6,-1
 860 227 l 1,7,-1
 1279 1244 l 1,8,-1
 1605 1244 l 1,9,-1
 1600 1208 l 1,10,-1
 1428 1178 l 1,11,-1
 1483 57 l 1,12,-1
 1663 40 l 1,13,-1
 1661 0 l 1,14,-1
 1199 0 l 1,15,-1
 1205 33 l 1,16,-1
 1376 64 l 1,17,-1
 1319 1169 l 1,18,-1
 854 60 l 1,19,-1
 804 50 l 1,20,-1
 396 1151 l 1,21,-1
 317 57 l 1,22,-1
 498 40 l 1,23,-1
 492 0 l 1,24,-1
 78 0 l 1,0,-1
EndSplineSet
Colour: ffffff
EndChar

StartChar: N
Encoding: 78 78 59
Width: 1413
VWidth: 0
Flags: HMW
LayerCount: 2
Fore
SplineSet
76 1208 m 1,0,-1
 84 1244 l 1,1,-1
 387 1244 l 1,2,-1
 1078 179 l 1,3,-1
 1078 1180 l 1,4,-1
 895 1205 l 1,5,-1
 901 1244 l 1,6,-1
 1325 1244 l 1,7,-1
 1317 1205 l 1,8,-1
 1151 1182 l 1,9,-1
 1151 -7 l 1,10,-1
 1097 -18 l 1,11,-1
 335 1133 l 1,12,-1
 335 65 l 1,13,-1
 519 46 l 1,14,-1
 509 0 l 1,15,-1
 88 0 l 1,16,-1
 94 42 l 1,17,-1
 261 72 l 1,18,-1
 261 1175 l 1,19,-1
 76 1208 l 1,0,-1
EndSplineSet
Colour: ffffff
EndChar

StartChar: Nacute
Encoding: 323 323 60
Width: 1413
VWidth: 0
Flags: HMW
LayerCount: 2
Fore
SplineSet
76 1208 m 1,0,-1
 84 1244 l 1,1,-1
 387 1244 l 1,2,-1
 1078 179 l 1,3,-1
 1078 1180 l 1,4,-1
 895 1205 l 1,5,-1
 901 1244 l 1,6,-1
 1325 1244 l 1,7,-1
 1317 1205 l 1,8,-1
 1151 1182 l 1,9,-1
 1151 -7 l 1,10,-1
 1097 -18 l 1,11,-1
 335 1133 l 1,12,-1
 335 65 l 1,13,-1
 519 46 l 1,14,-1
 509 0 l 1,15,-1
 88 0 l 1,16,-1
 94 42 l 1,17,-1
 261 72 l 1,18,-1
 261 1175 l 1,19,-1
 76 1208 l 1,0,-1
619 1376 m 1,20,-1
 751 1713 l 1,21,-1
 847 1674 l 1,22,-1
 664 1350 l 1,23,-1
 619 1376 l 1,20,-1
EndSplineSet
Colour: ffffff
EndChar

StartChar: Ncaron
Encoding: 327 327 61
Width: 1413
VWidth: 0
Flags: HMW
LayerCount: 2
Fore
SplineSet
76 1208 m 1,0,-1
 84 1244 l 1,1,-1
 387 1244 l 1,2,-1
 1078 179 l 1,3,-1
 1078 1180 l 1,4,-1
 895 1205 l 1,5,-1
 901 1244 l 1,6,-1
 1325 1244 l 1,7,-1
 1317 1205 l 1,8,-1
 1151 1182 l 1,9,-1
 1151 -7 l 1,10,-1
 1097 -18 l 1,11,-1
 335 1133 l 1,12,-1
 335 65 l 1,13,-1
 519 46 l 1,14,-1
 509 0 l 1,15,-1
 88 0 l 1,16,-1
 94 42 l 1,17,-1
 261 72 l 1,18,-1
 261 1175 l 1,19,-1
 76 1208 l 1,0,-1
491 1543 m 1,20,-1
 546 1592 l 1,21,-1
 712 1423 l 1,22,-1
 721 1423 l 1,23,-1
 864 1588 l 1,24,-1
 900 1561 l 1,25,-1
 726 1377 l 1,26,-1
 670 1363 l 1,27,-1
 491 1543 l 1,20,-1
EndSplineSet
Colour: ffffff
EndChar

StartChar: Ncommaaccent
Encoding: 325 325 62
Width: 1413
VWidth: 0
Flags: HMW
LayerCount: 2
Fore
SplineSet
76 1208 m 1,0,-1
 84 1244 l 1,1,-1
 387 1244 l 1,2,-1
 1078 179 l 1,3,-1
 1078 1180 l 1,4,-1
 895 1205 l 1,5,-1
 901 1244 l 1,6,-1
 1325 1244 l 1,7,-1
 1317 1205 l 1,8,-1
 1151 1182 l 1,9,-1
 1151 -7 l 1,10,-1
 1097 -18 l 1,11,-1
 335 1133 l 1,12,-1
 335 65 l 1,13,-1
 519 46 l 1,14,-1
 509 0 l 1,15,-1
 88 0 l 1,16,-1
 94 42 l 1,17,-1
 261 72 l 1,18,-1
 261 1175 l 1,19,-1
 76 1208 l 1,0,-1
741 -241 m 0,20,21
 741 -158 741 -158 636 -151 c 1,22,23
 636 -127 636 -127 658 -106 c 128,-1,24
 680 -85 680 -85 719 -85 c 128,-1,25
 758 -85 758 -85 787.5 -117 c 128,-1,26
 817 -149 817 -149 817 -195 c 128,-1,27
 817 -241 817 -241 801 -276 c 128,-1,28
 785 -311 785 -311 741 -344 c 128,-1,29
 697 -377 697 -377 631 -390 c 1,30,-1
 615 -353 l 1,31,32
 675 -339 675 -339 708 -309.5 c 128,-1,33
 741 -280 741 -280 741 -241 c 0,20,21
EndSplineSet
Colour: ffffff
EndChar

StartChar: Ntilde
Encoding: 209 209 63
Width: 1413
VWidth: 0
Flags: HMW
LayerCount: 2
Fore
SplineSet
76 1208 m 1,0,-1
 84 1244 l 1,1,-1
 387 1244 l 1,2,-1
 1078 179 l 1,3,-1
 1078 1180 l 1,4,-1
 895 1205 l 1,5,-1
 901 1244 l 1,6,-1
 1325 1244 l 1,7,-1
 1317 1205 l 1,8,-1
 1151 1182 l 1,9,-1
 1151 -7 l 1,10,-1
 1097 -18 l 1,11,-1
 335 1133 l 1,12,-1
 335 65 l 1,13,-1
 519 46 l 1,14,-1
 509 0 l 1,15,-1
 88 0 l 1,16,-1
 94 42 l 1,17,-1
 261 72 l 1,18,-1
 261 1175 l 1,19,-1
 76 1208 l 1,0,-1
442 1389 m 1,20,21
 442 1407 442 1407 458 1440 c 128,-1,22
 474 1473 474 1473 482 1483 c 0,23,24
 538 1549 538 1549 600 1524 c 1,25,-1
 781 1470 l 2,26,27
 813 1460 813 1460 837 1477 c 128,-1,28
 861 1494 861 1494 869 1516 c 2,29,-1
 877 1537 l 1,30,-1
 911 1535 l 1,31,32
 910 1534 910 1534 909 1530 c 0,33,34
 901 1503 901 1503 896 1492 c 2,35,-1
 884 1467 l 2,36,37
 874 1447 874 1447 853 1427 c 0,38,39
 803 1379 803 1379 745 1401 c 1,40,-1
 569 1453 l 2,41,42
 541 1462 541 1462 516 1443 c 0,43,44
 490 1424 490 1424 480 1400 c 2,45,-1
 470 1377 l 1,46,-1
 442 1389 l 1,20,21
EndSplineSet
Colour: ffffff
EndChar

StartChar: O
Encoding: 79 79 64
Width: 1320
VWidth: 0
Flags: HMW
LayerCount: 2
Fore
SplineSet
272 679 m 0,0,1
 272 290 272 290 483 121 c 0,2,3
 588 37 588 37 731 37 c 0,4,5
 972 38 972 38 1096 280 c 0,6,7
 1166 416 1166 416 1165 573 c 0,8,9
 1165 862 1165 862 1040.5 1040 c 128,-1,10
 916 1218 916 1218 704 1218 c 0,11,12
 459 1218 459 1218 340 982 c 0,13,14
 272 846 272 846 272 679 c 0,0,1
162 620 m 0,15,16
 162 912 162 912 322.5 1093 c 128,-1,17
 483 1274 483 1274 752 1274 c 0,18,19
 918 1274 918 1274 1038 1188 c 0,20,21
 1274 1020 1274 1020 1273 627 c 0,22,23
 1274 429 1274 429 1182 265 c 0,24,25
 1019 -27 1019 -27 683 -27 c 0,26,27
 529 -27 529 -27 408.5 61.5 c 128,-1,28
 288 150 288 150 225 296.5 c 128,-1,29
 162 443 162 443 162 620 c 0,15,16
EndSplineSet
Colour: ffffff
EndChar

StartChar: OE
Encoding: 338 338 65
Width: 1649
VWidth: 0
Flags: HMW
LayerCount: 2
Fore
SplineSet
632 31 m 0,0,1
 721 31 721 31 788 63 c 1,2,-1
 788 1151 l 1,3,4
 709 1218 709 1218 615.5 1218 c 128,-1,5
 522 1218 522 1218 450 1187 c 0,6,7
 318 1131 318 1131 245 988 c 128,-1,8
 172 845 172 845 172 669.5 c 128,-1,9
 172 494 172 494 226.5 347.5 c 128,-1,10
 281 201 281 201 386.5 116 c 128,-1,11
 492 31 492 31 632 31 c 0,0,1
64 627.5 m 128,-1,13
 64 812 64 812 135.5 960 c 128,-1,14
 207 1108 207 1108 341.5 1191 c 128,-1,15
 476 1274 476 1274 655 1274 c 0,16,17
 755 1274 755 1274 832 1245 c 1,18,-1
 1483 1244 l 1,19,-1
 1453 925 l 1,20,-1
 1407 931 l 1,21,-1
 1386 1193 l 1,22,-1
 894 1193 l 1,23,-1
 894 659 l 1,24,-1
 1192 659 l 1,25,-1
 1229 798 l 1,26,-1
 1280 806 l 1,27,-1
 1246 417 l 1,28,-1
 1200 408 l 1,29,-1
 1182 605 l 1,30,-1
 894 605 l 1,31,-1
 894 54 l 1,32,-1
 1416 54 l 1,33,-1
 1488 323 l 1,34,-1
 1531 313 l 1,35,-1
 1499 0 l 1,36,-1
 785 0 l 1,37,38
 666 -27 666 -27 586 -27 c 0,39,40
 432 -27 432 -27 311.5 61.5 c 128,-1,41
 191 150 191 150 127.5 296.5 c 128,-1,12
 64 443 64 443 64 627.5 c 128,-1,13
EndSplineSet
Colour: ffffff
EndChar

StartChar: Oacute
Encoding: 211 211 66
Width: 1320
VWidth: 0
Flags: HMW
LayerCount: 2
Fore
SplineSet
272 679 m 0,0,1
 272 290 272 290 483 121 c 0,2,3
 588 37 588 37 731 37 c 0,4,5
 972 38 972 38 1096 280 c 0,6,7
 1166 416 1166 416 1165 573 c 0,8,9
 1165 862 1165 862 1040.5 1040 c 128,-1,10
 916 1218 916 1218 704 1218 c 0,11,12
 459 1218 459 1218 340 982 c 0,13,14
 272 846 272 846 272 679 c 0,0,1
162 620 m 0,15,16
 162 912 162 912 322.5 1093 c 128,-1,17
 483 1274 483 1274 752 1274 c 0,18,19
 918 1274 918 1274 1038 1188 c 0,20,21
 1274 1020 1274 1020 1273 627 c 0,22,23
 1274 429 1274 429 1182 265 c 0,24,25
 1019 -27 1019 -27 683 -27 c 0,26,27
 529 -27 529 -27 408.5 61.5 c 128,-1,28
 288 150 288 150 225 296.5 c 128,-1,29
 162 443 162 443 162 620 c 0,15,16
640 1376 m 1,30,-1
 772 1713 l 1,31,-1
 868 1674 l 1,32,-1
 685 1350 l 1,33,-1
 640 1376 l 1,30,-1
EndSplineSet
Colour: ffffff
EndChar

StartChar: Ocaron
Encoding: 465 465 67
Width: 1320
VWidth: 0
Flags: HMW
LayerCount: 2
Fore
SplineSet
272 679 m 0,0,1
 272 290 272 290 483 121 c 0,2,3
 588 37 588 37 731 37 c 0,4,5
 972 38 972 38 1096 280 c 0,6,7
 1166 416 1166 416 1165 573 c 0,8,9
 1165 862 1165 862 1040.5 1040 c 128,-1,10
 916 1218 916 1218 704 1218 c 0,11,12
 459 1218 459 1218 340 982 c 0,13,14
 272 846 272 846 272 679 c 0,0,1
162 620 m 0,15,16
 162 912 162 912 322.5 1093 c 128,-1,17
 483 1274 483 1274 752 1274 c 0,18,19
 918 1274 918 1274 1038 1188 c 0,20,21
 1274 1020 1274 1020 1273 627 c 0,22,23
 1274 429 1274 429 1182 265 c 0,24,25
 1019 -27 1019 -27 683 -27 c 0,26,27
 529 -27 529 -27 408.5 61.5 c 128,-1,28
 288 150 288 150 225 296.5 c 128,-1,29
 162 443 162 443 162 620 c 0,15,16
514 1543 m 1,30,-1
 569 1592 l 1,31,-1
 735 1423 l 1,32,-1
 744 1423 l 1,33,-1
 887 1588 l 1,34,-1
 923 1561 l 1,35,-1
 749 1377 l 1,36,-1
 693 1363 l 1,37,-1
 514 1543 l 1,30,-1
EndSplineSet
Colour: ffffff
EndChar

StartChar: Ocircumflex
Encoding: 212 212 68
Width: 1320
VWidth: 0
Flags: HMW
LayerCount: 2
Fore
SplineSet
272 679 m 0,0,1
 272 290 272 290 483 121 c 0,2,3
 588 37 588 37 731 37 c 0,4,5
 972 38 972 38 1096 280 c 0,6,7
 1166 416 1166 416 1165 573 c 0,8,9
 1165 862 1165 862 1040.5 1040 c 128,-1,10
 916 1218 916 1218 704 1218 c 0,11,12
 459 1218 459 1218 340 982 c 0,13,14
 272 846 272 846 272 679 c 0,0,1
162 620 m 0,15,16
 162 912 162 912 322.5 1093 c 128,-1,17
 483 1274 483 1274 752 1274 c 0,18,19
 918 1274 918 1274 1038 1188 c 0,20,21
 1274 1020 1274 1020 1273 627 c 0,22,23
 1274 429 1274 429 1182 265 c 0,24,25
 1019 -27 1019 -27 683 -27 c 0,26,27
 529 -27 529 -27 408.5 61.5 c 128,-1,28
 288 150 288 150 225 296.5 c 128,-1,29
 162 443 162 443 162 620 c 0,15,16
514 1394 m 1,30,-1
 681 1575 l 1,31,-1
 735 1588 l 1,32,-1
 914 1402 l 1,33,-1
 882 1365 l 1,34,-1
 701 1500 l 1,35,-1
 692 1500 l 1,36,-1
 535 1364 l 1,37,-1
 514 1394 l 1,30,-1
EndSplineSet
Colour: ffffff
EndChar

StartChar: Odieresis
Encoding: 214 214 69
Width: 1320
VWidth: 0
Flags: HMW
LayerCount: 2
Fore
SplineSet
272 679 m 0,0,1
 272 290 272 290 483 121 c 0,2,3
 588 37 588 37 731 37 c 0,4,5
 972 38 972 38 1096 280 c 0,6,7
 1166 416 1166 416 1165 573 c 0,8,9
 1165 862 1165 862 1040.5 1040 c 128,-1,10
 916 1218 916 1218 704 1218 c 0,11,12
 459 1218 459 1218 340 982 c 0,13,14
 272 846 272 846 272 679 c 0,0,1
162 620 m 0,15,16
 162 912 162 912 322.5 1093 c 128,-1,17
 483 1274 483 1274 752 1274 c 0,18,19
 918 1274 918 1274 1038 1188 c 0,20,21
 1274 1020 1274 1020 1273 627 c 0,22,23
 1274 429 1274 429 1182 265 c 0,24,25
 1019 -27 1019 -27 683 -27 c 0,26,27
 529 -27 529 -27 408.5 61.5 c 128,-1,28
 288 150 288 150 225 296.5 c 128,-1,29
 162 443 162 443 162 620 c 0,15,16
798 1452.5 m 128,-1,31
 798 1532 798 1532 854 1532 c 128,-1,32
 910 1532 910 1532 910 1452.5 c 128,-1,33
 910 1373 910 1373 854 1373 c 128,-1,30
 798 1373 798 1373 798 1452.5 c 128,-1,31
586 1373 m 0,34,35
 529 1373 529 1373 529 1452.5 c 128,-1,36
 529 1532 529 1532 585.5 1532 c 128,-1,37
 642 1532 642 1532 642 1454 c 0,38,39
 642 1413 642 1413 629.5 1393 c 128,-1,40
 617 1373 617 1373 586 1373 c 0,34,35
EndSplineSet
Colour: ffffff
EndChar

StartChar: Ograve
Encoding: 210 210 70
Width: 1320
VWidth: 0
Flags: HMW
LayerCount: 2
Fore
SplineSet
272 679 m 0,0,1
 272 290 272 290 483 121 c 0,2,3
 588 37 588 37 731 37 c 0,4,5
 972 38 972 38 1096 280 c 0,6,7
 1166 416 1166 416 1165 573 c 0,8,9
 1165 862 1165 862 1040.5 1040 c 128,-1,10
 916 1218 916 1218 704 1218 c 0,11,12
 459 1218 459 1218 340 982 c 0,13,14
 272 846 272 846 272 679 c 0,0,1
162 620 m 0,15,16
 162 912 162 912 322.5 1093 c 128,-1,17
 483 1274 483 1274 752 1274 c 0,18,19
 918 1274 918 1274 1038 1188 c 0,20,21
 1274 1020 1274 1020 1273 627 c 0,22,23
 1274 429 1274 429 1182 265 c 0,24,25
 1019 -27 1019 -27 683 -27 c 0,26,27
 529 -27 529 -27 408.5 61.5 c 128,-1,28
 288 150 288 150 225 296.5 c 128,-1,29
 162 443 162 443 162 620 c 0,15,16
530 1667 m 1,30,-1
 624 1704 l 1,31,-1
 757 1368 l 1,32,-1
 711 1341 l 1,33,-1
 530 1667 l 1,30,-1
EndSplineSet
Colour: ffffff
EndChar

StartChar: Ohungarumlaut
Encoding: 336 336 71
Width: 1320
VWidth: 0
Flags: HMW
LayerCount: 2
Fore
SplineSet
272 679 m 0,0,1
 272 290 272 290 483 121 c 0,2,3
 588 37 588 37 731 37 c 0,4,5
 972 38 972 38 1096 280 c 0,6,7
 1166 416 1166 416 1165 573 c 0,8,9
 1165 862 1165 862 1040.5 1040 c 128,-1,10
 916 1218 916 1218 704 1218 c 0,11,12
 459 1218 459 1218 340 982 c 0,13,14
 272 846 272 846 272 679 c 0,0,1
162 620 m 0,15,16
 162 912 162 912 322.5 1093 c 128,-1,17
 483 1274 483 1274 752 1274 c 0,18,19
 918 1274 918 1274 1038 1188 c 0,20,21
 1274 1020 1274 1020 1273 627 c 0,22,23
 1274 429 1274 429 1182 265 c 0,24,25
 1019 -27 1019 -27 683 -27 c 0,26,27
 529 -27 529 -27 408.5 61.5 c 128,-1,28
 288 150 288 150 225 296.5 c 128,-1,29
 162 443 162 443 162 620 c 0,15,16
735 1398 m 1,30,-1
 992 1597 l 1,31,-1
 1048 1533 l 1,32,-1
 756 1365 l 1,33,-1
 735 1398 l 1,30,-1
526 1398 m 1,34,-1
 786 1607 l 1,35,-1
 846 1537 l 1,36,-1
 547 1365 l 1,37,-1
 526 1398 l 1,34,-1
EndSplineSet
Colour: ffffff
EndChar

StartChar: Omacron
Encoding: 332 332 72
Width: 1320
VWidth: 0
Flags: HMW
LayerCount: 2
Fore
SplineSet
272 679 m 0,0,1
 272 290 272 290 483 121 c 0,2,3
 588 37 588 37 731 37 c 0,4,5
 972 38 972 38 1096 280 c 0,6,7
 1166 416 1166 416 1165 573 c 0,8,9
 1165 862 1165 862 1040.5 1040 c 128,-1,10
 916 1218 916 1218 704 1218 c 0,11,12
 459 1218 459 1218 340 982 c 0,13,14
 272 846 272 846 272 679 c 0,0,1
162 620 m 0,15,16
 162 912 162 912 322.5 1093 c 128,-1,17
 483 1274 483 1274 752 1274 c 0,18,19
 918 1274 918 1274 1038 1188 c 0,20,21
 1274 1020 1274 1020 1273 627 c 0,22,23
 1274 429 1274 429 1182 265 c 0,24,25
 1019 -27 1019 -27 683 -27 c 0,26,27
 529 -27 529 -27 408.5 61.5 c 128,-1,28
 288 150 288 150 225 296.5 c 128,-1,29
 162 443 162 443 162 620 c 0,15,16
502 1386 m 1,30,-1
 511 1438 l 1,31,-1
 951 1438 l 1,32,-1
 943 1386 l 1,33,-1
 502 1386 l 1,30,-1
EndSplineSet
Colour: ffffff
EndChar

StartChar: Oslash
Encoding: 216 216 73
Width: 1330
VWidth: 0
Flags: HMW
LayerCount: 2
Fore
SplineSet
745.5 1274 m 128,-1,1
 1008 1274 1008 1274 1147 1083 c 1,2,-1
 1226 1161 l 1,3,-1
 1314 1127 l 1,4,-1
 1186 1022 l 1,5,6
 1273 861 1273 861 1273 645 c 0,7,8
 1274 429 1274 429 1182 265 c 0,9,10
 1019 -27 1019 -27 683 -27 c 0,11,12
 440 -27 440 -27 291 180 c 1,13,-1
 208 92 l 1,14,-1
 124 127 l 1,15,-1
 254 240 l 1,16,17
 162 406 162 406 162 620 c 0,18,19
 162 912 162 912 322.5 1093 c 128,-1,0
 483 1274 483 1274 745.5 1274 c 128,-1,1
1165 604 m 0,20,21
 1165 792 1165 792 1092 950 c 1,22,-1
 367 261 l 1,23,24
 492 37 492 37 732 37 c 0,25,26
 972 38 972 38 1096 280 c 0,27,28
 1166 416 1166 416 1165 604 c 0,20,21
1069 995 m 1,29,30
 943 1218 943 1218 701 1218 c 128,-1,31
 459 1218 459 1218 340 982 c 0,32,33
 272 847 272 847 272 656.5 c 128,-1,34
 272 466 272 466 343 308 c 1,35,-1
 1069 995 l 1,29,30
EndSplineSet
Colour: ffffff
EndChar

StartChar: Otilde
Encoding: 213 213 74
Width: 1320
VWidth: 0
Flags: HMW
LayerCount: 2
Fore
SplineSet
477 1383 m 1,0,1
 477 1401 477 1401 493 1434 c 0,2,3
 510 1467 510 1467 518 1477 c 0,4,5
 574 1543 574 1543 635 1518 c 1,6,-1
 816 1464 l 2,7,8
 848 1454 848 1454 872 1471 c 128,-1,9
 896 1488 896 1488 904 1510 c 2,10,-1
 912 1531 l 1,11,-1
 946 1529 l 1,12,13
 945 1528 945 1528 944 1524 c 0,14,15
 936 1497 936 1497 931 1486 c 2,16,-1
 918 1461 l 2,17,18
 908 1441 908 1441 888 1421 c 0,19,20
 838 1373 838 1373 780 1395 c 1,21,-1
 604 1447 l 2,22,23
 576 1456 576 1456 551 1437 c 128,-1,24
 526 1418 526 1418 516 1394 c 2,25,-1
 505 1371 l 1,26,-1
 477 1383 l 1,0,1
272 679 m 0,27,28
 272 290 272 290 483 121 c 0,29,30
 588 37 588 37 731 37 c 0,31,32
 972 38 972 38 1096 280 c 0,33,34
 1166 416 1166 416 1165 573 c 0,35,36
 1165 862 1165 862 1040.5 1040 c 128,-1,37
 916 1218 916 1218 704 1218 c 0,38,39
 459 1218 459 1218 340 982 c 0,40,41
 272 846 272 846 272 679 c 0,27,28
162 620 m 0,42,43
 162 912 162 912 322.5 1093 c 128,-1,44
 483 1274 483 1274 752 1274 c 0,45,46
 918 1274 918 1274 1038 1188 c 0,47,48
 1274 1020 1274 1020 1273 627 c 0,49,50
 1274 429 1274 429 1182 265 c 0,51,52
 1019 -27 1019 -27 683 -27 c 0,53,54
 529 -27 529 -27 408.5 61.5 c 128,-1,55
 288 150 288 150 225 296.5 c 128,-1,56
 162 443 162 443 162 620 c 0,42,43
EndSplineSet
Colour: ffffff
EndChar

StartChar: P
Encoding: 80 80 75
Width: 1160
VWidth: 0
Flags: HMW
LayerCount: 2
Fore
SplineSet
554 1256 m 0,0,1
 740 1256 740 1256 879 1167.5 c 128,-1,2
 1018 1079 1018 1079 1018 893 c 0,3,4
 1018 804 1018 804 977 726 c 128,-1,5
 936 648 936 648 868 595 c 0,6,7
 724 482 724 482 532 482 c 0,8,9
 492 482 492 482 482 484 c 1,10,-1
 472 526 l 1,11,-1
 526 529 l 1,12,13
 802 540 802 540 874 746 c 0,14,15
 894 804 894 804 894 872 c 0,16,17
 894 1009 894 1009 794.5 1110.5 c 128,-1,18
 695 1212 695 1212 503 1212 c 1,19,-1
 393 1206 l 1,20,-1
 393 66 l 1,21,-1
 627 46 l 1,22,-1
 619 0 l 1,23,-1
 120 0 l 1,24,-1
 125 42 l 1,25,-1
 283 72 l 1,26,-1
 283 1153 l 1,27,-1
 121 1175 l 1,28,-1
 130 1211 l 1,29,30
 154 1215 154 1215 220 1226 c 0,31,32
 286 1238 286 1238 320 1242 c 0,33,34
 428 1256 428 1256 554 1256 c 0,0,1
EndSplineSet
Colour: ffffff
EndChar

StartChar: Q
Encoding: 81 81 76
Width: 1330
VWidth: 0
Flags: HMW
LayerCount: 2
Fore
SplineSet
275 650 m 128,-1,1
 275 389 275 389 416.5 210.5 c 128,-1,2
 558 32 558 32 770 27 c 1,3,4
 935 61 935 61 1055.5 219.5 c 128,-1,5
 1176 378 1176 378 1176 573 c 0,6,7
 1176 869 1176 869 1047.5 1043.5 c 128,-1,8
 919 1218 919 1218 709 1218 c 128,-1,9
 499 1218 499 1218 387 1064.5 c 128,-1,0
 275 911 275 911 275 650 c 128,-1,1
171 645 m 128,-1,11
 171 805 171 805 239 953.5 c 128,-1,12
 307 1102 307 1102 439 1188 c 128,-1,13
 571 1274 571 1274 749 1274 c 0,14,15
 1044 1274 1044 1274 1192 1000 c 0,16,17
 1280 837 1280 837 1280 628 c 128,-1,18
 1280 419 1280 419 1154 231 c 0,19,20
 1095 143 1095 143 1006 77.5 c 128,-1,21
 917 12 917 12 813 -12 c 1,22,23
 906 -214 906 -214 1048 -271 c 0,24,25
 1128 -303 1128 -303 1252 -313 c 1,26,27
 1250 -316 1250 -316 1247 -335.5 c 128,-1,28
 1244 -355 1244 -355 1243 -358 c 1,29,30
 1184 -385 1184 -385 1090 -385 c 0,31,32
 964 -385 964 -385 877 -281 c 128,-1,33
 790 -177 790 -177 763 -22 c 1,34,35
 737 -25 737 -25 659 -25 c 128,-1,36
 581 -25 581 -25 486.5 26 c 128,-1,37
 392 77 392 77 322.5 162.5 c 128,-1,38
 253 248 253 248 212 366.5 c 128,-1,10
 171 485 171 485 171 645 c 128,-1,11
EndSplineSet
Colour: ffffff
EndChar

StartChar: R
Encoding: 82 82 77
Width: 1181
VWidth: 0
Flags: HMW
LayerCount: 2
Fore
SplineSet
426 627 m 1,0,-1
 653 627 l 1,1,2
 753 664 753 664 820 749 c 128,-1,3
 887 834 887 834 887 933 c 0,4,5
 887 1066 887 1066 796.5 1136.5 c 128,-1,6
 706 1207 706 1207 547 1207 c 1,7,-1
 426 1202 l 1,8,-1
 426 627 l 1,0,-1
574 1253 m 128,-1,10
 709 1253 709 1253 798 1221 c 128,-1,11
 887 1189 887 1189 942 1121.5 c 128,-1,12
 997 1054 997 1054 997 953.5 c 128,-1,13
 997 853 997 853 934.5 768.5 c 128,-1,14
 872 684 872 684 721 610 c 1,15,-1
 721 609 l 1,16,-1
 914 323 l 2,17,18
 1018 170 1018 170 1068.5 120 c 128,-1,19
 1119 70 1119 70 1175 50 c 1,20,-1
 1223 34 l 1,21,-1
 1217 -3 l 1,22,23
 1174 -18 1174 -18 1128 -18 c 0,24,25
 1040 -18 1040 -18 977.5 50.5 c 128,-1,26
 915 119 915 119 843 238 c 2,27,-1
 640 571 l 1,28,-1
 426 571 l 1,29,-1
 426 65 l 1,30,-1
 637 46 l 1,31,-1
 627 0 l 1,32,-1
 160 0 l 1,33,-1
 167 42 l 1,34,-1
 323 72 l 1,35,-1
 323 1153 l 1,36,-1
 163 1174 l 1,37,-1
 172 1210 l 1,38,9
 439 1253 439 1253 574 1253 c 128,-1,10
EndSplineSet
Colour: ffffff
EndChar

StartChar: Racute
Encoding: 340 340 78
Width: 1181
VWidth: 0
Flags: HMW
LayerCount: 2
Fore
SplineSet
426 627 m 1,0,-1
 653 627 l 1,1,2
 753 664 753 664 820 749 c 128,-1,3
 887 834 887 834 887 933 c 0,4,5
 887 1066 887 1066 796.5 1136.5 c 128,-1,6
 706 1207 706 1207 547 1207 c 1,7,-1
 426 1202 l 1,8,-1
 426 627 l 1,0,-1
574 1253 m 128,-1,10
 709 1253 709 1253 798 1221 c 128,-1,11
 887 1189 887 1189 942 1121.5 c 128,-1,12
 997 1054 997 1054 997 953.5 c 128,-1,13
 997 853 997 853 934.5 768.5 c 128,-1,14
 872 684 872 684 721 610 c 1,15,-1
 721 609 l 1,16,-1
 914 323 l 2,17,18
 1018 170 1018 170 1068.5 120 c 128,-1,19
 1119 70 1119 70 1175 50 c 1,20,-1
 1223 34 l 1,21,-1
 1217 -3 l 1,22,23
 1174 -18 1174 -18 1128 -18 c 0,24,25
 1040 -18 1040 -18 977.5 50.5 c 128,-1,26
 915 119 915 119 843 238 c 2,27,-1
 640 571 l 1,28,-1
 426 571 l 1,29,-1
 426 65 l 1,30,-1
 637 46 l 1,31,-1
 627 0 l 1,32,-1
 160 0 l 1,33,-1
 167 42 l 1,34,-1
 323 72 l 1,35,-1
 323 1153 l 1,36,-1
 163 1174 l 1,37,-1
 172 1210 l 1,38,9
 439 1253 439 1253 574 1253 c 128,-1,10
526 1376 m 1,39,-1
 658 1713 l 1,40,-1
 754 1674 l 1,41,-1
 571 1350 l 1,42,-1
 526 1376 l 1,39,-1
EndSplineSet
Colour: ffffff
EndChar

StartChar: Rcaron
Encoding: 344 344 79
Width: 1181
VWidth: 0
Flags: HMW
LayerCount: 2
Fore
SplineSet
426 627 m 1,0,-1
 653 627 l 1,1,2
 753 664 753 664 820 749 c 128,-1,3
 887 834 887 834 887 933 c 0,4,5
 887 1066 887 1066 796.5 1136.5 c 128,-1,6
 706 1207 706 1207 547 1207 c 1,7,-1
 426 1202 l 1,8,-1
 426 627 l 1,0,-1
574 1253 m 128,-1,10
 709 1253 709 1253 798 1221 c 128,-1,11
 887 1189 887 1189 942 1121.5 c 128,-1,12
 997 1054 997 1054 997 953.5 c 128,-1,13
 997 853 997 853 934.5 768.5 c 128,-1,14
 872 684 872 684 721 610 c 1,15,-1
 721 609 l 1,16,-1
 914 323 l 2,17,18
 1018 170 1018 170 1068.5 120 c 128,-1,19
 1119 70 1119 70 1175 50 c 1,20,-1
 1223 34 l 1,21,-1
 1217 -3 l 1,22,23
 1174 -18 1174 -18 1128 -18 c 0,24,25
 1040 -18 1040 -18 977.5 50.5 c 128,-1,26
 915 119 915 119 843 238 c 2,27,-1
 640 571 l 1,28,-1
 426 571 l 1,29,-1
 426 65 l 1,30,-1
 637 46 l 1,31,-1
 627 0 l 1,32,-1
 160 0 l 1,33,-1
 167 42 l 1,34,-1
 323 72 l 1,35,-1
 323 1153 l 1,36,-1
 163 1174 l 1,37,-1
 172 1210 l 1,38,9
 439 1253 439 1253 574 1253 c 128,-1,10
395 1543 m 1,39,-1
 450 1592 l 1,40,-1
 616 1423 l 1,41,-1
 625 1423 l 1,42,-1
 768 1588 l 1,43,-1
 804 1561 l 1,44,-1
 630 1377 l 1,45,-1
 574 1363 l 1,46,-1
 395 1543 l 1,39,-1
EndSplineSet
Colour: ffffff
EndChar

StartChar: Rcommaaccent
Encoding: 342 342 80
Width: 1181
VWidth: 0
Flags: HMW
LayerCount: 2
Fore
SplineSet
426 627 m 1,0,-1
 653 627 l 1,1,2
 753 664 753 664 820 749 c 128,-1,3
 887 834 887 834 887 933 c 0,4,5
 887 1066 887 1066 796.5 1136.5 c 128,-1,6
 706 1207 706 1207 547 1207 c 1,7,-1
 426 1202 l 1,8,-1
 426 627 l 1,0,-1
574 1253 m 128,-1,10
 709 1253 709 1253 798 1221 c 128,-1,11
 887 1189 887 1189 942 1121.5 c 128,-1,12
 997 1054 997 1054 997 953.5 c 128,-1,13
 997 853 997 853 934.5 768.5 c 128,-1,14
 872 684 872 684 721 610 c 1,15,-1
 721 609 l 1,16,-1
 914 323 l 2,17,18
 1018 170 1018 170 1068.5 120 c 128,-1,19
 1119 70 1119 70 1175 50 c 1,20,-1
 1223 34 l 1,21,-1
 1217 -3 l 1,22,23
 1174 -18 1174 -18 1128 -18 c 0,24,25
 1040 -18 1040 -18 977.5 50.5 c 128,-1,26
 915 119 915 119 843 238 c 2,27,-1
 640 571 l 1,28,-1
 426 571 l 1,29,-1
 426 65 l 1,30,-1
 637 46 l 1,31,-1
 627 0 l 1,32,-1
 160 0 l 1,33,-1
 167 42 l 1,34,-1
 323 72 l 1,35,-1
 323 1153 l 1,36,-1
 163 1174 l 1,37,-1
 172 1210 l 1,38,9
 439 1253 439 1253 574 1253 c 128,-1,10
818 -241 m 0,39,40
 818 -158 818 -158 713 -151 c 1,41,42
 713 -127 713 -127 735 -106 c 128,-1,43
 757 -85 757 -85 796 -85 c 128,-1,44
 835 -85 835 -85 864.5 -117 c 128,-1,45
 894 -149 894 -149 894 -195 c 128,-1,46
 894 -241 894 -241 878 -276 c 128,-1,47
 862 -311 862 -311 818 -344 c 128,-1,48
 774 -377 774 -377 708 -390 c 1,49,-1
 692 -353 l 1,50,51
 752 -339 752 -339 785 -309.5 c 128,-1,52
 818 -280 818 -280 818 -241 c 0,39,40
EndSplineSet
Colour: ffffff
EndChar

StartChar: S
Encoding: 83 83 81
Width: 860
VWidth: 0
Flags: HMW
LayerCount: 2
Fore
SplineSet
482 37 m 128,-1,1
 576 37 576 37 646 96.5 c 128,-1,2
 716 156 716 156 716 267 c 128,-1,3
 716 378 716 378 602 470 c 0,4,5
 552 511 552 511 491 551 c 0,6,7
 316 666 316 666 256 720 c 0,8,9
 142 822 142 822 142.5 961 c 128,-1,10
 143 1100 143 1100 244.5 1185.5 c 128,-1,11
 346 1271 346 1271 475 1271 c 0,12,13
 561 1271 561 1271 640 1243 c 128,-1,14
 719 1215 719 1215 767 1161 c 1,15,-1
 734 851 l 1,16,-1
 688 858 l 1,17,-1
 661 1101 l 1,18,19
 634 1150 634 1150 573 1182 c 128,-1,20
 512 1214 512 1214 437 1214 c 128,-1,21
 362 1214 362 1214 301.5 1157.5 c 128,-1,22
 241 1101 241 1101 241 1021.5 c 128,-1,23
 241 942 241 942 273.5 885 c 128,-1,24
 306 828 306 828 357.5 785 c 128,-1,25
 409 742 409 742 471 700.5 c 128,-1,26
 533 659 533 659 595.5 618 c 128,-1,27
 658 577 658 577 710 533 c 0,28,29
 826 433 826 433 826 298 c 128,-1,30
 826 163 826 163 716 68.5 c 128,-1,31
 606 -26 606 -26 424 -26 c 0,32,33
 320 -26 320 -26 232 14 c 128,-1,34
 144 54 144 54 94 116 c 1,35,-1
 124 401 l 1,36,-1
 172 393 l 1,37,-1
 200 174 l 1,38,39
 233 111 233 111 310.5 74 c 128,-1,0
 388 37 388 37 482 37 c 128,-1,1
EndSplineSet
Colour: ffffff
EndChar

StartChar: Sacute
Encoding: 346 346 82
Width: 860
VWidth: 0
Flags: HMW
LayerCount: 2
Fore
SplineSet
482 37 m 128,-1,1
 576 37 576 37 646 96.5 c 128,-1,2
 716 156 716 156 716 267 c 128,-1,3
 716 378 716 378 602 470 c 0,4,5
 552 511 552 511 491 551 c 0,6,7
 316 666 316 666 256 720 c 0,8,9
 142 822 142 822 142.5 961 c 128,-1,10
 143 1100 143 1100 244.5 1185.5 c 128,-1,11
 346 1271 346 1271 475 1271 c 0,12,13
 561 1271 561 1271 640 1243 c 128,-1,14
 719 1215 719 1215 767 1161 c 1,15,-1
 734 851 l 1,16,-1
 688 858 l 1,17,-1
 661 1101 l 1,18,19
 634 1150 634 1150 573 1182 c 128,-1,20
 512 1214 512 1214 437 1214 c 128,-1,21
 362 1214 362 1214 301.5 1157.5 c 128,-1,22
 241 1101 241 1101 241 1021.5 c 128,-1,23
 241 942 241 942 273.5 885 c 128,-1,24
 306 828 306 828 357.5 785 c 128,-1,25
 409 742 409 742 471 700.5 c 128,-1,26
 533 659 533 659 595.5 618 c 128,-1,27
 658 577 658 577 710 533 c 0,28,29
 826 433 826 433 826 298 c 128,-1,30
 826 163 826 163 716 68.5 c 128,-1,31
 606 -26 606 -26 424 -26 c 0,32,33
 320 -26 320 -26 232 14 c 128,-1,34
 144 54 144 54 94 116 c 1,35,-1
 124 401 l 1,36,-1
 172 393 l 1,37,-1
 200 174 l 1,38,39
 233 111 233 111 310.5 74 c 128,-1,0
 388 37 388 37 482 37 c 128,-1,1
420 1373 m 1,40,-1
 552 1710 l 1,41,-1
 648 1671 l 1,42,-1
 465 1347 l 1,43,-1
 420 1373 l 1,40,-1
EndSplineSet
Colour: ffffff
EndChar

StartChar: Scaron
Encoding: 352 352 83
Width: 860
VWidth: 0
Flags: HMW
LayerCount: 2
Fore
SplineSet
482 37 m 128,-1,1
 576 37 576 37 646 96.5 c 128,-1,2
 716 156 716 156 716 267 c 128,-1,3
 716 378 716 378 602 470 c 0,4,5
 552 511 552 511 491 551 c 0,6,7
 316 666 316 666 256 720 c 0,8,9
 142 822 142 822 142.5 961 c 128,-1,10
 143 1100 143 1100 244.5 1185.5 c 128,-1,11
 346 1271 346 1271 475 1271 c 0,12,13
 561 1271 561 1271 640 1243 c 128,-1,14
 719 1215 719 1215 767 1161 c 1,15,-1
 734 851 l 1,16,-1
 688 858 l 1,17,-1
 661 1101 l 1,18,19
 634 1150 634 1150 573 1182 c 128,-1,20
 512 1214 512 1214 437 1214 c 128,-1,21
 362 1214 362 1214 301.5 1157.5 c 128,-1,22
 241 1101 241 1101 241 1021.5 c 128,-1,23
 241 942 241 942 273.5 885 c 128,-1,24
 306 828 306 828 357.5 785 c 128,-1,25
 409 742 409 742 471 700.5 c 128,-1,26
 533 659 533 659 595.5 618 c 128,-1,27
 658 577 658 577 710 533 c 0,28,29
 826 433 826 433 826 298 c 128,-1,30
 826 163 826 163 716 68.5 c 128,-1,31
 606 -26 606 -26 424 -26 c 0,32,33
 320 -26 320 -26 232 14 c 128,-1,34
 144 54 144 54 94 116 c 1,35,-1
 124 401 l 1,36,-1
 172 393 l 1,37,-1
 200 174 l 1,38,39
 233 111 233 111 310.5 74 c 128,-1,0
 388 37 388 37 482 37 c 128,-1,1
265 1540 m 1,40,-1
 320 1589 l 1,41,-1
 486 1420 l 1,42,-1
 495 1420 l 1,43,-1
 638 1585 l 1,44,-1
 674 1558 l 1,45,-1
 500 1374 l 1,46,-1
 444 1360 l 1,47,-1
 265 1540 l 1,40,-1
EndSplineSet
Colour: ffffff
EndChar

StartChar: Scedilla
Encoding: 350 350 84
Width: 860
VWidth: 0
Flags: HMW
LayerCount: 2
Fore
SplineSet
482 37 m 128,-1,1
 576 37 576 37 646 96.5 c 128,-1,2
 716 156 716 156 716 267 c 128,-1,3
 716 378 716 378 602 470 c 0,4,5
 552 511 552 511 491 551 c 0,6,7
 316 666 316 666 256 720 c 0,8,9
 142 822 142 822 142.5 961 c 128,-1,10
 143 1100 143 1100 244.5 1185.5 c 128,-1,11
 346 1271 346 1271 475 1271 c 0,12,13
 561 1271 561 1271 640 1243 c 128,-1,14
 719 1215 719 1215 767 1161 c 1,15,-1
 734 851 l 1,16,-1
 688 858 l 1,17,-1
 661 1101 l 1,18,19
 634 1150 634 1150 573 1182 c 128,-1,20
 512 1214 512 1214 437 1214 c 128,-1,21
 362 1214 362 1214 301.5 1157.5 c 128,-1,22
 241 1101 241 1101 241 1021.5 c 128,-1,23
 241 942 241 942 273.5 885 c 128,-1,24
 306 828 306 828 357.5 785 c 128,-1,25
 409 742 409 742 471 700.5 c 128,-1,26
 533 659 533 659 595.5 618 c 128,-1,27
 658 577 658 577 710 533 c 0,28,29
 826 433 826 433 826 307 c 128,-1,30
 826 181 826 181 740.5 91 c 128,-1,31
 655 1 655 1 508 -20 c 1,32,-1
 469 -76 l 1,33,34
 558 -155 558 -155 558 -219 c 128,-1,35
 558 -283 558 -283 506.5 -322 c 128,-1,36
 455 -361 455 -361 359 -390 c 1,37,-1
 348 -347 l 1,38,39
 391 -332 391 -332 428.5 -300.5 c 128,-1,40
 466 -269 466 -269 466 -246.5 c 128,-1,41
 466 -224 466 -224 456.5 -203.5 c 128,-1,42
 447 -183 447 -183 438 -172.5 c 128,-1,43
 429 -162 429 -162 407.5 -143 c 128,-1,44
 386 -124 386 -124 380 -118 c 1,45,-1
 445 -26 l 1,46,47
 435 -26 435 -26 424 -26 c 0,48,49
 320 -26 320 -26 232 14 c 128,-1,50
 144 54 144 54 94 116 c 1,51,-1
 124 401 l 1,52,-1
 172 393 l 1,53,-1
 200 174 l 1,54,55
 233 111 233 111 310.5 74 c 128,-1,0
 388 37 388 37 482 37 c 128,-1,1
EndSplineSet
Colour: ffffff
EndChar

StartChar: Scommaaccent
Encoding: 536 536 85
Width: 860
VWidth: 0
Flags: HMW
LayerCount: 2
Fore
SplineSet
482 37 m 128,-1,1
 576 37 576 37 646 96.5 c 128,-1,2
 716 156 716 156 716 267 c 128,-1,3
 716 378 716 378 602 470 c 0,4,5
 552 511 552 511 491 551 c 0,6,7
 316 666 316 666 256 720 c 0,8,9
 142 822 142 822 142.5 961 c 128,-1,10
 143 1100 143 1100 244.5 1185.5 c 128,-1,11
 346 1271 346 1271 475 1271 c 0,12,13
 561 1271 561 1271 640 1243 c 128,-1,14
 719 1215 719 1215 767 1161 c 1,15,-1
 734 851 l 1,16,-1
 688 858 l 1,17,-1
 661 1101 l 1,18,19
 634 1150 634 1150 573 1182 c 128,-1,20
 512 1214 512 1214 437 1214 c 128,-1,21
 362 1214 362 1214 301.5 1157.5 c 128,-1,22
 241 1101 241 1101 241 1021.5 c 128,-1,23
 241 942 241 942 273.5 885 c 128,-1,24
 306 828 306 828 357.5 785 c 128,-1,25
 409 742 409 742 471 700.5 c 128,-1,26
 533 659 533 659 595.5 618 c 128,-1,27
 658 577 658 577 710 533 c 0,28,29
 826 433 826 433 826 298 c 128,-1,30
 826 163 826 163 716 68.5 c 128,-1,31
 606 -26 606 -26 424 -26 c 0,32,33
 320 -26 320 -26 232 14 c 128,-1,34
 144 54 144 54 94 116 c 1,35,-1
 124 401 l 1,36,-1
 172 393 l 1,37,-1
 200 174 l 1,38,39
 233 111 233 111 310.5 74 c 128,-1,0
 388 37 388 37 482 37 c 128,-1,1
436 -237 m 0,40,41
 436 -154 436 -154 331 -147 c 1,42,43
 331 -123 331 -123 353 -102 c 128,-1,44
 375 -81 375 -81 414 -81 c 128,-1,45
 453 -81 453 -81 482.5 -113 c 128,-1,46
 512 -145 512 -145 512 -191 c 128,-1,47
 512 -237 512 -237 496 -272 c 128,-1,48
 480 -307 480 -307 436 -340 c 128,-1,49
 392 -373 392 -373 326 -386 c 1,50,-1
 310 -349 l 1,51,52
 370 -335 370 -335 403 -305.5 c 128,-1,53
 436 -276 436 -276 436 -237 c 0,40,41
EndSplineSet
Colour: ffffff
EndChar

StartChar: T
Encoding: 84 84 86
Width: 1121
VWidth: 0
Flags: HMW
LayerCount: 2
Fore
SplineSet
647 1193 m 1,0,-1
 647 73 l 1,1,-1
 824 46 l 1,2,-1
 813 0 l 1,3,-1
 360 0 l 1,4,-1
 365 42 l 1,5,-1
 540 72 l 1,6,-1
 540 1193 l 1,7,-1
 184 1193 l 1,8,-1
 149 914 l 1,9,-1
 97 922 l 1,10,-1
 87 1244 l 1,11,-1
 1120 1244 l 1,12,-1
 1085 912 l 1,13,-1
 1035 918 l 1,14,-1
 1018 1193 l 1,15,-1
 647 1193 l 1,0,-1
EndSplineSet
Colour: ffffff
EndChar

StartChar: Tbar
Encoding: 358 358 87
Width: 1121
VWidth: 0
Flags: HMW
LayerCount: 2
Fore
SplineSet
540 652 m 1,0,-1
 540 1193 l 1,1,-1
 184 1193 l 1,2,-1
 149 914 l 1,3,-1
 97 922 l 1,4,-1
 87 1244 l 1,5,-1
 1120 1244 l 1,6,-1
 1085 912 l 1,7,-1
 1035 918 l 1,8,-1
 1018 1193 l 1,9,-1
 647 1193 l 1,10,-1
 647 652 l 1,11,-1
 938 652 l 1,12,-1
 931 591 l 1,13,-1
 647 591 l 1,14,-1
 647 73 l 1,15,-1
 824 46 l 1,16,-1
 813 0 l 1,17,-1
 360 0 l 1,18,-1
 365 42 l 1,19,-1
 540 72 l 1,20,-1
 540 591 l 1,21,-1
 255 591 l 1,22,-1
 263 652 l 1,23,-1
 540 652 l 1,0,-1
EndSplineSet
Colour: ffffff
EndChar

StartChar: Tcaron
Encoding: 356 356 88
Width: 1121
VWidth: 0
Flags: HMW
LayerCount: 2
Fore
SplineSet
647 1193 m 1,0,-1
 647 73 l 1,1,-1
 824 46 l 1,2,-1
 813 0 l 1,3,-1
 360 0 l 1,4,-1
 365 42 l 1,5,-1
 540 72 l 1,6,-1
 540 1193 l 1,7,-1
 184 1193 l 1,8,-1
 149 914 l 1,9,-1
 97 922 l 1,10,-1
 87 1244 l 1,11,-1
 1120 1244 l 1,12,-1
 1085 912 l 1,13,-1
 1035 918 l 1,14,-1
 1018 1193 l 1,15,-1
 647 1193 l 1,0,-1
404 1543 m 1,16,-1
 459 1592 l 1,17,-1
 625 1423 l 1,18,-1
 634 1423 l 1,19,-1
 777 1588 l 1,20,-1
 813 1561 l 1,21,-1
 639 1377 l 1,22,-1
 583 1363 l 1,23,-1
 404 1543 l 1,16,-1
EndSplineSet
Colour: ffffff
EndChar

StartChar: Tcedilla
Encoding: 354 354 89
Width: 1121
VWidth: 0
Flags: HMW
LayerCount: 2
Fore
SplineSet
647 1193 m 1,0,-1
 647 73 l 1,1,-1
 824 46 l 1,2,-1
 813 0 l 1,3,-1
 797 -0 l 1,4,-1
 744 -76 l 1,5,6
 833 -155 833 -155 833 -219 c 128,-1,7
 833 -283 833 -283 781.5 -322 c 128,-1,8
 730 -361 730 -361 634 -390 c 1,9,-1
 623 -347 l 1,10,11
 666 -332 666 -332 703.5 -300.5 c 128,-1,12
 741 -269 741 -269 741 -246.5 c 128,-1,13
 741 -224 741 -224 731.5 -203.5 c 128,-1,14
 722 -183 722 -183 713 -172.5 c 128,-1,15
 704 -162 704 -162 682.5 -143 c 128,-1,16
 661 -124 661 -124 655 -118 c 1,17,-1
 738 -0 l 1,18,-1
 360 0 l 1,19,-1
 365 42 l 1,20,-1
 540 72 l 1,21,-1
 540 1193 l 1,22,-1
 184 1193 l 1,23,-1
 149 914 l 1,24,-1
 97 922 l 1,25,-1
 87 1244 l 1,26,-1
 1120 1244 l 1,27,-1
 1085 912 l 1,28,-1
 1035 918 l 1,29,-1
 1018 1193 l 1,30,-1
 647 1193 l 1,0,-1
EndSplineSet
Colour: ffffff
EndChar

StartChar: Tcommaaccent
Encoding: 538 538 90
Width: 1121
VWidth: 0
Flags: HMW
LayerCount: 2
Fore
SplineSet
647 1193 m 1,0,-1
 647 73 l 1,1,-1
 824 46 l 1,2,-1
 813 0 l 1,3,-1
 360 0 l 1,4,-1
 365 42 l 1,5,-1
 540 72 l 1,6,-1
 540 1193 l 1,7,-1
 184 1193 l 1,8,-1
 149 914 l 1,9,-1
 97 922 l 1,10,-1
 87 1244 l 1,11,-1
 1120 1244 l 1,12,-1
 1085 912 l 1,13,-1
 1035 918 l 1,14,-1
 1018 1193 l 1,15,-1
 647 1193 l 1,0,-1
564 -241 m 0,16,17
 564 -158 564 -158 459 -151 c 1,18,19
 459 -127 459 -127 481 -106 c 128,-1,20
 503 -85 503 -85 542 -85 c 128,-1,21
 581 -85 581 -85 610.5 -117 c 128,-1,22
 640 -149 640 -149 640 -195 c 128,-1,23
 640 -241 640 -241 624 -276 c 128,-1,24
 608 -311 608 -311 564 -344 c 128,-1,25
 520 -377 520 -377 454 -390 c 1,26,-1
 438 -353 l 1,27,28
 498 -339 498 -339 531 -309.5 c 128,-1,29
 564 -280 564 -280 564 -241 c 0,16,17
EndSplineSet
Colour: ffffff
EndChar

StartChar: Thorn
Encoding: 222 222 91
Width: 692
VWidth: 0
Flags: HMW
LayerCount: 2
Fore
SplineSet
536 1024 m 0,0,1
 742 1024 742 1024 880 935.5 c 128,-1,2
 1018 847 1018 847 1018 660 c 0,3,4
 1018 539 1018 539 949 443.5 c 128,-1,5
 880 348 880 348 770.5 298 c 128,-1,6
 661 248 661 248 535 248 c 0,7,8
 493 248 493 248 482 250 c 1,9,-1
 472 293 l 1,10,-1
 526 296 l 1,11,12
 802 306 802 306 874 512 c 0,13,14
 894 570 894 570 894 638 c 0,15,16
 894 775 894 775 794.5 877 c 128,-1,17
 695 979 695 979 503 979 c 1,18,-1
 393 972 l 1,19,-1
 393 66 l 1,20,-1
 627 46 l 1,21,-1
 619 0 l 1,22,-1
 120 0 l 1,23,-1
 125 42 l 1,24,-1
 283 72 l 1,25,-1
 286 1180 l 1,26,-1
 113 1205 l 1,27,-1
 118 1244 l 1,28,-1
 576 1244 l 1,29,-1
 571 1205 l 1,30,-1
 393 1182 l 1,31,-1
 393 1021 l 1,32,33
 435 1024 435 1024 536 1024 c 0,0,1
EndSplineSet
Colour: ffffff
EndChar

StartChar: U
Encoding: 85 85 92
Width: 1341
VWidth: 0
Flags: HMW
LayerCount: 2
Fore
SplineSet
724 -27 m 0,0,1
 281 -27 281 -27 281 462 c 2,2,-1
 281 1180 l 1,3,-1
 100 1205 l 1,4,-1
 104 1244 l 1,5,-1
 558 1244 l 1,6,-1
 554 1205 l 1,7,-1
 385 1182 l 1,8,-1
 385 495 l 2,9,10
 385 243 385 243 485.5 142.5 c 128,-1,11
 586 42 586 42 757.5 42 c 128,-1,12
 929 42 929 42 1023 146.5 c 128,-1,13
 1117 251 1117 251 1117 449 c 2,14,-1
 1117 1180 l 1,15,-1
 931 1205 l 1,16,-1
 936 1244 l 1,17,-1
 1361 1244 l 1,18,-1
 1353 1205 l 1,19,-1
 1187 1182 l 1,20,-1
 1184 490 l 2,21,22
 1183 236 1183 236 1075 104.5 c 128,-1,23
 967 -27 967 -27 724 -27 c 0,0,1
EndSplineSet
Colour: ffffff
EndChar

StartChar: Uacute
Encoding: 218 218 93
Width: 1341
VWidth: 0
Flags: HMW
LayerCount: 2
Fore
SplineSet
724 -27 m 0,0,1
 281 -27 281 -27 281 462 c 2,2,-1
 281 1180 l 1,3,-1
 100 1205 l 1,4,-1
 104 1244 l 1,5,-1
 558 1244 l 1,6,-1
 554 1205 l 1,7,-1
 385 1182 l 1,8,-1
 385 495 l 2,9,10
 385 243 385 243 485.5 142.5 c 128,-1,11
 586 42 586 42 757.5 42 c 128,-1,12
 929 42 929 42 1023 146.5 c 128,-1,13
 1117 251 1117 251 1117 449 c 2,14,-1
 1117 1180 l 1,15,-1
 931 1205 l 1,16,-1
 936 1244 l 1,17,-1
 1361 1244 l 1,18,-1
 1353 1205 l 1,19,-1
 1187 1182 l 1,20,-1
 1184 490 l 2,21,22
 1183 236 1183 236 1075 104.5 c 128,-1,23
 967 -27 967 -27 724 -27 c 0,0,1
678 1376 m 1,24,-1
 810 1713 l 1,25,-1
 906 1674 l 1,26,-1
 723 1350 l 1,27,-1
 678 1376 l 1,24,-1
EndSplineSet
Colour: ffffff
EndChar

StartChar: Ucaron
Encoding: 467 467 94
Width: 1341
VWidth: 0
Flags: HMW
LayerCount: 2
Fore
SplineSet
724 -27 m 0,0,1
 281 -27 281 -27 281 462 c 2,2,-1
 281 1180 l 1,3,-1
 100 1205 l 1,4,-1
 104 1244 l 1,5,-1
 558 1244 l 1,6,-1
 554 1205 l 1,7,-1
 385 1182 l 1,8,-1
 385 495 l 2,9,10
 385 243 385 243 485.5 142.5 c 128,-1,11
 586 42 586 42 757.5 42 c 128,-1,12
 929 42 929 42 1023 146.5 c 128,-1,13
 1117 251 1117 251 1117 449 c 2,14,-1
 1117 1180 l 1,15,-1
 931 1205 l 1,16,-1
 936 1244 l 1,17,-1
 1361 1244 l 1,18,-1
 1353 1205 l 1,19,-1
 1187 1182 l 1,20,-1
 1184 490 l 2,21,22
 1183 236 1183 236 1075 104.5 c 128,-1,23
 967 -27 967 -27 724 -27 c 0,0,1
524 1543 m 1,24,-1
 579 1592 l 1,25,-1
 745 1423 l 1,26,-1
 754 1423 l 1,27,-1
 897 1588 l 1,28,-1
 933 1561 l 1,29,-1
 759 1377 l 1,30,-1
 703 1363 l 1,31,-1
 524 1543 l 1,24,-1
EndSplineSet
Colour: ffffff
EndChar

StartChar: Ucircumflex
Encoding: 219 219 95
Width: 1341
VWidth: 0
Flags: HMW
LayerCount: 2
Fore
SplineSet
724 -27 m 0,0,1
 281 -27 281 -27 281 462 c 2,2,-1
 281 1180 l 1,3,-1
 100 1205 l 1,4,-1
 104 1244 l 1,5,-1
 558 1244 l 1,6,-1
 554 1205 l 1,7,-1
 385 1182 l 1,8,-1
 385 495 l 2,9,10
 385 243 385 243 485.5 142.5 c 128,-1,11
 586 42 586 42 757.5 42 c 128,-1,12
 929 42 929 42 1023 146.5 c 128,-1,13
 1117 251 1117 251 1117 449 c 2,14,-1
 1117 1180 l 1,15,-1
 931 1205 l 1,16,-1
 936 1244 l 1,17,-1
 1361 1244 l 1,18,-1
 1353 1205 l 1,19,-1
 1187 1182 l 1,20,-1
 1184 490 l 2,21,22
 1183 236 1183 236 1075 104.5 c 128,-1,23
 967 -27 967 -27 724 -27 c 0,0,1
539 1394 m 1,24,-1
 706 1575 l 1,25,-1
 760 1588 l 1,26,-1
 939 1402 l 1,27,-1
 907 1365 l 1,28,-1
 726 1500 l 1,29,-1
 717 1500 l 1,30,-1
 560 1364 l 1,31,-1
 539 1394 l 1,24,-1
EndSplineSet
Colour: ffffff
EndChar

StartChar: Udieresis
Encoding: 220 220 96
Width: 1341
VWidth: 0
Flags: HMW
LayerCount: 2
Fore
SplineSet
724 -27 m 0,0,1
 281 -27 281 -27 281 462 c 2,2,-1
 281 1180 l 1,3,-1
 100 1205 l 1,4,-1
 104 1244 l 1,5,-1
 558 1244 l 1,6,-1
 554 1205 l 1,7,-1
 385 1182 l 1,8,-1
 385 495 l 2,9,10
 385 243 385 243 485.5 142.5 c 128,-1,11
 586 42 586 42 757.5 42 c 128,-1,12
 929 42 929 42 1023 146.5 c 128,-1,13
 1117 251 1117 251 1117 449 c 2,14,-1
 1117 1180 l 1,15,-1
 931 1205 l 1,16,-1
 936 1244 l 1,17,-1
 1361 1244 l 1,18,-1
 1353 1205 l 1,19,-1
 1187 1182 l 1,20,-1
 1184 490 l 2,21,22
 1183 236 1183 236 1075 104.5 c 128,-1,23
 967 -27 967 -27 724 -27 c 0,0,1
808 1452.5 m 128,-1,25
 808 1532 808 1532 864 1532 c 128,-1,26
 920 1532 920 1532 920 1452.5 c 128,-1,27
 920 1373 920 1373 864 1373 c 128,-1,24
 808 1373 808 1373 808 1452.5 c 128,-1,25
596 1373 m 0,28,29
 539 1373 539 1373 539 1452.5 c 128,-1,30
 539 1532 539 1532 595.5 1532 c 128,-1,31
 652 1532 652 1532 652 1454 c 0,32,33
 652 1413 652 1413 639.5 1393 c 128,-1,34
 627 1373 627 1373 596 1373 c 0,28,29
EndSplineSet
Colour: ffffff
EndChar

StartChar: Udieresisacute
Encoding: 471 471 97
Width: 1341
VWidth: 0
Flags: HMW
LayerCount: 2
Fore
SplineSet
825 1463.5 m 128,-1,1
 825 1543 825 1543 881 1543 c 128,-1,2
 937 1543 937 1543 937 1463.5 c 128,-1,3
 937 1384 937 1384 881 1384 c 128,-1,0
 825 1384 825 1384 825 1463.5 c 128,-1,1
613 1384 m 0,4,5
 556 1384 556 1384 556 1463.5 c 128,-1,6
 556 1543 556 1543 612.5 1543 c 128,-1,7
 669 1543 669 1543 669 1465 c 0,8,9
 669 1424 669 1424 656.5 1404 c 128,-1,10
 644 1384 644 1384 613 1384 c 0,4,5
724 -27 m 0,11,12
 281 -27 281 -27 281 462 c 2,13,-1
 281 1180 l 1,14,-1
 100 1205 l 1,15,-1
 104 1244 l 1,16,-1
 558 1244 l 1,17,-1
 554 1205 l 1,18,-1
 385 1182 l 1,19,-1
 385 495 l 2,20,21
 385 243 385 243 485.5 142.5 c 128,-1,22
 586 42 586 42 757.5 42 c 128,-1,23
 929 42 929 42 1023 146.5 c 128,-1,24
 1117 251 1117 251 1117 449 c 2,25,-1
 1117 1180 l 1,26,-1
 931 1205 l 1,27,-1
 936 1244 l 1,28,-1
 1361 1244 l 1,29,-1
 1353 1205 l 1,30,-1
 1187 1182 l 1,31,-1
 1184 490 l 2,32,33
 1183 236 1183 236 1075 104.5 c 128,-1,34
 967 -27 967 -27 724 -27 c 0,11,12
707 1551 m 1,35,-1
 839 1888 l 1,36,-1
 935 1849 l 1,37,-1
 752 1525 l 1,38,-1
 707 1551 l 1,35,-1
EndSplineSet
Colour: ffffff
EndChar

StartChar: Udieresiscaron
Encoding: 473 473 98
Width: 1341
VWidth: 0
Flags: HMW
LayerCount: 2
Fore
SplineSet
825 1437.5 m 128,-1,1
 825 1517 825 1517 881 1517 c 128,-1,2
 937 1517 937 1517 937 1437.5 c 128,-1,3
 937 1358 937 1358 881 1358 c 128,-1,0
 825 1358 825 1358 825 1437.5 c 128,-1,1
613 1358 m 0,4,5
 556 1358 556 1358 556 1437.5 c 128,-1,6
 556 1517 556 1517 612.5 1517 c 128,-1,7
 669 1517 669 1517 669 1439 c 0,8,9
 669 1398 669 1398 656.5 1378 c 128,-1,10
 644 1358 644 1358 613 1358 c 0,4,5
724 -27 m 0,11,12
 281 -27 281 -27 281 462 c 2,13,-1
 281 1180 l 1,14,-1
 100 1205 l 1,15,-1
 104 1244 l 1,16,-1
 558 1244 l 1,17,-1
 554 1205 l 1,18,-1
 385 1182 l 1,19,-1
 385 495 l 2,20,21
 385 243 385 243 485.5 142.5 c 128,-1,22
 586 42 586 42 757.5 42 c 128,-1,23
 929 42 929 42 1023 146.5 c 128,-1,24
 1117 251 1117 251 1117 449 c 2,25,-1
 1117 1180 l 1,26,-1
 931 1205 l 1,27,-1
 936 1244 l 1,28,-1
 1361 1244 l 1,29,-1
 1353 1205 l 1,30,-1
 1187 1182 l 1,31,-1
 1184 490 l 2,32,33
 1183 236 1183 236 1075 104.5 c 128,-1,34
 967 -27 967 -27 724 -27 c 0,11,12
542 1743 m 1,35,-1
 597 1792 l 1,36,-1
 763 1623 l 1,37,-1
 772 1623 l 1,38,-1
 915 1788 l 1,39,-1
 951 1761 l 1,40,-1
 777 1577 l 1,41,-1
 721 1563 l 1,42,-1
 542 1743 l 1,35,-1
EndSplineSet
Colour: ffffff
EndChar

StartChar: Udieresisgrave
Encoding: 475 475 99
Width: 1341
VWidth: 0
Flags: HMW
LayerCount: 2
Fore
SplineSet
825 1437.5 m 128,-1,1
 825 1517 825 1517 881 1517 c 128,-1,2
 937 1517 937 1517 937 1437.5 c 128,-1,3
 937 1358 937 1358 881 1358 c 128,-1,0
 825 1358 825 1358 825 1437.5 c 128,-1,1
613 1358 m 0,4,5
 556 1358 556 1358 556 1437.5 c 128,-1,6
 556 1517 556 1517 612.5 1517 c 128,-1,7
 669 1517 669 1517 669 1439 c 0,8,9
 669 1398 669 1398 656.5 1378 c 128,-1,10
 644 1358 644 1358 613 1358 c 0,4,5
724 -27 m 0,11,12
 281 -27 281 -27 281 462 c 2,13,-1
 281 1180 l 1,14,-1
 100 1205 l 1,15,-1
 104 1244 l 1,16,-1
 558 1244 l 1,17,-1
 554 1205 l 1,18,-1
 385 1182 l 1,19,-1
 385 495 l 2,20,21
 385 243 385 243 485.5 142.5 c 128,-1,22
 586 42 586 42 757.5 42 c 128,-1,23
 929 42 929 42 1023 146.5 c 128,-1,24
 1117 251 1117 251 1117 449 c 2,25,-1
 1117 1180 l 1,26,-1
 931 1205 l 1,27,-1
 936 1244 l 1,28,-1
 1361 1244 l 1,29,-1
 1353 1205 l 1,30,-1
 1187 1182 l 1,31,-1
 1184 490 l 2,32,33
 1183 236 1183 236 1075 104.5 c 128,-1,34
 967 -27 967 -27 724 -27 c 0,11,12
551 1842 m 1,35,-1
 645 1879 l 1,36,-1
 778 1543 l 1,37,-1
 732 1516 l 1,38,-1
 551 1842 l 1,35,-1
EndSplineSet
Colour: ffffff
EndChar

StartChar: Udieresismacron
Encoding: 469 469 100
Width: 1341
VWidth: 0
Flags: HMW
LayerCount: 2
Fore
SplineSet
825 1463.5 m 128,-1,1
 825 1543 825 1543 881 1543 c 128,-1,2
 937 1543 937 1543 937 1463.5 c 128,-1,3
 937 1384 937 1384 881 1384 c 128,-1,0
 825 1384 825 1384 825 1463.5 c 128,-1,1
613 1384 m 0,4,5
 556 1384 556 1384 556 1463.5 c 128,-1,6
 556 1543 556 1543 612.5 1543 c 128,-1,7
 669 1543 669 1543 669 1465 c 0,8,9
 669 1424 669 1424 656.5 1404 c 128,-1,10
 644 1384 644 1384 613 1384 c 0,4,5
724 -27 m 0,11,12
 281 -27 281 -27 281 462 c 2,13,-1
 281 1180 l 1,14,-1
 100 1205 l 1,15,-1
 104 1244 l 1,16,-1
 558 1244 l 1,17,-1
 554 1205 l 1,18,-1
 385 1182 l 1,19,-1
 385 495 l 2,20,21
 385 243 385 243 485.5 142.5 c 128,-1,22
 586 42 586 42 757.5 42 c 128,-1,23
 929 42 929 42 1023 146.5 c 128,-1,24
 1117 251 1117 251 1117 449 c 2,25,-1
 1117 1180 l 1,26,-1
 931 1205 l 1,27,-1
 936 1244 l 1,28,-1
 1361 1244 l 1,29,-1
 1353 1205 l 1,30,-1
 1187 1182 l 1,31,-1
 1184 490 l 2,32,33
 1183 236 1183 236 1075 104.5 c 128,-1,34
 967 -27 967 -27 724 -27 c 0,11,12
520 1594 m 1,35,-1
 529 1646 l 1,36,-1
 969 1646 l 1,37,-1
 961 1594 l 1,38,-1
 520 1594 l 1,35,-1
EndSplineSet
Colour: ffffff
EndChar

StartChar: Ugrave
Encoding: 217 217 101
Width: 1341
VWidth: 0
Flags: HMW
LayerCount: 2
Fore
SplineSet
724 -27 m 0,0,1
 281 -27 281 -27 281 462 c 2,2,-1
 281 1180 l 1,3,-1
 100 1205 l 1,4,-1
 104 1244 l 1,5,-1
 558 1244 l 1,6,-1
 554 1205 l 1,7,-1
 385 1182 l 1,8,-1
 385 495 l 2,9,10
 385 243 385 243 485.5 142.5 c 128,-1,11
 586 42 586 42 757.5 42 c 128,-1,12
 929 42 929 42 1023 146.5 c 128,-1,13
 1117 251 1117 251 1117 449 c 2,14,-1
 1117 1180 l 1,15,-1
 931 1205 l 1,16,-1
 936 1244 l 1,17,-1
 1361 1244 l 1,18,-1
 1353 1205 l 1,19,-1
 1187 1182 l 1,20,-1
 1184 490 l 2,21,22
 1183 236 1183 236 1075 104.5 c 128,-1,23
 967 -27 967 -27 724 -27 c 0,0,1
546 1667 m 1,24,-1
 640 1704 l 1,25,-1
 773 1368 l 1,26,-1
 727 1341 l 1,27,-1
 546 1667 l 1,24,-1
EndSplineSet
Colour: ffffff
EndChar

StartChar: Uhungarumlaut
Encoding: 368 368 102
Width: 1341
VWidth: 0
Flags: HMW
LayerCount: 2
Fore
SplineSet
724 -27 m 0,0,1
 281 -27 281 -27 281 462 c 2,2,-1
 281 1180 l 1,3,-1
 100 1205 l 1,4,-1
 104 1244 l 1,5,-1
 558 1244 l 1,6,-1
 554 1205 l 1,7,-1
 385 1182 l 1,8,-1
 385 495 l 2,9,10
 385 243 385 243 485.5 142.5 c 128,-1,11
 586 42 586 42 757.5 42 c 128,-1,12
 929 42 929 42 1023 146.5 c 128,-1,13
 1117 251 1117 251 1117 449 c 2,14,-1
 1117 1180 l 1,15,-1
 931 1205 l 1,16,-1
 936 1244 l 1,17,-1
 1361 1244 l 1,18,-1
 1353 1205 l 1,19,-1
 1187 1182 l 1,20,-1
 1184 490 l 2,21,22
 1183 236 1183 236 1075 104.5 c 128,-1,23
 967 -27 967 -27 724 -27 c 0,0,1
753 1398 m 1,24,-1
 1010 1597 l 1,25,-1
 1066 1533 l 1,26,-1
 774 1365 l 1,27,-1
 753 1398 l 1,24,-1
544 1398 m 1,28,-1
 804 1607 l 1,29,-1
 864 1537 l 1,30,-1
 565 1365 l 1,31,-1
 544 1398 l 1,28,-1
EndSplineSet
Colour: ffffff
EndChar

StartChar: Umacron
Encoding: 362 362 103
Width: 1341
VWidth: 0
Flags: HMW
LayerCount: 2
Fore
SplineSet
520 1380 m 1,0,-1
 529 1432 l 1,1,-1
 969 1432 l 1,2,-1
 961 1380 l 1,3,-1
 520 1380 l 1,0,-1
724 -27 m 0,4,5
 281 -27 281 -27 281 462 c 2,6,-1
 281 1180 l 1,7,-1
 100 1205 l 1,8,-1
 104 1244 l 1,9,-1
 558 1244 l 1,10,-1
 554 1205 l 1,11,-1
 385 1182 l 1,12,-1
 385 495 l 2,13,14
 385 243 385 243 485.5 142.5 c 128,-1,15
 586 42 586 42 757.5 42 c 128,-1,16
 929 42 929 42 1023 146.5 c 128,-1,17
 1117 251 1117 251 1117 449 c 2,18,-1
 1117 1180 l 1,19,-1
 931 1205 l 1,20,-1
 936 1244 l 1,21,-1
 1361 1244 l 1,22,-1
 1353 1205 l 1,23,-1
 1187 1182 l 1,24,-1
 1184 490 l 2,25,26
 1183 236 1183 236 1075 104.5 c 128,-1,27
 967 -27 967 -27 724 -27 c 0,4,5
EndSplineSet
Colour: ffffff
EndChar

StartChar: Uogonek
Encoding: 370 370 104
Width: 1341
VWidth: 0
Flags: HMW
LayerCount: 2
Fore
SplineSet
385 495 m 2,0,1
 385 243 385 243 485.5 142.5 c 128,-1,2
 586 42 586 42 757.5 42 c 128,-1,3
 929 42 929 42 1023 146.5 c 128,-1,4
 1117 251 1117 251 1117 449 c 2,5,-1
 1117 1180 l 1,6,-1
 931 1205 l 1,7,-1
 936 1244 l 1,8,-1
 1361 1244 l 1,9,-1
 1353 1205 l 1,10,-1
 1187 1182 l 1,11,-1
 1184 490 l 2,12,13
 1183 283 1183 283 1112.5 157.5 c 128,-1,14
 1042 32 1042 32 887 -8 c 1,15,16
 816 -99 816 -99 816 -162 c 128,-1,17
 816 -225 816 -225 850.5 -268 c 128,-1,18
 885 -311 885 -311 957 -353 c 1,19,-1
 924 -387 l 1,20,21
 822 -376 822 -376 770 -326.5 c 128,-1,22
 718 -277 718 -277 718 -222.5 c 128,-1,23
 718 -168 718 -168 740 -124.5 c 128,-1,24
 762 -81 762 -81 822 -21 c 1,25,26
 776 -27 776 -27 714 -27 c 0,27,28
 652 -28 652 -28 589 -14 c 0,29,30
 449 16 449 16 365 128.5 c 128,-1,31
 281 241 281 241 281 462 c 2,32,-1
 281 1180 l 1,33,-1
 100 1205 l 1,34,-1
 104 1244 l 1,35,-1
 558 1244 l 1,36,-1
 554 1205 l 1,37,-1
 385 1182 l 1,38,-1
 385 495 l 2,0,1
EndSplineSet
Colour: ffffff
EndChar

StartChar: Uring
Encoding: 366 366 105
Width: 1341
VWidth: 0
Flags: HMW
LayerCount: 2
Fore
SplineSet
642 1512.5 m 128,-1,1
 642 1461 642 1461 668.5 1419.5 c 128,-1,2
 695 1378 695 1378 741 1378 c 128,-1,3
 787 1378 787 1378 812 1409 c 128,-1,4
 837 1440 837 1440 837 1495 c 128,-1,5
 837 1550 837 1550 808.5 1592 c 128,-1,6
 780 1634 780 1634 734 1634 c 128,-1,7
 688 1634 688 1634 665 1599 c 128,-1,0
 642 1564 642 1564 642 1512.5 c 128,-1,1
577 1500 m 128,-1,9
 577 1573 577 1573 626 1623.5 c 128,-1,10
 675 1674 675 1674 746 1674 c 128,-1,11
 817 1674 817 1674 860 1628.5 c 128,-1,12
 903 1583 903 1583 903 1512 c 128,-1,13
 903 1441 903 1441 855 1389 c 128,-1,14
 807 1337 807 1337 735 1337 c 128,-1,15
 663 1337 663 1337 620 1382 c 128,-1,8
 577 1427 577 1427 577 1500 c 128,-1,9
724 -27 m 0,16,17
 281 -27 281 -27 281 462 c 2,18,-1
 281 1180 l 1,19,-1
 100 1205 l 1,20,-1
 104 1244 l 1,21,-1
 558 1244 l 1,22,-1
 554 1205 l 1,23,-1
 385 1182 l 1,24,-1
 385 495 l 2,25,26
 385 243 385 243 485.5 142.5 c 128,-1,27
 586 42 586 42 757.5 42 c 128,-1,28
 929 42 929 42 1023 146.5 c 128,-1,29
 1117 251 1117 251 1117 449 c 2,30,-1
 1117 1180 l 1,31,-1
 931 1205 l 1,32,-1
 936 1244 l 1,33,-1
 1361 1244 l 1,34,-1
 1353 1205 l 1,35,-1
 1187 1182 l 1,36,-1
 1184 490 l 2,37,38
 1183 236 1183 236 1075 104.5 c 128,-1,39
 967 -27 967 -27 724 -27 c 0,16,17
EndSplineSet
Colour: ffffff
EndChar

StartChar: V
Encoding: 86 86 106
Width: 1282
VWidth: 0
Flags: HMW
LayerCount: 2
Fore
SplineSet
98 1208 m 1,0,-1
 102 1244 l 1,1,-1
 526 1244 l 1,2,-1
 522 1208 l 1,3,-1
 354 1182 l 1,4,-1
 700 160 l 1,5,-1
 1077 1178 l 1,6,-1
 891 1208 l 1,7,-1
 894 1244 l 1,8,-1
 1284 1244 l 1,9,-1
 1280 1208 l 1,10,-1
 1151 1182 l 1,11,-1
 710 -11 l 1,12,-1
 659 -26 l 1,13,-1
 245 1178 l 1,14,-1
 98 1208 l 1,0,-1
EndSplineSet
Colour: ffffff
EndChar

StartChar: W
Encoding: 87 87 107
Width: 1957
VWidth: 0
Flags: HMW
LayerCount: 2
Fore
SplineSet
98 1207 m 1,0,-1
 105 1244 l 1,1,-1
 498 1244 l 1,2,-1
 495 1212 l 1,3,-1
 330 1182 l 1,4,-1
 616 178 l 1,5,-1
 915 1202 l 1,6,-1
 961 1208 l 1,7,-1
 1244 178 l 1,8,-1
 1568 1175 l 1,9,-1
 1381 1210 l 1,10,-1
 1386 1244 l 1,11,-1
 1769 1244 l 1,12,-1
 1766 1208 l 1,13,-1
 1648 1178 l 1,14,-1
 1254 -13 l 1,15,-1
 1189 -26 l 1,16,-1
 921 990 l 1,17,-1
 626 -13 l 1,18,-1
 555 -25 l 1,19,-1
 220 1178 l 1,20,-1
 98 1207 l 1,0,-1
EndSplineSet
Colour: ffffff
EndChar

StartChar: Wacute
Encoding: 7810 7810 108
Width: 1957
VWidth: 0
Flags: HMW
LayerCount: 2
Fore
SplineSet
98 1207 m 1,0,-1
 105 1244 l 1,1,-1
 498 1244 l 1,2,-1
 495 1212 l 1,3,-1
 330 1182 l 1,4,-1
 616 178 l 1,5,-1
 915 1202 l 1,6,-1
 961 1208 l 1,7,-1
 1244 178 l 1,8,-1
 1568 1175 l 1,9,-1
 1381 1210 l 1,10,-1
 1386 1244 l 1,11,-1
 1769 1244 l 1,12,-1
 1766 1208 l 1,13,-1
 1648 1178 l 1,14,-1
 1254 -13 l 1,15,-1
 1189 -26 l 1,16,-1
 921 990 l 1,17,-1
 626 -13 l 1,18,-1
 555 -25 l 1,19,-1
 220 1178 l 1,20,-1
 98 1207 l 1,0,-1
910 1376 m 1,21,-1
 1042 1713 l 1,22,-1
 1138 1674 l 1,23,-1
 955 1350 l 1,24,-1
 910 1376 l 1,21,-1
EndSplineSet
Colour: ffffff
EndChar

StartChar: Wcircumflex
Encoding: 372 372 109
Width: 1957
VWidth: 0
Flags: HMW
LayerCount: 2
Fore
SplineSet
740 1331 m 1,0,-1
 907 1512 l 1,1,-1
 961 1525 l 1,2,-1
 1140 1339 l 1,3,-1
 1108 1302 l 1,4,-1
 927 1437 l 1,5,-1
 918 1437 l 1,6,-1
 761 1301 l 1,7,-1
 740 1331 l 1,0,-1
98 1207 m 1,8,-1
 105 1244 l 1,9,-1
 498 1244 l 1,10,-1
 495 1212 l 1,11,-1
 330 1182 l 1,12,-1
 616 178 l 1,13,-1
 915 1202 l 1,14,-1
 961 1208 l 1,15,-1
 1244 178 l 1,16,-1
 1568 1175 l 1,17,-1
 1381 1210 l 1,18,-1
 1386 1244 l 1,19,-1
 1769 1244 l 1,20,-1
 1766 1208 l 1,21,-1
 1648 1178 l 1,22,-1
 1254 -13 l 1,23,-1
 1189 -26 l 1,24,-1
 921 990 l 1,25,-1
 626 -13 l 1,26,-1
 555 -25 l 1,27,-1
 220 1178 l 1,28,-1
 98 1207 l 1,8,-1
EndSplineSet
Colour: ffffff
EndChar

StartChar: Wdieresis
Encoding: 7812 7812 110
Width: 1957
VWidth: 0
Flags: HMW
LayerCount: 2
Fore
SplineSet
98 1207 m 1,0,-1
 105 1244 l 1,1,-1
 498 1244 l 1,2,-1
 495 1212 l 1,3,-1
 330 1182 l 1,4,-1
 616 178 l 1,5,-1
 915 1202 l 1,6,-1
 961 1208 l 1,7,-1
 1244 178 l 1,8,-1
 1568 1175 l 1,9,-1
 1381 1210 l 1,10,-1
 1386 1244 l 1,11,-1
 1769 1244 l 1,12,-1
 1766 1208 l 1,13,-1
 1648 1178 l 1,14,-1
 1254 -13 l 1,15,-1
 1189 -26 l 1,16,-1
 921 990 l 1,17,-1
 626 -13 l 1,18,-1
 555 -25 l 1,19,-1
 220 1178 l 1,20,-1
 98 1207 l 1,0,-1
1032 1452.5 m 128,-1,22
 1032 1532 1032 1532 1088 1532 c 128,-1,23
 1144 1532 1144 1532 1144 1452.5 c 128,-1,24
 1144 1373 1144 1373 1088 1373 c 128,-1,21
 1032 1373 1032 1373 1032 1452.5 c 128,-1,22
820 1373 m 0,25,26
 763 1373 763 1373 763 1452.5 c 128,-1,27
 763 1532 763 1532 819.5 1532 c 128,-1,28
 876 1532 876 1532 876 1454 c 0,29,30
 876 1413 876 1413 863.5 1393 c 128,-1,31
 851 1373 851 1373 820 1373 c 0,25,26
EndSplineSet
Colour: ffffff
EndChar

StartChar: Wgrave
Encoding: 7808 7808 111
Width: 1957
VWidth: 0
Flags: HMW
LayerCount: 2
Fore
SplineSet
98 1207 m 1,0,-1
 105 1244 l 1,1,-1
 498 1244 l 1,2,-1
 495 1212 l 1,3,-1
 330 1182 l 1,4,-1
 616 178 l 1,5,-1
 915 1202 l 1,6,-1
 961 1208 l 1,7,-1
 1244 178 l 1,8,-1
 1568 1175 l 1,9,-1
 1381 1210 l 1,10,-1
 1386 1244 l 1,11,-1
 1769 1244 l 1,12,-1
 1766 1208 l 1,13,-1
 1648 1178 l 1,14,-1
 1254 -13 l 1,15,-1
 1189 -26 l 1,16,-1
 921 990 l 1,17,-1
 626 -13 l 1,18,-1
 555 -25 l 1,19,-1
 220 1178 l 1,20,-1
 98 1207 l 1,0,-1
746 1667 m 1,21,-1
 840 1704 l 1,22,-1
 973 1368 l 1,23,-1
 927 1341 l 1,24,-1
 746 1667 l 1,21,-1
EndSplineSet
Colour: ffffff
EndChar

StartChar: X
Encoding: 88 88 112
Width: 1196
VWidth: 0
Flags: HMW
LayerCount: 2
Fore
SplineSet
1171 1244 m 1,0,-1
 1171 1208 l 1,1,-1
 1045 1187 l 1,2,-1
 649 651 l 1,3,-1
 1063 53 l 1,4,-1
 1200 36 l 1,5,-1
 1193 0 l 1,6,-1
 768 0 l 1,7,-1
 772 27 l 1,8,-1
 935 60 l 1,9,-1
 581 571 l 1,10,-1
 206 60 l 1,11,-1
 371 42 l 1,12,-1
 363 0 l 1,13,-1
 -3 0 l 1,14,-1
 3 36 l 1,15,-1
 127 64 l 1,16,-1
 543 625 l 1,17,-1
 154 1184 l 1,18,-1
 18 1212 l 1,19,-1
 22 1244 l 1,20,-1
 442 1244 l 1,21,-1
 437 1212 l 1,22,-1
 281 1182 l 1,23,-1
 613 703 l 1,24,-1
 970 1184 l 1,25,-1
 798 1207 l 1,26,-1
 803 1244 l 1,27,-1
 1171 1244 l 1,0,-1
EndSplineSet
Colour: ffffff
EndChar

StartChar: Y
Encoding: 89 89 113
Width: 1103
VWidth: 0
Flags: HMW
LayerCount: 2
Fore
SplineSet
4 1207 m 1,0,-1
 8 1243 l 1,1,-1
 425 1243 l 1,2,-1
 421 1207 l 1,3,-1
 255 1181 l 1,4,-1
 568 571 l 1,5,-1
 878 1178 l 1,6,-1
 693 1208 l 1,7,-1
 695 1244 l 1,8,-1
 1085 1244 l 1,9,-1
 1082 1208 l 1,10,-1
 953 1182 l 1,11,-1
 604 489 l 1,12,-1
 604 67 l 1,13,-1
 785 46 l 1,14,-1
 777 0 l 1,15,-1
 317 0 l 1,16,-1
 323 42 l 1,17,-1
 498 72 l 1,18,-1
 498 489 l 1,19,-1
 143 1177 l 1,20,-1
 4 1207 l 1,0,-1
EndSplineSet
Colour: ffffff
EndChar

StartChar: Yacute
Encoding: 221 221 114
Width: 1103
VWidth: 0
Flags: HMW
LayerCount: 2
Fore
SplineSet
4 1207 m 1,0,-1
 8 1243 l 1,1,-1
 425 1243 l 1,2,-1
 421 1207 l 1,3,-1
 255 1181 l 1,4,-1
 568 571 l 1,5,-1
 878 1178 l 1,6,-1
 693 1208 l 1,7,-1
 695 1244 l 1,8,-1
 1085 1244 l 1,9,-1
 1082 1208 l 1,10,-1
 953 1182 l 1,11,-1
 604 489 l 1,12,-1
 604 67 l 1,13,-1
 785 46 l 1,14,-1
 777 0 l 1,15,-1
 317 0 l 1,16,-1
 323 42 l 1,17,-1
 498 72 l 1,18,-1
 498 489 l 1,19,-1
 143 1177 l 1,20,-1
 4 1207 l 1,0,-1
505 1376 m 1,21,-1
 637 1713 l 1,22,-1
 733 1674 l 1,23,-1
 550 1350 l 1,24,-1
 505 1376 l 1,21,-1
EndSplineSet
Colour: ffffff
EndChar

StartChar: Ycircumflex
Encoding: 374 374 115
Width: 1103
VWidth: 0
Flags: HMW
LayerCount: 2
Fore
SplineSet
351 1388 m 1,0,-1
 518 1569 l 1,1,-1
 572 1582 l 1,2,-1
 751 1396 l 1,3,-1
 719 1359 l 1,4,-1
 538 1494 l 1,5,-1
 529 1494 l 1,6,-1
 372 1358 l 1,7,-1
 351 1388 l 1,0,-1
4 1207 m 1,8,-1
 8 1243 l 1,9,-1
 425 1243 l 1,10,-1
 421 1207 l 1,11,-1
 255 1181 l 1,12,-1
 568 571 l 1,13,-1
 878 1178 l 1,14,-1
 693 1208 l 1,15,-1
 695 1244 l 1,16,-1
 1085 1244 l 1,17,-1
 1082 1208 l 1,18,-1
 953 1182 l 1,19,-1
 604 489 l 1,20,-1
 604 67 l 1,21,-1
 785 46 l 1,22,-1
 777 0 l 1,23,-1
 317 0 l 1,24,-1
 323 42 l 1,25,-1
 498 72 l 1,26,-1
 498 489 l 1,27,-1
 143 1177 l 1,28,-1
 4 1207 l 1,8,-1
EndSplineSet
Colour: ffffff
EndChar

StartChar: Ydieresis
Encoding: 376 376 116
Width: 1103
VWidth: 0
Flags: HMW
LayerCount: 2
Fore
SplineSet
632 1463.5 m 128,-1,1
 632 1543 632 1543 688 1543 c 128,-1,2
 744 1543 744 1543 744 1463.5 c 128,-1,3
 744 1384 744 1384 688 1384 c 128,-1,0
 632 1384 632 1384 632 1463.5 c 128,-1,1
420 1384 m 0,4,5
 363 1384 363 1384 363 1463.5 c 128,-1,6
 363 1543 363 1543 419.5 1543 c 128,-1,7
 476 1543 476 1543 476 1465 c 0,8,9
 476 1424 476 1424 463.5 1404 c 128,-1,10
 451 1384 451 1384 420 1384 c 0,4,5
4 1207 m 1,11,-1
 8 1243 l 1,12,-1
 425 1243 l 1,13,-1
 421 1207 l 1,14,-1
 255 1181 l 1,15,-1
 568 571 l 1,16,-1
 878 1178 l 1,17,-1
 693 1208 l 1,18,-1
 695 1244 l 1,19,-1
 1085 1244 l 1,20,-1
 1082 1208 l 1,21,-1
 953 1182 l 1,22,-1
 604 489 l 1,23,-1
 604 67 l 1,24,-1
 785 46 l 1,25,-1
 777 0 l 1,26,-1
 317 0 l 1,27,-1
 323 42 l 1,28,-1
 498 72 l 1,29,-1
 498 489 l 1,30,-1
 143 1177 l 1,31,-1
 4 1207 l 1,11,-1
EndSplineSet
Colour: ffffff
EndChar

StartChar: Ygrave
Encoding: 7922 7922 117
Width: 1103
VWidth: 0
Flags: HMW
LayerCount: 2
Fore
SplineSet
4 1207 m 1,0,-1
 8 1243 l 1,1,-1
 425 1243 l 1,2,-1
 421 1207 l 1,3,-1
 255 1181 l 1,4,-1
 568 571 l 1,5,-1
 878 1178 l 1,6,-1
 693 1208 l 1,7,-1
 695 1244 l 1,8,-1
 1085 1244 l 1,9,-1
 1082 1208 l 1,10,-1
 953 1182 l 1,11,-1
 604 489 l 1,12,-1
 604 67 l 1,13,-1
 785 46 l 1,14,-1
 777 0 l 1,15,-1
 317 0 l 1,16,-1
 323 42 l 1,17,-1
 498 72 l 1,18,-1
 498 489 l 1,19,-1
 143 1177 l 1,20,-1
 4 1207 l 1,0,-1
382 1667 m 1,21,-1
 476 1704 l 1,22,-1
 609 1368 l 1,23,-1
 563 1341 l 1,24,-1
 382 1667 l 1,21,-1
EndSplineSet
Colour: ffffff
EndChar

StartChar: Z
Encoding: 90 90 118
Width: 1005
VWidth: 0
Flags: HMW
LayerCount: 2
Fore
SplineSet
43 37 m 1,0,-1
 845 1189 l 1,1,-1
 209 1189 l 1,2,-1
 131 903 l 1,3,-1
 91 914 l 1,4,-1
 100 1244 l 1,5,-1
 976 1244 l 1,6,-1
 981 1207 l 1,7,-1
 176 58 l 1,8,-1
 843 58 l 1,9,-1
 949 342 l 1,10,-1
 993 335 l 1,11,-1
 953 0 l 1,12,-1
 48 0 l 1,13,-1
 43 37 l 1,0,-1
EndSplineSet
Colour: ffffff
EndChar

StartChar: Zacute
Encoding: 377 377 119
Width: 1005
VWidth: 0
Flags: HMW
LayerCount: 2
Fore
SplineSet
43 37 m 1,0,-1
 845 1189 l 1,1,-1
 209 1189 l 1,2,-1
 131 903 l 1,3,-1
 91 914 l 1,4,-1
 100 1244 l 1,5,-1
 976 1244 l 1,6,-1
 981 1207 l 1,7,-1
 176 58 l 1,8,-1
 843 58 l 1,9,-1
 949 342 l 1,10,-1
 993 335 l 1,11,-1
 953 0 l 1,12,-1
 48 0 l 1,13,-1
 43 37 l 1,0,-1
472 1376 m 1,14,-1
 604 1713 l 1,15,-1
 700 1674 l 1,16,-1
 517 1350 l 1,17,-1
 472 1376 l 1,14,-1
EndSplineSet
Colour: ffffff
EndChar

StartChar: Zcaron
Encoding: 381 381 120
Width: 1005
VWidth: 0
Flags: HMW
LayerCount: 2
Fore
SplineSet
43 37 m 1,0,-1
 845 1189 l 1,1,-1
 209 1189 l 1,2,-1
 131 903 l 1,3,-1
 91 914 l 1,4,-1
 100 1244 l 1,5,-1
 976 1244 l 1,6,-1
 981 1207 l 1,7,-1
 176 58 l 1,8,-1
 843 58 l 1,9,-1
 949 342 l 1,10,-1
 993 335 l 1,11,-1
 953 0 l 1,12,-1
 48 0 l 1,13,-1
 43 37 l 1,0,-1
318 1543 m 1,14,-1
 373 1592 l 1,15,-1
 539 1423 l 1,16,-1
 548 1423 l 1,17,-1
 691 1588 l 1,18,-1
 727 1561 l 1,19,-1
 553 1377 l 1,20,-1
 497 1363 l 1,21,-1
 318 1543 l 1,14,-1
EndSplineSet
Colour: ffffff
EndChar

StartChar: Zdotaccent
Encoding: 379 379 121
Width: 1005
VWidth: 0
Flags: HMW
LayerCount: 2
Fore
SplineSet
43 37 m 1,0,-1
 845 1189 l 1,1,-1
 209 1189 l 1,2,-1
 131 903 l 1,3,-1
 91 914 l 1,4,-1
 100 1244 l 1,5,-1
 976 1244 l 1,6,-1
 981 1207 l 1,7,-1
 176 58 l 1,8,-1
 843 58 l 1,9,-1
 949 342 l 1,10,-1
 993 335 l 1,11,-1
 953 0 l 1,12,-1
 48 0 l 1,13,-1
 43 37 l 1,0,-1
538 1382 m 128,-1,15
 475 1382 475 1382 475 1482 c 128,-1,16
 475 1582 475 1582 538 1582 c 128,-1,17
 601 1582 601 1582 601 1482 c 128,-1,14
 601 1382 601 1382 538 1382 c 128,-1,15
EndSplineSet
Colour: ffffff
EndChar

StartChar: a
Encoding: 97 97 122
Width: 864
VWidth: 0
Flags: HMW
LayerCount: 2
Fore
SplineSet
238 190 m 0,0,1
 238 135 238 135 276 89 c 128,-1,2
 314 43 314 43 380.5 43 c 128,-1,3
 447 43 447 43 505.5 82.5 c 128,-1,4
 564 122 564 122 601 185 c 1,5,-1
 601 432 l 1,6,7
 383 399 383 399 310 344 c 0,8,9
 238 288 238 288 238 190 c 0,0,1
138 169 m 0,10,11
 138 296 138 296 254.5 379.5 c 128,-1,12
 371 463 371 463 601 477 c 1,13,-1
 601 516 l 2,14,15
 601 681 601 681 561 753.5 c 128,-1,16
 521 826 521 826 410 826 c 0,17,18
 334 826 334 826 300.5 770 c 128,-1,19
 267 714 267 714 254 609 c 1,20,21
 219 609 219 609 195.5 626.5 c 128,-1,22
 172 644 172 644 172 676 c 0,23,24
 172 752 172 752 265.5 814.5 c 128,-1,25
 359 877 359 877 469 877 c 0,26,27
 691 877 691 877 691 569 c 2,28,-1
 691 229 l 2,29,30
 691 137 691 137 699.5 117 c 128,-1,31
 708 97 708 97 721 78 c 0,32,33
 734 59 734 59 779 50 c 2,34,-1
 845 37 l 1,35,-1
 840 3 l 1,36,37
 793 -18 793 -18 736.5 -18 c 128,-1,38
 680 -18 680 -18 647 21 c 128,-1,39
 614 60 614 60 614 117 c 2,40,-1
 614 130 l 1,41,-1
 609 130 l 1,42,43
 590 76 590 76 515.5 25 c 128,-1,44
 441 -26 441 -26 351.5 -26 c 128,-1,45
 262 -26 262 -26 200 27.5 c 128,-1,46
 138 81 138 81 138 169 c 0,10,11
EndSplineSet
Colour: ffffff
EndChar

StartChar: aacute
Encoding: 225 225 123
Width: 864
VWidth: 0
Flags: HMW
LayerCount: 2
Fore
SplineSet
238 190 m 0,0,1
 238 135 238 135 276 89 c 128,-1,2
 314 43 314 43 380.5 43 c 128,-1,3
 447 43 447 43 505.5 82.5 c 128,-1,4
 564 122 564 122 601 185 c 1,5,-1
 601 432 l 1,6,7
 383 399 383 399 310 344 c 0,8,9
 238 288 238 288 238 190 c 0,0,1
138 169 m 0,10,11
 138 296 138 296 254.5 379.5 c 128,-1,12
 371 463 371 463 601 477 c 1,13,-1
 601 516 l 2,14,15
 601 681 601 681 561 753.5 c 128,-1,16
 521 826 521 826 410 826 c 0,17,18
 334 826 334 826 300.5 770 c 128,-1,19
 267 714 267 714 254 609 c 1,20,21
 219 609 219 609 195.5 626.5 c 128,-1,22
 172 644 172 644 172 676 c 0,23,24
 172 752 172 752 265.5 814.5 c 128,-1,25
 359 877 359 877 469 877 c 0,26,27
 691 877 691 877 691 569 c 2,28,-1
 691 229 l 2,29,30
 691 137 691 137 699.5 117 c 128,-1,31
 708 97 708 97 721 78 c 0,32,33
 734 59 734 59 779 50 c 2,34,-1
 845 37 l 1,35,-1
 840 3 l 1,36,37
 793 -18 793 -18 736.5 -18 c 128,-1,38
 680 -18 680 -18 647 21 c 128,-1,39
 614 60 614 60 614 117 c 2,40,-1
 614 130 l 1,41,-1
 609 130 l 1,42,43
 590 76 590 76 515.5 25 c 128,-1,44
 441 -26 441 -26 351.5 -26 c 128,-1,45
 262 -26 262 -26 200 27.5 c 128,-1,46
 138 81 138 81 138 169 c 0,10,11
396 1007 m 1,47,-1
 528 1344 l 1,48,-1
 624 1305 l 1,49,-1
 441 981 l 1,50,-1
 396 1007 l 1,47,-1
EndSplineSet
Colour: ffffff
EndChar

StartChar: abreve
Encoding: 259 259 124
Width: 864
VWidth: 0
Flags: HMW
LayerCount: 2
Fore
SplineSet
238 190 m 0,0,1
 238 135 238 135 276 89 c 128,-1,2
 314 43 314 43 380.5 43 c 128,-1,3
 447 43 447 43 505.5 82.5 c 128,-1,4
 564 122 564 122 601 185 c 1,5,-1
 601 432 l 1,6,7
 383 399 383 399 310.5 343.5 c 128,-1,8
 238 288 238 288 238 190 c 0,0,1
138 169 m 0,9,10
 138 296 138 296 254.5 379.5 c 128,-1,11
 371 463 371 463 601 477 c 1,12,-1
 601 516 l 2,13,14
 601 681 601 681 561 753.5 c 128,-1,15
 521 826 521 826 410 826 c 0,16,17
 334 826 334 826 300.5 770 c 128,-1,18
 267 714 267 714 254 609 c 1,19,20
 219 609 219 609 195.5 626.5 c 128,-1,21
 172 644 172 644 172 676 c 0,22,23
 172 752 172 752 265.5 814.5 c 128,-1,24
 359 877 359 877 469 877 c 0,25,26
 691 877 691 877 691 569 c 2,27,-1
 691 229 l 2,28,29
 691 137 691 137 699.5 117 c 128,-1,30
 708 97 708 97 721 78 c 128,-1,31
 734 59 734 59 779 50 c 2,32,-1
 845 37 l 1,33,-1
 840 3 l 1,34,35
 793 -18 793 -18 736.5 -18 c 128,-1,36
 680 -18 680 -18 647 21 c 128,-1,37
 614 60 614 60 614 117 c 2,38,-1
 614 130 l 1,39,-1
 609 130 l 1,40,41
 590 76 590 76 515.5 25 c 128,-1,42
 441 -26 441 -26 351.5 -26 c 128,-1,43
 262 -26 262 -26 200 27.5 c 128,-1,44
 138 81 138 81 138 169 c 0,9,10
440.5 1087 m 128,-1,46
 537 1087 537 1087 607 1216 c 1,47,-1
 630 1195 l 1,48,49
 570 1012 570 1012 431.5 1012 c 128,-1,50
 293 1012 293 1012 248 1190 c 1,51,-1
 278 1214 l 1,52,45
 344 1087 344 1087 440.5 1087 c 128,-1,46
EndSplineSet
Colour: ffffff
EndChar

StartChar: acaron
Encoding: 462 462 125
Width: 864
VWidth: 0
Flags: HMW
LayerCount: 2
Fore
SplineSet
238 190 m 0,0,1
 238 135 238 135 276 89 c 128,-1,2
 314 43 314 43 380.5 43 c 128,-1,3
 447 43 447 43 505.5 82.5 c 128,-1,4
 564 122 564 122 601 185 c 1,5,-1
 601 432 l 1,6,7
 383 399 383 399 310 344 c 0,8,9
 238 288 238 288 238 190 c 0,0,1
138 169 m 0,10,11
 138 296 138 296 254.5 379.5 c 128,-1,12
 371 463 371 463 601 477 c 1,13,-1
 601 516 l 2,14,15
 601 681 601 681 561 753.5 c 128,-1,16
 521 826 521 826 410 826 c 0,17,18
 334 826 334 826 300.5 770 c 128,-1,19
 267 714 267 714 254 609 c 1,20,21
 219 609 219 609 195.5 626.5 c 128,-1,22
 172 644 172 644 172 676 c 0,23,24
 172 752 172 752 265.5 814.5 c 128,-1,25
 359 877 359 877 469 877 c 0,26,27
 691 877 691 877 691 569 c 2,28,-1
 691 229 l 2,29,30
 691 137 691 137 699.5 117 c 128,-1,31
 708 97 708 97 721 78 c 0,32,33
 734 59 734 59 779 50 c 2,34,-1
 845 37 l 1,35,-1
 840 3 l 1,36,37
 793 -18 793 -18 736.5 -18 c 128,-1,38
 680 -18 680 -18 647 21 c 128,-1,39
 614 60 614 60 614 117 c 2,40,-1
 614 130 l 1,41,-1
 609 130 l 1,42,43
 590 76 590 76 515.5 25 c 128,-1,44
 441 -26 441 -26 351.5 -26 c 128,-1,45
 262 -26 262 -26 200 27.5 c 128,-1,46
 138 81 138 81 138 169 c 0,10,11
240 1174 m 1,47,-1
 295 1223 l 1,48,-1
 461 1054 l 1,49,-1
 470 1054 l 1,50,-1
 613 1219 l 1,51,-1
 649 1192 l 1,52,-1
 475 1008 l 1,53,-1
 419 994 l 1,54,-1
 240 1174 l 1,47,-1
EndSplineSet
Colour: ffffff
EndChar

StartChar: acircumflex
Encoding: 226 226 126
Width: 864
VWidth: 0
Flags: HMW
LayerCount: 2
Fore
SplineSet
238 190 m 0,0,1
 238 135 238 135 276 89 c 128,-1,2
 314 43 314 43 380.5 43 c 128,-1,3
 447 43 447 43 505.5 82.5 c 128,-1,4
 564 122 564 122 601 185 c 1,5,-1
 601 432 l 1,6,7
 383 399 383 399 310 344 c 0,8,9
 238 288 238 288 238 190 c 0,0,1
138 169 m 0,10,11
 138 296 138 296 254.5 379.5 c 128,-1,12
 371 463 371 463 601 477 c 1,13,-1
 601 516 l 2,14,15
 601 681 601 681 561 753.5 c 128,-1,16
 521 826 521 826 410 826 c 0,17,18
 334 826 334 826 300.5 770 c 128,-1,19
 267 714 267 714 254 609 c 1,20,21
 219 609 219 609 195.5 626.5 c 128,-1,22
 172 644 172 644 172 676 c 0,23,24
 172 752 172 752 265.5 814.5 c 128,-1,25
 359 877 359 877 469 877 c 0,26,27
 691 877 691 877 691 569 c 2,28,-1
 691 229 l 2,29,30
 691 137 691 137 699.5 117 c 128,-1,31
 708 97 708 97 721 78 c 0,32,33
 734 59 734 59 779 50 c 2,34,-1
 845 37 l 1,35,-1
 840 3 l 1,36,37
 793 -18 793 -18 736.5 -18 c 128,-1,38
 680 -18 680 -18 647 21 c 128,-1,39
 614 60 614 60 614 117 c 2,40,-1
 614 130 l 1,41,-1
 609 130 l 1,42,43
 590 76 590 76 515.5 25 c 128,-1,44
 441 -26 441 -26 351.5 -26 c 128,-1,45
 262 -26 262 -26 200 27.5 c 128,-1,46
 138 81 138 81 138 169 c 0,10,11
248 1025 m 1,47,-1
 415 1206 l 1,48,-1
 469 1219 l 1,49,-1
 648 1033 l 1,50,-1
 616 996 l 1,51,-1
 435 1131 l 1,52,-1
 426 1131 l 1,53,-1
 269 995 l 1,54,-1
 248 1025 l 1,47,-1
EndSplineSet
Colour: ffffff
EndChar

StartChar: acute
Encoding: 180 180 127
Width: 613
VWidth: 0
Flags: HMW
LayerCount: 2
Fore
SplineSet
227 1370 m 1,0,-1
 359 1707 l 1,1,-1
 455 1668 l 1,2,-1
 272 1344 l 1,3,-1
 227 1370 l 1,0,-1
EndSplineSet
Colour: ffffff
EndChar

StartChar: adieresis
Encoding: 228 228 128
Width: 864
VWidth: 0
Flags: HMW
LayerCount: 2
Fore
SplineSet
238 190 m 0,0,1
 238 135 238 135 276 89 c 128,-1,2
 314 43 314 43 380.5 43 c 128,-1,3
 447 43 447 43 505.5 82.5 c 128,-1,4
 564 122 564 122 601 185 c 1,5,-1
 601 432 l 1,6,7
 383 399 383 399 310 344 c 0,8,9
 238 288 238 288 238 190 c 0,0,1
138 169 m 0,10,11
 138 296 138 296 254.5 379.5 c 128,-1,12
 371 463 371 463 601 477 c 1,13,-1
 601 516 l 2,14,15
 601 681 601 681 561 753.5 c 128,-1,16
 521 826 521 826 410 826 c 0,17,18
 334 826 334 826 300.5 770 c 128,-1,19
 267 714 267 714 254 609 c 1,20,21
 219 609 219 609 195.5 626.5 c 128,-1,22
 172 644 172 644 172 676 c 0,23,24
 172 752 172 752 265.5 814.5 c 128,-1,25
 359 877 359 877 469 877 c 0,26,27
 691 877 691 877 691 569 c 2,28,-1
 691 229 l 2,29,30
 691 137 691 137 699.5 117 c 128,-1,31
 708 97 708 97 721 78 c 0,32,33
 734 59 734 59 779 50 c 2,34,-1
 845 37 l 1,35,-1
 840 3 l 1,36,37
 793 -18 793 -18 736.5 -18 c 128,-1,38
 680 -18 680 -18 647 21 c 128,-1,39
 614 60 614 60 614 117 c 2,40,-1
 614 130 l 1,41,-1
 609 130 l 1,42,43
 590 76 590 76 515.5 25 c 128,-1,44
 441 -26 441 -26 351.5 -26 c 128,-1,45
 262 -26 262 -26 200 27.5 c 128,-1,46
 138 81 138 81 138 169 c 0,10,11
523 1083.5 m 128,-1,48
 523 1163 523 1163 579 1163 c 128,-1,49
 635 1163 635 1163 635 1083.5 c 128,-1,50
 635 1004 635 1004 579 1004 c 128,-1,47
 523 1004 523 1004 523 1083.5 c 128,-1,48
311 1004 m 0,51,52
 254 1004 254 1004 254 1083.5 c 128,-1,53
 254 1163 254 1163 310.5 1163 c 128,-1,54
 367 1163 367 1163 367 1085 c 0,55,56
 367 1044 367 1044 354.5 1024 c 128,-1,57
 342 1004 342 1004 311 1004 c 0,51,52
EndSplineSet
Colour: ffffff
EndChar

StartChar: ae
Encoding: 230 230 129
Width: 1257
VWidth: 0
Flags: HMW
LayerCount: 2
Fore
SplineSet
1083 616.5 m 128,-1,1
 1083 695 1083 695 1030.5 756.5 c 128,-1,2
 978 818 978 818 905 818 c 0,3,4
 806 818 806 818 746 724.5 c 128,-1,5
 686 631 686 631 686 476 c 1,6,-1
 1073 514 l 1,7,0
 1083 538 1083 538 1083 616.5 c 128,-1,1
236 187 m 0,8,9
 236 132 236 132 274.5 87 c 128,-1,10
 313 42 313 42 385.5 42 c 128,-1,11
 458 42 458 42 529 102 c 128,-1,12
 600 162 600 162 600 248 c 2,13,-1
 600 424 l 1,14,15
 380 392 380 392 308 338.5 c 128,-1,16
 236 285 236 285 236 187 c 0,8,9
138 169 m 0,17,18
 138 293 138 293 247 366.5 c 128,-1,19
 356 440 356 440 600 467 c 1,20,-1
 600 538 l 2,21,22
 600 699 600 699 560.5 762 c 128,-1,23
 521 825 521 825 408 825 c 0,24,25
 332 825 332 825 299 769.5 c 128,-1,26
 266 714 266 714 253 609 c 1,27,28
 172 609 172 609 172 673 c 0,29,30
 172 749 172 749 264.5 812 c 128,-1,31
 357 875 357 875 449 875 c 0,32,33
 640 875 640 875 679 718 c 1,34,35
 776 874 776 874 954 874 c 0,36,37
 1187 874 1187 874 1187 573 c 0,38,39
 1187 515 1187 515 1171 451 c 1,40,-1
 685 429 l 1,41,42
 685 255 685 255 758 154 c 128,-1,43
 831 53 831 53 971 53 c 128,-1,44
 1111 53 1111 53 1195 137 c 1,45,-1
 1213 104 l 1,46,47
 1111 -29 1111 -29 925 -29 c 0,48,49
 845 -29 845 -29 755 28 c 128,-1,50
 665 85 665 85 632 169 c 1,51,52
 617 114 617 114 538 43.5 c 128,-1,53
 459 -27 459 -27 360 -27 c 128,-1,54
 261 -27 261 -27 199.5 27 c 128,-1,55
 138 81 138 81 138 169 c 0,17,18
EndSplineSet
Colour: ffffff
EndChar

StartChar: agrave
Encoding: 224 224 130
Width: 864
VWidth: 0
Flags: HMW
LayerCount: 2
Fore
SplineSet
238 190 m 0,0,1
 238 135 238 135 276 89 c 128,-1,2
 314 43 314 43 380.5 43 c 128,-1,3
 447 43 447 43 505.5 82.5 c 128,-1,4
 564 122 564 122 601 185 c 1,5,-1
 601 432 l 1,6,7
 383 399 383 399 310 344 c 0,8,9
 238 288 238 288 238 190 c 0,0,1
138 169 m 0,10,11
 138 296 138 296 254.5 379.5 c 128,-1,12
 371 463 371 463 601 477 c 1,13,-1
 601 516 l 2,14,15
 601 681 601 681 561 753.5 c 128,-1,16
 521 826 521 826 410 826 c 0,17,18
 334 826 334 826 300.5 770 c 128,-1,19
 267 714 267 714 254 609 c 1,20,21
 219 609 219 609 195.5 626.5 c 128,-1,22
 172 644 172 644 172 676 c 0,23,24
 172 752 172 752 265.5 814.5 c 128,-1,25
 359 877 359 877 469 877 c 0,26,27
 691 877 691 877 691 569 c 2,28,-1
 691 229 l 2,29,30
 691 137 691 137 699.5 117 c 128,-1,31
 708 97 708 97 721 78 c 0,32,33
 734 59 734 59 779 50 c 2,34,-1
 845 37 l 1,35,-1
 840 3 l 1,36,37
 793 -18 793 -18 736.5 -18 c 128,-1,38
 680 -18 680 -18 647 21 c 128,-1,39
 614 60 614 60 614 117 c 2,40,-1
 614 130 l 1,41,-1
 609 130 l 1,42,43
 590 76 590 76 515.5 25 c 128,-1,44
 441 -26 441 -26 351.5 -26 c 128,-1,45
 262 -26 262 -26 200 27.5 c 128,-1,46
 138 81 138 81 138 169 c 0,10,11
277 1298 m 1,47,-1
 371 1335 l 1,48,-1
 504 999 l 1,49,-1
 458 972 l 1,50,-1
 277 1298 l 1,47,-1
EndSplineSet
Colour: ffffff
EndChar

StartChar: amacron
Encoding: 257 257 131
Width: 864
VWidth: 0
Flags: HMW
LayerCount: 2
Fore
SplineSet
238 190 m 0,0,1
 238 135 238 135 276 89 c 128,-1,2
 314 43 314 43 380.5 43 c 128,-1,3
 447 43 447 43 505.5 82.5 c 128,-1,4
 564 122 564 122 601 185 c 1,5,-1
 601 432 l 1,6,7
 383 399 383 399 310 344 c 0,8,9
 238 288 238 288 238 190 c 0,0,1
138 169 m 0,10,11
 138 296 138 296 254.5 379.5 c 128,-1,12
 371 463 371 463 601 477 c 1,13,-1
 601 516 l 2,14,15
 601 681 601 681 561 753.5 c 128,-1,16
 521 826 521 826 410 826 c 0,17,18
 334 826 334 826 300.5 770 c 128,-1,19
 267 714 267 714 254 609 c 1,20,21
 219 609 219 609 195.5 626.5 c 128,-1,22
 172 644 172 644 172 676 c 0,23,24
 172 752 172 752 265.5 814.5 c 128,-1,25
 359 877 359 877 469 877 c 0,26,27
 691 877 691 877 691 569 c 2,28,-1
 691 229 l 2,29,30
 691 137 691 137 699.5 117 c 128,-1,31
 708 97 708 97 721 78 c 0,32,33
 734 59 734 59 779 50 c 2,34,-1
 845 37 l 1,35,-1
 840 3 l 1,36,37
 793 -18 793 -18 736.5 -18 c 128,-1,38
 680 -18 680 -18 647 21 c 128,-1,39
 614 60 614 60 614 117 c 2,40,-1
 614 130 l 1,41,-1
 609 130 l 1,42,43
 590 76 590 76 515.5 25 c 128,-1,44
 441 -26 441 -26 351.5 -26 c 128,-1,45
 262 -26 262 -26 200 27.5 c 128,-1,46
 138 81 138 81 138 169 c 0,10,11
218 1017 m 1,47,-1
 227 1069 l 1,48,-1
 667 1069 l 1,49,-1
 659 1017 l 1,50,-1
 218 1017 l 1,47,-1
EndSplineSet
Colour: ffffff
EndChar

StartChar: ampersand
Encoding: 38 38 132
Width: 1282
VWidth: 0
Flags: HMW
LayerCount: 2
Fore
SplineSet
323 1026 m 0,0,1
 323 922 323 922 477 731 c 1,2,3
 572 803 572 803 623 865.5 c 128,-1,4
 674 928 674 928 674 1007.5 c 128,-1,5
 674 1087 674 1087 620.5 1149.5 c 128,-1,6
 567 1212 567 1212 492.5 1212 c 128,-1,7
 418 1212 418 1212 370.5 1156.5 c 128,-1,8
 323 1101 323 1101 323 1026 c 0,0,1
190 281 m 0,9,10
 190 191 190 191 253 128 c 128,-1,11
 316 65 316 65 408 65 c 0,12,13
 578 65 578 65 721 290 c 1,14,-1
 438 622 l 1,15,-1
 435 622 l 1,16,17
 246 480 246 480 208 380 c 0,18,19
 190 332 190 332 190 281 c 0,9,10
78 243 m 0,20,21
 78 425 78 425 302 600 c 0,22,23
 334 625 334 625 396 672 c 1,24,25
 245 855 245 855 245 975 c 128,-1,26
 245 1095 245 1095 324 1183.5 c 128,-1,27
 403 1272 403 1272 519.5 1272 c 128,-1,28
 636 1272 636 1272 704.5 1204 c 128,-1,29
 773 1136 773 1136 773 1021 c 128,-1,30
 773 906 773 906 665 802 c 0,31,32
 605 745 605 745 520 683 c 1,33,-1
 520 680 l 1,34,-1
 775 385 l 1,35,-1
 963 721 l 1,36,-1
 802 752 l 1,37,-1
 804 786 l 1,38,-1
 1220 786 l 1,39,-1
 1215 752 l 1,40,-1
 1047 723 l 1,41,-1
 824 332 l 1,42,43
 1001 100 1001 100 1169 47 c 1,44,-1
 1215 34 l 1,45,-1
 1208 -3 l 1,46,47
 1159 -20 1159 -20 1104 -20 c 128,-1,48
 1049 -20 1049 -20 982.5 20.5 c 128,-1,49
 916 61 916 61 870 116 c 2,50,-1
 767 236 l 1,51,52
 596 -20 596 -20 365 -20 c 0,53,54
 235 -20 235 -20 156.5 55.5 c 128,-1,55
 78 131 78 131 78 243 c 0,20,21
EndSplineSet
Colour: ffffff
EndChar

StartChar: ampersand.osf
Encoding: 65537 -1 133
Width: 1282
VWidth: 0
Flags: HMW
LayerCount: 2
Fore
SplineSet
281 220 m 128,-1,1
 281 147 281 147 326.5 97 c 128,-1,2
 372 47 372 47 449 47 c 0,3,4
 573 47 573 47 666 168 c 1,5,-1
 439 445 l 1,6,7
 362 389 362 389 321.5 341 c 128,-1,0
 281 293 281 293 281 220 c 128,-1,1
167 194 m 0,8,9
 167 228 167 228 174.5 254.5 c 128,-1,10
 182 281 182 281 192.5 302 c 128,-1,11
 203 323 203 323 223 346 c 0,12,13
 261 390 261 390 301.5 420.5 c 128,-1,14
 342 451 342 451 401 490 c 1,15,16
 336 569 336 569 302 628.5 c 128,-1,17
 268 688 268 688 268 761.5 c 128,-1,18
 268 835 268 835 339.5 903 c 128,-1,19
 411 971 411 971 508 971 c 128,-1,20
 605 971 605 971 663.5 919 c 128,-1,21
 722 867 722 867 722 782.5 c 128,-1,22
 722 698 722 698 664 631.5 c 128,-1,23
 606 565 606 565 518 502 c 1,24,25
 519 500 519 500 521 498 c 2,26,-1
 711 269 l 2,27,28
 717 262 717 262 722 255 c 1,29,30
 774 348 774 348 842 520 c 1,31,-1
 718 550 l 1,32,-1
 721 583 l 1,33,-1
 1062 583 l 1,34,-1
 1058 550 l 1,35,-1
 917 523 l 1,36,37
 900 488 900 488 848.5 372.5 c 128,-1,38
 797 257 797 257 767 204 c 1,39,40
 836 128 836 128 884.5 97 c 128,-1,41
 933 66 933 66 997 47 c 1,42,-1
 1044 34 l 1,43,-1
 1038 -3 l 1,44,45
 989 -20 989 -20 943 -20 c 0,46,47
 820 -20 820 -20 708 116 c 1,48,49
 598 -20 598 -20 415 -20 c 128,-1,50
 232 -20 232 -20 180 122 c 0,51,52
 166 160 166 160 167 194 c 0,8,9
628 762.5 m 128,-1,54
 628 826 628 826 590 871.5 c 128,-1,55
 552 917 552 917 490 917 c 128,-1,56
 428 917 428 917 392 878.5 c 128,-1,57
 356 840 356 840 356 782 c 128,-1,58
 356 724 356 724 389 670 c 128,-1,59
 422 616 422 616 481 545 c 1,60,61
 551 596 551 596 589.5 647.5 c 128,-1,53
 628 699 628 699 628 762.5 c 128,-1,54
EndSplineSet
Colour: ffffff
EndChar

StartChar: aogonek
Encoding: 261 261 134
Width: 864
VWidth: 0
Flags: HMW
LayerCount: 2
Fore
SplineSet
238 190 m 0,0,1
 238 135 238 135 276 89 c 128,-1,2
 314 43 314 43 380.5 43 c 128,-1,3
 447 43 447 43 505.5 82.5 c 128,-1,4
 564 122 564 122 601 185 c 1,5,-1
 601 432 l 1,6,7
 383 399 383 399 310.5 343.5 c 128,-1,8
 238 288 238 288 238 190 c 0,0,1
637 -200 m 128,-1,10
 637 -123 637 -123 744 -18 c 1,11,12
 741 -18 741 -18 739 -18 c 0,13,14
 680 -18 680 -18 647 21 c 128,-1,15
 614 60 614 60 614 117 c 2,16,-1
 614 130 l 1,17,-1
 609 130 l 1,18,19
 590 76 590 76 515.5 25 c 128,-1,20
 441 -26 441 -26 351.5 -26 c 128,-1,21
 262 -26 262 -26 200 27.5 c 128,-1,22
 138 81 138 81 138 169 c 0,23,24
 138 296 138 296 254.5 379.5 c 128,-1,25
 371 463 371 463 601 477 c 1,26,-1
 601 516 l 2,27,28
 601 681 601 681 561 753.5 c 128,-1,29
 521 826 521 826 410 826 c 0,30,31
 334 826 334 826 300.5 770 c 128,-1,32
 267 714 267 714 254 609 c 1,33,34
 219 609 219 609 195.5 626.5 c 128,-1,35
 172 644 172 644 172 676 c 0,36,37
 172 752 172 752 265.5 814.5 c 128,-1,38
 359 877 359 877 469 877 c 0,39,40
 691 877 691 877 691 569 c 2,41,-1
 691 229 l 2,42,43
 691 137 691 137 699.5 117 c 128,-1,44
 708 97 708 97 721 78 c 128,-1,45
 734 59 734 59 779 50 c 2,46,-1
 845 37 l 1,47,-1
 840 3 l 1,48,49
 825 -4 825 -4 805 -9 c 1,50,51
 735 -99 735 -99 735 -162 c 128,-1,52
 735 -225 735 -225 769.5 -268 c 128,-1,53
 804 -311 804 -311 876 -353 c 1,54,-1
 843 -387 l 1,55,56
 741 -376 741 -376 689 -326.5 c 128,-1,9
 637 -277 637 -277 637 -200 c 128,-1,10
EndSplineSet
Colour: ffffff
EndChar

StartChar: approxequal
Encoding: 8776 8776 135
Width: 985
VWidth: 0
Flags: HMW
LayerCount: 2
Fore
SplineSet
82 292 m 1,0,1
 127 443 127 443 229 481 c 0,2,3
 272 497 272 497 321 484 c 2,4,-1
 670 386 l 2,5,6
 726 370 726 370 764 408 c 0,7,8
 802 446 802 446 822 490 c 1,9,-1
 868 489 l 1,10,11
 822 332 822 332 716 292 c 0,12,13
 672 276 672 276 622 289 c 2,14,-1
 274 386 l 2,15,16
 209 404 209 404 149 324 c 0,17,18
 135 306 135 306 121 278 c 1,19,-1
 82 292 l 1,0,1
82 549 m 1,20,21
 127 700 127 700 229 738 c 0,22,23
 272 754 272 754 321 741 c 2,24,-1
 670 643 l 2,25,26
 726 627 726 627 764 665 c 0,27,28
 802 703 802 703 822 747 c 1,29,-1
 868 746 l 1,30,31
 822 590 822 590 716 550 c 0,32,33
 672 534 672 534 622 546 c 2,34,-1
 274 643 l 2,35,36
 209 660 209 660 149 580 c 0,37,38
 135 562 135 562 121 535 c 1,39,-1
 82 549 l 1,20,21
EndSplineSet
Colour: ffffff
EndChar

StartChar: aring
Encoding: 229 229 136
Width: 864
VWidth: 0
Flags: HMW
LayerCount: 2
Fore
SplineSet
352 1178.5 m 128,-1,1
 352 1127 352 1127 378.5 1085.5 c 128,-1,2
 405 1044 405 1044 451 1044 c 128,-1,3
 497 1044 497 1044 522 1075 c 128,-1,4
 547 1106 547 1106 547 1161 c 128,-1,5
 547 1216 547 1216 518.5 1258 c 128,-1,6
 490 1300 490 1300 444 1300 c 128,-1,7
 398 1300 398 1300 375 1265 c 128,-1,0
 352 1230 352 1230 352 1178.5 c 128,-1,1
287 1166 m 128,-1,9
 287 1239 287 1239 336 1289.5 c 128,-1,10
 385 1340 385 1340 456 1340 c 128,-1,11
 527 1340 527 1340 570 1294.5 c 128,-1,12
 613 1249 613 1249 613 1178 c 128,-1,13
 613 1107 613 1107 565 1055 c 128,-1,14
 517 1003 517 1003 445 1003 c 128,-1,15
 373 1003 373 1003 330 1048 c 128,-1,8
 287 1093 287 1093 287 1166 c 128,-1,9
238 190 m 0,16,17
 238 135 238 135 276 89 c 128,-1,18
 314 43 314 43 380.5 43 c 128,-1,19
 447 43 447 43 505.5 82.5 c 128,-1,20
 564 122 564 122 601 185 c 1,21,-1
 601 432 l 1,22,23
 383 399 383 399 310.5 343.5 c 128,-1,24
 238 288 238 288 238 190 c 0,16,17
138 169 m 0,25,26
 138 296 138 296 254.5 379.5 c 128,-1,27
 371 463 371 463 601 477 c 1,28,-1
 601 516 l 2,29,30
 601 681 601 681 561 753.5 c 128,-1,31
 521 826 521 826 410 826 c 0,32,33
 334 826 334 826 300.5 770 c 128,-1,34
 267 714 267 714 254 609 c 1,35,36
 219 609 219 609 195.5 626.5 c 128,-1,37
 172 644 172 644 172 676 c 0,38,39
 172 752 172 752 265.5 814.5 c 128,-1,40
 359 877 359 877 469 877 c 0,41,42
 691 877 691 877 691 569 c 2,43,-1
 691 229 l 2,44,45
 691 137 691 137 699.5 117 c 128,-1,46
 708 97 708 97 721 78 c 128,-1,47
 734 59 734 59 779 50 c 2,48,-1
 845 37 l 1,49,-1
 840 3 l 1,50,51
 793 -18 793 -18 736.5 -18 c 128,-1,52
 680 -18 680 -18 647 21 c 128,-1,53
 614 60 614 60 614 117 c 2,54,-1
 614 130 l 1,55,-1
 609 130 l 1,56,57
 590 76 590 76 515.5 25 c 128,-1,58
 441 -26 441 -26 351.5 -26 c 128,-1,59
 262 -26 262 -26 200 27.5 c 128,-1,60
 138 81 138 81 138 169 c 0,25,26
EndSplineSet
Colour: ffffff
EndChar

StartChar: asciicircum
Encoding: 94 94 137
Width: 746
VWidth: 0
Flags: HMW
LayerCount: 2
Fore
SplineSet
57 826 m 1,0,-1
 345 1238 l 1,1,-1
 401 1251 l 1,2,-1
 695 824 l 1,3,-1
 656 796 l 1,4,-1
 372 1123 l 1,5,-1
 363 1123 l 1,6,-1
 90 802 l 1,7,-1
 57 826 l 1,0,-1
EndSplineSet
Colour: ffffff
EndChar

StartChar: asciitilde
Encoding: 126 126 138
Width: 946
VWidth: 0
Flags: HMW
LayerCount: 2
Fore
SplineSet
82 422 m 1,0,1
 127 573 127 573 229 611 c 0,2,3
 272 627 272 627 321 614 c 2,4,-1
 670 516 l 2,5,6
 726 500 726 500 764 538 c 0,7,8
 802 576 802 576 822 620 c 1,9,-1
 868 619 l 1,10,11
 822 462 822 462 716 422 c 0,12,13
 672 406 672 406 622 419 c 2,14,-1
 274 516 l 2,15,16
 209 534 209 534 149 454 c 0,17,18
 135 436 135 436 121 408 c 1,19,-1
 82 422 l 1,0,1
EndSplineSet
Colour: ffffff
EndChar

StartChar: asterisk
Encoding: 42 42 139
Width: 377
VWidth: 0
Flags: HMW
LayerCount: 2
Fore
SplineSet
374 1289 m 1,0,-1
 483 1280 l 1,1,-1
 458 973 l 1,2,-1
 751 1097 l 1,3,-1
 776 990 l 1,4,-1
 476 923 l 1,5,-1
 683 680 l 1,6,-1
 591 623 l 1,7,-1
 434 893 l 1,8,-1
 265 616 l 1,9,-1
 182 684 l 1,10,-1
 386 919 l 1,11,-1
 76 990 l 1,12,-1
 118 1093 l 1,13,-1
 402 970 l 1,14,-1
 374 1289 l 1,0,-1
EndSplineSet
Colour: ffffff
EndChar

StartChar: at
Encoding: 64 64 140
Width: 1357
VWidth: 0
Flags: HMW
LayerCount: 2
Fore
SplineSet
507 391 m 0,0,1
 507 138 507 138 591 138 c 0,2,3
 629 138 629 138 694 174.5 c 128,-1,4
 759 211 759 211 788 243 c 1,5,-1
 843 714 l 1,6,7
 810 725 810 725 722 725 c 128,-1,8
 634 725 634 725 570.5 624.5 c 128,-1,9
 507 524 507 524 507 391 c 0,0,1
557 60 m 128,-1,11
 495 60 495 60 456.5 128.5 c 128,-1,12
 418 197 418 197 418 312 c 0,13,14
 418 532 418 532 533.5 661 c 128,-1,15
 649 790 649 790 782 790 c 0,16,17
 841 790 841 790 921 772 c 1,18,-1
 936 752 l 1,19,-1
 894 385 l 2,20,21
 891 361 891 361 881.5 291 c 128,-1,22
 872 221 872 221 874 178.5 c 128,-1,23
 876 136 876 136 905 136 c 0,24,25
 1025 136 1025 136 1121.5 243 c 128,-1,26
 1218 350 1218 350 1218 540 c 0,27,28
 1218 638 1218 638 1178 724 c 0,29,30
 1140 810 1140 810 1074 866 c 0,31,32
 933 988 933 988 765.5 988 c 128,-1,33
 598 988 598 988 474 906.5 c 128,-1,34
 350 825 350 825 280.5 681 c 128,-1,35
 211 537 211 537 211 358 c 0,36,37
 211 121 211 121 349.5 -21 c 128,-1,38
 488 -163 488 -163 730 -163 c 0,39,40
 831 -163 831 -163 942.5 -121.5 c 128,-1,41
 1054 -80 1054 -80 1097 -43 c 1,42,-1
 1118 -82 l 1,43,44
 968 -190 968 -190 838 -214 c 0,45,46
 771 -226 771 -226 674 -226.5 c 128,-1,47
 577 -227 577 -227 474.5 -190 c 128,-1,48
 372 -153 372 -153 293 -84.5 c 128,-1,49
 214 -16 214 -16 167.5 92 c 128,-1,50
 121 200 121 200 121 334 c 128,-1,51
 121 468 121 468 167.5 595 c 128,-1,52
 214 722 214 722 298 822.5 c 128,-1,53
 382 923 382 923 510 983.5 c 128,-1,54
 638 1044 638 1044 784 1044 c 128,-1,55
 930 1044 930 1044 1047 984 c 128,-1,56
 1164 924 1164 924 1233 815.5 c 128,-1,57
 1302 707 1302 707 1302 572.5 c 128,-1,58
 1302 438 1302 438 1242.5 323 c 128,-1,59
 1183 208 1183 208 1075 138.5 c 128,-1,60
 967 69 967 69 833 69 c 0,61,62
 784 70 784 70 784 124 c 1,63,-1
 786 188 l 1,64,-1
 777 188 l 1,65,66
 745 140 745 140 682 100 c 128,-1,10
 619 60 619 60 557 60 c 128,-1,11
EndSplineSet
Colour: ffffff
EndChar

StartChar: atilde
Encoding: 227 227 141
Width: 864
VWidth: 0
Flags: HMW
LayerCount: 2
Fore
SplineSet
231 990 m 1,0,1
 231 1008 231 1008 247 1041 c 0,2,3
 264 1074 264 1074 272 1084 c 0,4,5
 328 1150 328 1150 389 1125 c 1,6,-1
 570 1071 l 2,7,8
 602 1061 602 1061 626 1078 c 0,9,10
 650 1094 650 1094 658 1116 c 2,11,-1
 666 1138 l 1,12,-1
 700 1136 l 1,13,14
 699 1134 699 1134 698 1130 c 0,15,16
 690 1103 690 1103 685 1093 c 2,17,-1
 672 1068 l 2,18,19
 662 1048 662 1048 642 1028 c 0,20,21
 592 980 592 980 534 1002 c 1,22,-1
 358 1054 l 2,23,24
 330 1063 330 1063 305 1044 c 0,25,26
 280 1026 280 1026 270 1002 c 2,27,-1
 259 978 l 1,28,-1
 231 990 l 1,0,1
238 190 m 0,29,30
 238 135 238 135 276 89 c 128,-1,31
 314 43 314 43 380.5 43 c 128,-1,32
 447 43 447 43 505.5 82.5 c 128,-1,33
 564 122 564 122 601 185 c 1,34,-1
 601 432 l 1,35,36
 383 399 383 399 310.5 343.5 c 128,-1,37
 238 288 238 288 238 190 c 0,29,30
138 169 m 0,38,39
 138 296 138 296 254.5 379.5 c 128,-1,40
 371 463 371 463 601 477 c 1,41,-1
 601 516 l 2,42,43
 601 681 601 681 561 753.5 c 128,-1,44
 521 826 521 826 410 826 c 0,45,46
 334 826 334 826 300.5 770 c 128,-1,47
 267 714 267 714 254 609 c 1,48,49
 219 609 219 609 195.5 626.5 c 128,-1,50
 172 644 172 644 172 676 c 0,51,52
 172 752 172 752 265.5 814.5 c 128,-1,53
 359 877 359 877 469 877 c 0,54,55
 691 877 691 877 691 569 c 2,56,-1
 691 229 l 2,57,58
 691 137 691 137 699.5 117 c 128,-1,59
 708 97 708 97 721 78 c 128,-1,60
 734 59 734 59 779 50 c 2,61,-1
 845 37 l 1,62,-1
 840 3 l 1,63,64
 793 -18 793 -18 736.5 -18 c 128,-1,65
 680 -18 680 -18 647 21 c 128,-1,66
 614 60 614 60 614 117 c 2,67,-1
 614 130 l 1,68,-1
 609 130 l 1,69,70
 590 76 590 76 515.5 25 c 128,-1,71
 441 -26 441 -26 351.5 -26 c 128,-1,72
 262 -26 262 -26 200 27.5 c 128,-1,73
 138 81 138 81 138 169 c 0,38,39
EndSplineSet
Colour: ffffff
EndChar

StartChar: b
Encoding: 98 98 142
Width: 966
VWidth: 0
Flags: HMW
LayerCount: 2
Fore
SplineSet
526 802 m 0,0,1
 431 802 431 802 301 664 c 1,2,-1
 301 98 l 1,3,4
 362 37 362 37 505 37 c 0,5,6
 611 37 611 37 706.5 138 c 128,-1,7
 802 239 802 239 802 423 c 0,8,9
 802 802 802 802 526 802 c 0,0,1
586.5 874 m 128,-1,11
 737 874 737 874 821.5 761.5 c 128,-1,12
 906 649 906 649 906 460 c 0,13,14
 906 227 906 227 768 101.5 c 128,-1,15
 630 -24 630 -24 420 -24 c 0,16,17
 314 -24 314 -24 206 48 c 1,18,-1
 206 1190 l 1,19,-1
 51 1221 l 1,20,-1
 57 1252 l 1,21,-1
 296 1271 l 1,22,-1
 301 1262 l 1,23,-1
 301 824 l 1,24,-1
 286 721 l 1,25,-1
 299 721 l 1,26,10
 436 874 436 874 586.5 874 c 128,-1,11
EndSplineSet
Colour: ffffff
EndChar

StartChar: backslash
Encoding: 92 92 143
Width: 543
VWidth: 0
Flags: HMW
LayerCount: 2
Fore
SplineSet
27 1244 m 1,0,-1
 110 1241 l 1,1,-1
 571 -358 l 1,2,-1
 492 -354 l 1,3,-1
 27 1244 l 1,0,-1
EndSplineSet
Colour: ffffff
EndChar

StartChar: bar
Encoding: 124 124 144
Width: 564
VWidth: 0
Flags: HMW
LayerCount: 2
Fore
SplineSet
274 -368 m 1,0,-1
 274 1260 l 1,1,-1
 350 1248 l 1,2,-1
 350 -380 l 1,3,-1
 274 -368 l 1,0,-1
EndSplineSet
Colour: ffffff
EndChar

StartChar: braceleft
Encoding: 123 123 145
Width: 663
VWidth: 0
Flags: HMW
LayerCount: 2
Fore
SplineSet
181 -378 m 2,0,1
 97 -378 97 -378 46.5 -336.5 c 128,-1,2
 -4 -295 -4 -295 -22 -228 c 128,-1,3
 -40 -161 -40 -161 -44.5 -79.5 c 128,-1,4
 -49 2 -49 2 -49.5 84.5 c 128,-1,5
 -50 167 -50 167 -58 237 c 0,6,7
 -76 395 -76 395 -191 408 c 2,8,-1
 -244 414 l 1,9,-1
 -244 463 l 1,10,-1
 -195 470 l 1,11,12
 -102 482 -102 482 -74 584 c 0,13,14
 -52 666 -52 666 -51 771.5 c 128,-1,15
 -50 877 -50 877 -48 940 c 0,16,17
 -44 1076 -44 1076 1 1166 c 128,-1,18
 46 1256 46 1256 176 1256 c 2,19,-1
 279 1256 l 1,20,-1
 271 1207 l 1,21,-1
 165 1200 l 1,22,23
 83 1196 83 1196 69 1059 c 0,24,25
 63 998 63 998 62.5 923 c 128,-1,26
 62 848 62 848 56.5 770.5 c 128,-1,27
 51 693 51 693 36 626 c 128,-1,28
 21 559 21 559 -20 508.5 c 128,-1,29
 -61 458 -61 458 -128 441 c 1,30,-1
 -128 437 l 1,31,32
 -61 426 -61 426 -20 379 c 128,-1,33
 21 332 21 332 36.5 265 c 128,-1,34
 52 198 52 198 57.5 119 c 128,-1,35
 63 40 63 40 64.5 -37 c 128,-1,36
 66 -114 66 -114 73 -178 c 0,37,38
 89 -320 89 -320 176 -323 c 1,39,-1
 277 -329 l 1,40,-1
 283 -378 l 1,41,-1
 181 -378 l 2,0,1
EndSplineSet
Colour: ffffff
EndChar

StartChar: braceright
Encoding: 125 125 146
Width: 663
VWidth: 0
Flags: HMW
LayerCount: 2
Fore
SplineSet
149 1256 m 2,0,1
 279 1256 279 1256 324 1166 c 128,-1,2
 369 1076 369 1076 372 976 c 0,3,4
 376 876 376 876 376 813 c 0,5,6
 376 666 376 666 398 584 c 0,7,8
 425 482 425 482 520 470 c 1,9,-1
 569 463 l 1,10,-1
 569 414 l 1,11,-1
 516 408 l 2,12,13
 401 395 401 395 383 237 c 0,14,15
 375 167 375 167 374.5 84.5 c 128,-1,16
 374 2 374 2 369.5 -79.5 c 128,-1,17
 365 -161 365 -161 347 -228 c 128,-1,18
 329 -295 329 -295 278.5 -336.5 c 128,-1,19
 228 -378 228 -378 144 -378 c 2,20,-1
 42 -378 l 1,21,-1
 48 -329 l 1,22,-1
 149 -323 l 1,23,24
 236 -320 236 -320 252 -178 c 0,25,26
 259 -114 259 -114 260.5 -37 c 128,-1,27
 262 40 262 40 267.5 119 c 128,-1,28
 273 198 273 198 288.5 265 c 128,-1,29
 304 332 304 332 345 379 c 128,-1,30
 386 426 386 426 453 437 c 1,31,-1
 453 441 l 1,32,33
 386 458 386 458 345 508.5 c 128,-1,34
 304 559 304 559 289 626 c 128,-1,35
 274 693 274 693 268.5 770.5 c 128,-1,36
 263 848 263 848 262.5 923 c 128,-1,37
 262 998 262 998 256 1059 c 0,38,39
 242 1196 242 1196 160 1200 c 1,40,-1
 54 1207 l 1,41,-1
 46 1256 l 1,42,-1
 149 1256 l 2,0,1
EndSplineSet
Colour: ffffff
EndChar

StartChar: bracketleft
Encoding: 91 91 147
Width: 478
VWidth: 0
Flags: HMW
LayerCount: 2
Fore
SplineSet
67 -374 m 1,0,-1
 67 1256 l 1,1,-1
 429 1256 l 1,2,-1
 432 1203 l 1,3,-1
 177 1182 l 1,4,-1
 177 -312 l 1,5,-1
 435 -333 l 1,6,-1
 429 -374 l 1,7,-1
 67 -374 l 1,0,-1
EndSplineSet
Colour: ffffff
EndChar

StartChar: bracketright
Encoding: 93 93 148
Width: 478
VWidth: 0
Flags: HMW
LayerCount: 2
Fore
SplineSet
416 1256 m 1,0,-1
 416 -374 l 1,1,-1
 54 -374 l 1,2,-1
 48 -333 l 1,3,-1
 306 -312 l 1,4,-1
 306 1182 l 1,5,-1
 51 1203 l 1,6,-1
 54 1256 l 1,7,-1
 416 1256 l 1,0,-1
EndSplineSet
Colour: ffffff
EndChar

StartChar: breve
Encoding: 728 728 149
Width: 626
VWidth: 0
Flags: HMW
LayerCount: 2
Fore
SplineSet
313.5 1450 m 128,-1,1
 410 1450 410 1450 480 1579 c 1,2,-1
 503 1558 l 1,3,4
 443 1375 443 1375 304.5 1375 c 128,-1,5
 166 1375 166 1375 121 1553 c 1,6,-1
 151 1577 l 1,7,0
 217 1450 217 1450 313.5 1450 c 128,-1,1
EndSplineSet
Colour: ffffff
EndChar

StartChar: brokenbar
Encoding: 166 166 150
Width: 564
VWidth: 0
Flags: HMW
LayerCount: 2
Fore
SplineSet
279 535 m 1,0,-1
 279 1253 l 1,1,-1
 347 1248 l 1,2,-1
 344 529 l 1,3,-1
 279 535 l 1,0,-1
279 -374 m 1,4,-1
 279 414 l 1,5,-1
 348 410 l 1,6,-1
 348 -380 l 1,7,-1
 279 -374 l 1,4,-1
EndSplineSet
Colour: ffffff
EndChar

StartChar: bullet
Encoding: 8226 8226 151
Width: 543
VWidth: 0
Flags: HMW
LayerCount: 2
Fore
SplineSet
282 686 m 128,-1,1
 374 686 374 686 374 540 c 128,-1,2
 374 394 374 394 282 394 c 128,-1,3
 190 394 190 394 190 540 c 128,-1,0
 190 686 190 686 282 686 c 128,-1,1
EndSplineSet
Colour: ffffff
EndChar

StartChar: c
Encoding: 99 99 152
Width: 779
VWidth: 0
Flags: HMW
LayerCount: 2
Fore
SplineSet
132 411 m 128,-1,1
 132 614 132 614 237 744.5 c 128,-1,2
 342 875 342 875 507 875 c 0,3,4
 623 875 623 875 675.5 825 c 128,-1,5
 728 775 728 775 728 703.5 c 128,-1,6
 728 632 728 632 663 612 c 1,7,8
 627 718 627 718 581 765.5 c 128,-1,9
 535 813 535 813 449.5 813 c 128,-1,10
 364 813 364 813 298 719.5 c 128,-1,11
 232 626 232 626 232 453 c 0,12,13
 232 45 232 45 517 45 c 0,14,15
 585 45 585 45 648 74.5 c 128,-1,16
 711 104 711 104 752 144 c 1,17,-1
 770 111 l 1,18,19
 733 53 733 53 648.5 12 c 128,-1,20
 564 -29 564 -29 469 -29 c 0,21,22
 308 -29 308 -29 220 89.5 c 128,-1,0
 132 208 132 208 132 411 c 128,-1,1
EndSplineSet
Colour: ffffff
EndChar

StartChar: cacute
Encoding: 263 263 153
Width: 779
VWidth: 0
Flags: HMW
LayerCount: 2
Fore
SplineSet
132 411 m 128,-1,1
 132 614 132 614 237 744.5 c 128,-1,2
 342 875 342 875 507 875 c 0,3,4
 623 875 623 875 675.5 825 c 128,-1,5
 728 775 728 775 728 703.5 c 128,-1,6
 728 632 728 632 663 612 c 1,7,8
 627 718 627 718 581 765.5 c 128,-1,9
 535 813 535 813 449.5 813 c 128,-1,10
 364 813 364 813 298 719.5 c 128,-1,11
 232 626 232 626 232 453 c 0,12,13
 232 45 232 45 517 45 c 0,14,15
 585 45 585 45 648 74.5 c 128,-1,16
 711 104 711 104 752 144 c 1,17,-1
 770 111 l 1,18,19
 733 53 733 53 648.5 12 c 128,-1,20
 564 -29 564 -29 469 -29 c 0,21,22
 308 -29 308 -29 220 89.5 c 128,-1,0
 132 208 132 208 132 411 c 128,-1,1
417 1023 m 1,23,-1
 549 1360 l 1,24,-1
 645 1321 l 1,25,-1
 462 997 l 1,26,-1
 417 1023 l 1,23,-1
EndSplineSet
Colour: ffffff
EndChar

StartChar: caron
Encoding: 711 711 154
Width: 651
VWidth: 0
Flags: HMW
LayerCount: 2
Fore
SplineSet
123 1537 m 1,0,-1
 178 1586 l 1,1,-1
 344 1417 l 1,2,-1
 353 1417 l 1,3,-1
 496 1582 l 1,4,-1
 532 1555 l 1,5,-1
 358 1371 l 1,6,-1
 302 1357 l 1,7,-1
 123 1537 l 1,0,-1
EndSplineSet
Colour: ffffff
EndChar

StartChar: ccaron
Encoding: 269 269 155
Width: 779
VWidth: 0
Flags: HMW
LayerCount: 2
Fore
SplineSet
132 411 m 128,-1,1
 132 614 132 614 237 744.5 c 128,-1,2
 342 875 342 875 507 875 c 0,3,4
 623 875 623 875 675.5 825 c 128,-1,5
 728 775 728 775 728 703.5 c 128,-1,6
 728 632 728 632 663 612 c 1,7,8
 627 718 627 718 581 765.5 c 128,-1,9
 535 813 535 813 449.5 813 c 128,-1,10
 364 813 364 813 298 719.5 c 128,-1,11
 232 626 232 626 232 453 c 0,12,13
 232 45 232 45 517 45 c 0,14,15
 585 45 585 45 648 74.5 c 128,-1,16
 711 104 711 104 752 144 c 1,17,-1
 770 111 l 1,18,19
 733 53 733 53 648.5 12 c 128,-1,20
 564 -29 564 -29 469 -29 c 0,21,22
 308 -29 308 -29 220 89.5 c 128,-1,0
 132 208 132 208 132 411 c 128,-1,1
269 1190 m 1,23,-1
 324 1239 l 1,24,-1
 490 1070 l 1,25,-1
 499 1070 l 1,26,-1
 642 1235 l 1,27,-1
 678 1208 l 1,28,-1
 504 1024 l 1,29,-1
 448 1010 l 1,30,-1
 269 1190 l 1,23,-1
EndSplineSet
Colour: ffffff
EndChar

StartChar: ccedilla
Encoding: 231 231 156
Width: 779
VWidth: 0
Flags: HMW
LayerCount: 2
Fore
SplineSet
507 875 m 0,0,1
 623 875 623 875 675.5 825 c 128,-1,2
 728 775 728 775 728 703.5 c 128,-1,3
 728 632 728 632 663 612 c 1,4,5
 627 718 627 718 581 765.5 c 128,-1,6
 535 813 535 813 449.5 813 c 128,-1,7
 364 813 364 813 298 719.5 c 128,-1,8
 232 626 232 626 232 453 c 0,9,10
 232 45 232 45 517 45 c 0,11,12
 585 45 585 45 648 74.5 c 128,-1,13
 711 104 711 104 752 144 c 1,14,-1
 770 111 l 1,15,16
 737 60 737 60 667 21.5 c 128,-1,17
 597 -17 597 -17 515 -26 c 1,18,-1
 480 -76 l 1,19,20
 569 -155 569 -155 569 -219 c 128,-1,21
 569 -283 569 -283 517.5 -322 c 128,-1,22
 466 -361 466 -361 370 -390 c 1,23,-1
 359 -347 l 1,24,25
 402 -332 402 -332 439.5 -300.5 c 128,-1,26
 477 -269 477 -269 477 -246.5 c 128,-1,27
 477 -224 477 -224 467.5 -203.5 c 128,-1,28
 458 -183 458 -183 449 -172.5 c 128,-1,29
 440 -162 440 -162 418.5 -143 c 128,-1,30
 397 -124 397 -124 391 -118 c 1,31,-1
 454 -29 l 1,32,33
 351 -25 351 -25 277 33 c 0,34,35
 132 146 132 146 132 380 c 128,-1,36
 132 614 132 614 237 744.5 c 128,-1,37
 342 875 342 875 507 875 c 0,0,1
EndSplineSet
Colour: ffffff
EndChar

StartChar: cdotaccent
Encoding: 267 267 157
Width: 779
VWidth: 0
Flags: HMW
LayerCount: 2
Fore
SplineSet
465 983 m 128,-1,1
 402 983 402 983 402 1083 c 128,-1,2
 402 1183 402 1183 465 1183 c 128,-1,3
 528 1183 528 1183 528 1083 c 128,-1,0
 528 983 528 983 465 983 c 128,-1,1
132 411 m 128,-1,5
 132 614 132 614 237 744.5 c 128,-1,6
 342 875 342 875 507 875 c 0,7,8
 623 875 623 875 675.5 825 c 128,-1,9
 728 775 728 775 728 703.5 c 128,-1,10
 728 632 728 632 663 612 c 1,11,12
 627 718 627 718 581 765.5 c 128,-1,13
 535 813 535 813 449.5 813 c 128,-1,14
 364 813 364 813 298 719.5 c 128,-1,15
 232 626 232 626 232 453 c 0,16,17
 232 45 232 45 517 45 c 0,18,19
 585 45 585 45 648 74.5 c 128,-1,20
 711 104 711 104 752 144 c 1,21,-1
 770 111 l 1,22,23
 733 53 733 53 648.5 12 c 128,-1,24
 564 -29 564 -29 469 -29 c 0,25,26
 308 -29 308 -29 220 89.5 c 128,-1,4
 132 208 132 208 132 411 c 128,-1,5
EndSplineSet
Colour: ffffff
EndChar

StartChar: cedilla
Encoding: 184 184 158
Width: 380
VWidth: 0
Flags: HMW
LayerCount: 2
Fore
SplineSet
209 -246.5 m 128,-1,1
 209 -224 209 -224 199.5 -203.5 c 128,-1,2
 190 -183 190 -183 181 -172.5 c 128,-1,3
 172 -162 172 -162 150.5 -143 c 128,-1,4
 129 -124 129 -124 123 -118 c 1,5,-1
 208 3 l 1,6,-1
 267 3 l 1,7,-1
 212 -76 l 1,8,9
 301 -155 301 -155 301 -219 c 128,-1,10
 301 -283 301 -283 249.5 -322 c 128,-1,11
 198 -361 198 -361 102 -390 c 1,12,-1
 91 -347 l 1,13,14
 134 -332 134 -332 171.5 -300.5 c 128,-1,0
 209 -269 209 -269 209 -246.5 c 128,-1,1
EndSplineSet
Colour: ffffff
EndChar

StartChar: cent
Encoding: 162 162 159
Width: 797
VWidth: 0
Flags: HMW
LayerCount: 2
Back
SplineSet
113.135 349.123 m 4,0,1
 113.135 537.88 113.135 537.88 203.028 653.808 c 0
 292.92 769.736 292.92 769.736 433.802 769.736 c 0,2,3
 485.502 769.736 485.502 769.736 523.799 756.947 c 0
 562.096 744.158 562.096 744.158 582.741 722.498 c 0
 603.385 700.838 603.385 700.838 612.988 676.629 c 0
 622.591 652.42 622.591 652.42 622.591 625.367 c 0,4,5
 622.591 594.109 622.591 594.109 610.16 574.574 c 0
 597.729 555.039 597.729 555.039 567.76 545.549 c 1,6,7
 536.873 636.58 536.873 636.58 497.587 677.478 c 0
 458.3 718.375 458.3 718.375 392.851 718.375 c 0,8,9
 312.277 718.375 312.277 718.375 255.392 632.773 c 0
 198.507 547.172 198.507 547.172 198.507 398.403 c 0,10,11
 198.507 216.447 198.507 216.447 265.71 128.699 c 0
 332.913 40.9512 332.913 40.9512 442.824 40.9512 c 0,12,13
 501.923 40.9512 501.923 40.9512 555.54 65.0656 c 0
 609.158 89.1801 609.158 89.1801 644.108 123.547 c 1,14,-1
 659.378 95.0898 l 1,15,16
 626.933 45.3402 626.933 45.3402 554.391 10.1764 c 0
 481.848 -24.9873 481.848 -24.9873 401.179 -24.9873 c 0,17,18
 309.535 -24.9873 309.535 -24.9873 243.095 26.4126 c 0
 176.656 77.8124 176.656 77.8124 144.895 161.22 c 0
 113.135 244.627 113.135 244.627 113.135 349.123 c 4,0,1
345.652 954.363 m 1,19,-1
 436.577 968.938 l 1,20,-1
 415.756 739.197 l 1,21,-1
 372.722 739.197 l 1,22,-1
 345.652 954.363 l 1,19,-1
354.676 -228.353 m 1,23,-1
 376.886 0 l 1,24,-1
 418.531 0 l 1,25,-1
 446.989 -214.472 l 1,26,-1
 354.676 -228.353 l 1,23,-1
EndSplineSet
Fore
SplineSet
728 729 m 128,-1,1
 728 658 728 658 663 638 c 1,2,3
 627 744 627 744 581 792 c 128,-1,4
 535 840 535 840 450 840 c 128,-1,5
 365 840 365 840 298.5 739.5 c 128,-1,6
 232 639 232 639 232 445.5 c 128,-1,7
 232 252 232 252 310 149.5 c 128,-1,8
 388 47 388 47 517 47 c 0,9,10
 586 47 586 47 648.5 75.5 c 128,-1,11
 711 104 711 104 752 144 c 1,12,-1
 770 111 l 1,13,14
 735 57 735 57 658 17 c 128,-1,15
 581 -23 581 -23 493 -28 c 1,16,-1
 522 -250 l 1,17,-1
 414 -267 l 1,18,-1
 438 -28 l 1,19,20
 340 -20 340 -20 270 42 c 0,21,22
 132 162 132 162 132 408 c 0,23,24
 132 602 132 602 214.5 731.5 c 128,-1,25
 297 861 297 861 432 891 c 1,26,-1
 404 1115 l 1,27,-1
 510 1133 l 1,28,-1
 489 899 l 1,29,30
 498 899 498 899 507 899 c 0,31,32
 623 899 623 899 675.5 849.5 c 128,-1,0
 728 800 728 800 728 729 c 128,-1,1
EndSplineSet
Colour: ffffff
EndChar

StartChar: circumflex
Encoding: 710 710 160
Width: 646
VWidth: 0
Flags: HMW
LayerCount: 2
Fore
SplineSet
121 1388 m 1,0,-1
 288 1569 l 1,1,-1
 342 1582 l 1,2,-1
 521 1396 l 1,3,-1
 489 1359 l 1,4,-1
 308 1494 l 1,5,-1
 299 1494 l 1,6,-1
 142 1358 l 1,7,-1
 121 1388 l 1,0,-1
EndSplineSet
Colour: ffffff
EndChar

StartChar: colon
Encoding: 58 58 161
Width: 398
VWidth: 0
Flags: HMW
LayerCount: 2
Fore
SplineSet
208 0 m 128,-1,1
 145 0 145 0 145 100 c 128,-1,2
 145 200 145 200 208 200 c 128,-1,3
 271 200 271 200 271 100 c 128,-1,0
 271 0 271 0 208 0 c 128,-1,1
267 730 m 128,-1,5
 267 631 267 631 204.5 631 c 128,-1,6
 142 631 142 631 142 730 c 128,-1,7
 142 829 142 829 204.5 829 c 128,-1,4
 267 829 267 829 267 730 c 128,-1,5
EndSplineSet
Colour: ffffff
EndChar

StartChar: comma
Encoding: 44 44 162
Width: 360
VWidth: 0
Flags: HMW
LayerCount: 2
Fore
SplineSet
232 -31.5 m 128,-1,1
 232 34 232 34 200.5 73 c 128,-1,2
 169 112 169 112 123 112 c 0,3,4
 105 112 105 112 96 108 c 1,5,6
 93 117 93 117 93 142.5 c 128,-1,7
 93 168 93 168 119.5 193 c 128,-1,8
 146 218 146 218 197.5 218 c 128,-1,9
 249 218 249 218 290.5 163 c 128,-1,10
 332 108 332 108 332 20.5 c 128,-1,11
 332 -67 332 -67 275 -149.5 c 128,-1,12
 218 -232 218 -232 66 -281 c 1,13,-1
 54 -236 l 1,14,15
 155 -196 155 -196 193.5 -146.5 c 128,-1,0
 232 -97 232 -97 232 -31.5 c 128,-1,1
EndSplineSet
Colour: ffffff
EndChar

StartChar: commaaccent
Encoding: 806 806 163
Width: 360
VWidth: 0
Flags: HMW
LayerCount: 2
Fore
SplineSet
132 -241 m 0,0,1
 132 -158 132 -158 27 -151 c 1,2,3
 27 -127 27 -127 49 -106 c 128,-1,4
 71 -85 71 -85 110 -85 c 128,-1,5
 149 -85 149 -85 178.5 -117 c 128,-1,6
 208 -149 208 -149 208 -195 c 128,-1,7
 208 -241 208 -241 192 -276 c 128,-1,8
 176 -311 176 -311 132 -344 c 128,-1,9
 88 -377 88 -377 22 -390 c 1,10,-1
 6 -353 l 1,11,12
 66 -339 66 -339 99 -309.5 c 128,-1,13
 132 -280 132 -280 132 -241 c 0,0,1
EndSplineSet
Colour: ffffff
EndChar

StartChar: copyright
Encoding: 169 169 164
Width: 1377
VWidth: 0
Flags: HMW
LayerCount: 2
Fore
SplineSet
159 630 m 128,-1,1
 159 460 159 460 226 323 c 128,-1,2
 293 186 293 186 414 108.5 c 128,-1,3
 535 31 535 31 689 31 c 0,4,5
 928 31 928 31 1085.5 196.5 c 128,-1,6
 1243 362 1243 362 1243 613 c 0,7,8
 1243 787 1243 787 1171.5 927.5 c 128,-1,9
 1100 1068 1100 1068 973.5 1147 c 128,-1,10
 847 1226 847 1226 692 1226 c 128,-1,11
 537 1226 537 1226 415.5 1149 c 128,-1,12
 294 1072 294 1072 226.5 936 c 128,-1,0
 159 800 159 800 159 630 c 128,-1,1
91 620 m 0,13,14
 91 766 91 766 137 890.5 c 128,-1,15
 183 1015 183 1015 263 1100 c 128,-1,16
 343 1185 343 1185 453 1233 c 128,-1,17
 563 1281 563 1281 689 1281 c 0,18,19
 971 1281 971 1281 1139.5 1100 c 128,-1,20
 1308 919 1308 919 1308 624 c 128,-1,21
 1308 329 1308 329 1137.5 151 c 128,-1,22
 967 -27 967 -27 687.5 -27 c 128,-1,23
 408 -27 408 -27 249.5 149.5 c 128,-1,24
 91 326 91 326 91 620 c 0,13,14
723 323 m 0,25,26
 833 323 833 323 916 404 c 1,27,-1
 930 377 l 1,28,29
 899 329 899 329 830 295.5 c 128,-1,30
 761 262 761 262 678 262 c 128,-1,31
 595 262 595 262 532 309 c 0,32,33
 408 400 408 400 407.5 595 c 128,-1,34
 407 790 407 790 493 897 c 128,-1,35
 579 1004 579 1004 715 1004 c 128,-1,36
 851 1004 851 1004 887 914 c 0,37,38
 896 891 896 891 896 865 c 0,39,40
 896 805 896 805 843 788 c 1,41,42
 814 875 814 875 776 914 c 128,-1,43
 738 953 738 953 667.5 953 c 128,-1,44
 597 953 597 953 543 876 c 128,-1,45
 489 799 489 799 489 657 c 0,46,47
 489 323 489 323 723 323 c 0,25,26
EndSplineSet
Colour: ffffff
EndChar

StartChar: currency
Encoding: 164 164 165
Width: 774
VWidth: 0
Flags: HMW
LayerCount: 2
Fore
SplineSet
208 495 m 128,-1,1
 208 403 208 403 259 345.5 c 128,-1,2
 310 288 310 288 395 288 c 128,-1,3
 480 288 480 288 533.5 344 c 128,-1,4
 587 400 587 400 587 492 c 128,-1,5
 587 584 587 584 533 642 c 128,-1,6
 479 700 479 700 393.5 700 c 128,-1,7
 308 700 308 700 258 643.5 c 128,-1,0
 208 587 208 587 208 495 c 128,-1,1
395 220 m 128,-1,9
 333 220 333 220 238 278 c 1,10,-1
 160 190 l 1,11,-1
 111 239 l 1,12,-1
 195 317 l 1,13,14
 172 352 172 352 153 403.5 c 128,-1,15
 134 455 134 455 134 489.5 c 128,-1,16
 134 524 134 524 152 570.5 c 128,-1,17
 170 617 170 617 190 647 c 1,18,-1
 99 734 l 1,19,-1
 149 782 l 1,20,-1
 227 693 l 1,21,22
 263 723 263 723 312.5 747.5 c 128,-1,23
 362 772 362 772 397.5 772 c 128,-1,24
 433 772 433 772 484 749.5 c 128,-1,25
 535 727 535 727 571 701 c 1,26,-1
 649 783 l 1,27,-1
 691 730 l 1,28,-1
 607 656 l 1,29,30
 625 625 625 625 642.5 575 c 128,-1,31
 660 525 660 525 660 491 c 128,-1,32
 660 457 660 457 641 407 c 128,-1,33
 622 357 622 357 600 327 c 1,34,-1
 693 241 l 1,35,-1
 641 193 l 1,36,-1
 562 283 l 1,37,8
 457 220 457 220 395 220 c 128,-1,9
EndSplineSet
Colour: ffffff
EndChar

StartChar: d
Encoding: 100 100 166
Width: 1005
VWidth: 0
Flags: HMW
LayerCount: 2
Fore
SplineSet
496 818 m 0,0,1
 389 818 389 818 309.5 719.5 c 128,-1,2
 230 621 230 621 230 440 c 128,-1,3
 230 259 230 259 296.5 153 c 128,-1,4
 363 47 363 47 497 47 c 0,5,6
 559 47 559 47 630.5 89.5 c 128,-1,7
 702 132 702 132 742 190 c 1,8,-1
 742 704 l 1,9,10
 654 818 654 818 496 818 c 0,0,1
881 -20 m 0,11,12
 752 -20 752 -20 752 124 c 2,13,-1
 752 131 l 1,14,-1
 742 131 l 1,15,16
 694 66 694 66 616 22 c 128,-1,17
 538 -22 538 -22 442 -22 c 0,18,19
 304 -22 304 -22 217 85 c 128,-1,20
 130 192 130 192 130 386 c 0,21,22
 130 498 130 498 164.5 592 c 128,-1,23
 199 686 199 686 257 748 c 0,24,25
 379 878 379 878 546 877 c 0,26,27
 595 877 595 877 655 861 c 128,-1,28
 715 845 715 845 740 825 c 1,29,-1
 750 825 l 1,30,-1
 734 960 l 1,31,-1
 734 1190 l 1,32,-1
 581 1221 l 1,33,-1
 587 1252 l 1,34,-1
 825 1272 l 1,35,-1
 833 1262 l 1,36,-1
 833 229 l 2,37,38
 833 79 833 79 898 57 c 0,39,40
 907 54 907 54 922 50 c 2,41,-1
 982 37 l 1,42,-1
 976 1 l 1,43,44
 929 -20 929 -20 881 -20 c 0,11,12
EndSplineSet
Colour: ffffff
EndChar

StartChar: dagger
Encoding: 8224 8224 167
Width: 898
VWidth: 0
Flags: HMW
LayerCount: 2
Fore
SplineSet
118 734 m 1,0,-1
 127 810 l 1,1,-1
 424 803 l 1,2,-1
 414 1256 l 1,3,-1
 508 1244 l 1,4,-1
 497 803 l 1,5,-1
 803 810 l 1,6,-1
 796 730 l 1,7,-1
 497 740 l 1,8,-1
 514 -363 l 1,9,-1
 408 -351 l 1,10,-1
 424 742 l 1,11,-1
 118 734 l 1,0,-1
EndSplineSet
Colour: ffffff
EndChar

StartChar: daggerdbl
Encoding: 8225 8225 168
Width: 898
VWidth: 0
Flags: HMW
LayerCount: 2
Fore
SplineSet
118 734 m 1,0,-1
 127 809 l 1,1,-1
 423 802 l 1,2,-1
 413 1256 l 1,3,-1
 507 1244 l 1,4,-1
 496 802 l 1,5,-1
 801 809 l 1,6,-1
 793 729 l 1,7,-1
 496 739 l 1,8,-1
 488 429 l 1,9,-1
 496 154 l 1,10,-1
 807 162 l 1,11,-1
 801 87 l 1,12,-1
 496 97 l 1,13,-1
 502 -363 l 1,14,-1
 410 -353 l 1,15,-1
 420 97 l 1,16,-1
 134 87 l 1,17,-1
 139 169 l 1,18,-1
 420 157 l 1,19,-1
 426 498 l 1,20,-1
 423 740 l 1,21,-1
 118 734 l 1,0,-1
EndSplineSet
Colour: ffffff
EndChar

StartChar: dcaron
Encoding: 271 271 169
Width: 1005
VWidth: 0
Flags: HMW
LayerCount: 2
Fore
SplineSet
496 818 m 0,0,1
 389 818 389 818 309.5 719.5 c 128,-1,2
 230 621 230 621 230 440 c 128,-1,3
 230 259 230 259 296.5 153 c 128,-1,4
 363 47 363 47 497 47 c 0,5,6
 559 47 559 47 630.5 89.5 c 128,-1,7
 702 132 702 132 742 190 c 1,8,-1
 742 704 l 1,9,10
 654 818 654 818 496 818 c 0,0,1
881 -20 m 0,11,12
 752 -20 752 -20 752 124 c 2,13,-1
 752 131 l 1,14,-1
 742 131 l 1,15,16
 694 66 694 66 616 22 c 128,-1,17
 538 -22 538 -22 442 -22 c 0,18,19
 304 -22 304 -22 217 85 c 128,-1,20
 130 192 130 192 130 386 c 0,21,22
 130 498 130 498 164.5 592 c 128,-1,23
 199 686 199 686 257 748 c 0,24,25
 379 878 379 878 546 877 c 0,26,27
 595 877 595 877 655 861 c 128,-1,28
 715 845 715 845 740 825 c 1,29,-1
 750 825 l 1,30,-1
 734 960 l 1,31,-1
 734 1190 l 1,32,-1
 581 1221 l 1,33,-1
 587 1252 l 1,34,-1
 825 1272 l 1,35,-1
 833 1262 l 1,36,-1
 833 229 l 2,37,38
 833 79 833 79 898 57 c 0,39,40
 907 54 907 54 922 50 c 2,41,-1
 982 37 l 1,42,-1
 976 1 l 1,43,44
 929 -20 929 -20 881 -20 c 0,11,12
262 1051.5 m 128,-1,46
 262 1117 262 1117 230.5 1156 c 128,-1,47
 199 1195 199 1195 153 1195 c 0,48,49
 135 1195 135 1195 126 1191 c 1,50,51
 123 1200 123 1200 123 1225.5 c 128,-1,52
 123 1251 123 1251 149.5 1276 c 128,-1,53
 176 1301 176 1301 227.5 1301 c 128,-1,54
 279 1301 279 1301 320.5 1246 c 128,-1,55
 362 1191 362 1191 362 1103.5 c 128,-1,56
 362 1016 362 1016 305 933.5 c 128,-1,57
 248 851 248 851 96 802 c 1,58,-1
 84 847 l 1,59,60
 185 887 185 887 223.5 936.5 c 128,-1,45
 262 986 262 986 262 1051.5 c 128,-1,46
EndSplineSet
Colour: ffffff
EndChar

StartChar: dcroat
Encoding: 273 273 170
Width: 1005
VWidth: 0
Flags: HMW
LayerCount: 2
Fore
SplineSet
881 -20 m 0,0,1
 752 -20 752 -20 752 124 c 2,2,-1
 752 131 l 1,3,-1
 742 131 l 1,4,5
 694 66 694 66 616 22 c 128,-1,6
 538 -22 538 -22 442 -22 c 0,7,8
 304 -22 304 -22 217 85 c 128,-1,9
 130 192 130 192 130 386 c 0,10,11
 130 498 130 498 164.5 592 c 128,-1,12
 199 686 199 686 257 748 c 0,13,14
 379 878 379 878 546 877 c 0,15,16
 595 877 595 877 655 861 c 128,-1,17
 715 845 715 845 740 825 c 1,18,-1
 750 825 l 1,19,-1
 734 960 l 1,20,-1
 734 1011 l 1,21,-1
 470 1011 l 1,22,-1
 478 1063 l 1,23,-1
 734 1063 l 1,24,-1
 734 1190 l 1,25,-1
 581 1221 l 1,26,-1
 587 1252 l 1,27,-1
 825 1272 l 1,28,-1
 833 1262 l 1,29,-1
 833 1063 l 1,30,-1
 976 1063 l 1,31,-1
 969 1011 l 1,32,-1
 833 1011 l 1,33,-1
 833 229 l 2,34,35
 833 79 833 79 898 57 c 0,36,37
 907 54 907 54 922 50 c 2,38,-1
 982 37 l 1,39,-1
 976 1 l 1,40,41
 929 -20 929 -20 881 -20 c 0,0,1
496 818 m 0,42,43
 389 818 389 818 309.5 719.5 c 128,-1,44
 230 621 230 621 230 440 c 128,-1,45
 230 259 230 259 296.5 153 c 128,-1,46
 363 47 363 47 497 47 c 0,47,48
 559 47 559 47 630.5 89.5 c 128,-1,49
 702 132 702 132 742 190 c 1,50,-1
 742 704 l 1,51,52
 654 818 654 818 496 818 c 0,42,43
EndSplineSet
Colour: ffffff
EndChar

StartChar: degree
Encoding: 176 176 171
Width: 424
VWidth: 0
Flags: HMW
LayerCount: 2
Fore
SplineSet
93 1122.5 m 128,-1,1
 93 1053 93 1053 126.5 1010 c 128,-1,2
 160 967 160 967 212 967 c 128,-1,3
 264 967 264 967 299 1006 c 128,-1,4
 334 1045 334 1045 334 1110.5 c 128,-1,5
 334 1176 334 1176 300 1220.5 c 128,-1,6
 266 1265 266 1265 211 1265 c 128,-1,7
 156 1265 156 1265 124.5 1228.5 c 128,-1,0
 93 1192 93 1192 93 1122.5 c 128,-1,1
32 1103.5 m 128,-1,9
 32 1186 32 1186 88.5 1245 c 128,-1,10
 145 1304 145 1304 227.5 1304 c 128,-1,11
 310 1304 310 1304 353 1258 c 128,-1,12
 396 1212 396 1212 396 1127.5 c 128,-1,13
 396 1043 396 1043 339 985.5 c 128,-1,14
 282 928 282 928 202.5 928 c 128,-1,15
 123 928 123 928 77.5 974.5 c 128,-1,8
 32 1021 32 1021 32 1103.5 c 128,-1,9
EndSplineSet
Colour: ffffff
EndChar

StartChar: dieresis
Encoding: 168 168 172
Width: 683
VWidth: 0
Flags: HMW
LayerCount: 2
Fore
SplineSet
423 1463.5 m 128,-1,1
 423 1543 423 1543 479 1543 c 128,-1,2
 535 1543 535 1543 535 1463.5 c 128,-1,3
 535 1384 535 1384 479 1384 c 128,-1,0
 423 1384 423 1384 423 1463.5 c 128,-1,1
211 1384 m 0,4,5
 154 1384 154 1384 154 1463.5 c 128,-1,6
 154 1543 154 1543 210.5 1543 c 128,-1,7
 267 1543 267 1543 267 1465 c 0,8,9
 267 1424 267 1424 254.5 1404 c 128,-1,10
 242 1384 242 1384 211 1384 c 0,4,5
EndSplineSet
Colour: ffffff
EndChar

StartChar: dieresiscomb
Encoding: 776 776 173
Width: 0
VWidth: 0
Flags: HMW
LayerCount: 2
Fore
SplineSet
423 1463.5 m 128,-1,1
 423 1543 423 1543 479 1543 c 128,-1,2
 535 1543 535 1543 535 1463.5 c 128,-1,3
 535 1384 535 1384 479 1384 c 128,-1,0
 423 1384 423 1384 423 1463.5 c 128,-1,1
211 1384 m 0,4,5
 154 1384 154 1384 154 1463.5 c 128,-1,6
 154 1543 154 1543 210.5 1543 c 128,-1,7
 267 1543 267 1543 267 1465 c 0,8,9
 267 1424 267 1424 254.5 1404 c 128,-1,10
 242 1384 242 1384 211 1384 c 0,4,5
EndSplineSet
Colour: ffffff
EndChar

StartChar: divide
Encoding: 247 247 174
Width: 984
VWidth: 0
Flags: HMW
LayerCount: 2
Fore
SplineSet
486 885 m 0,0,1
 553 885 553 885 553 785 c 128,-1,2
 553 685 553 685 489.5 685 c 128,-1,3
 426 685 426 685 426 785 c 128,-1,4
 426 885 426 885 486 885 c 0,0,1
486 317 m 0,5,6
 553 317 553 317 553 218.5 c 128,-1,7
 553 120 553 120 489.5 120 c 128,-1,8
 426 120 426 120 426 218.5 c 128,-1,9
 426 317 426 317 486 317 c 0,5,6
82 476 m 1,10,-1
 94 541 l 1,11,-1
 906 541 l 1,12,-1
 895 476 l 1,13,-1
 82 476 l 1,10,-1
EndSplineSet
Colour: ffffff
EndChar

StartChar: dollar
Encoding: 36 36 175
Width: 860
VWidth: 0
Flags: HMW
LayerCount: 2
Fore
SplineSet
739 90 m 128,-1,1
 652 0 652 0 503 -21 c 1,2,-1
 514 -164 l 1,3,-1
 396 -179 l 1,4,-1
 406 -26 l 1,5,6
 308 -22 308 -22 225 17.5 c 128,-1,7
 142 57 142 57 94 116 c 1,8,-1
 124 401 l 1,9,-1
 172 393 l 1,10,-1
 200 174 l 1,11,12
 227 121 227 121 287 86 c 128,-1,13
 347 51 347 51 421 41 c 1,14,-1
 426 54 l 1,15,-1
 426 594 l 1,16,17
 304 673 304 673 269 708 c 0,18,19
 198 778 198 778 170.5 834.5 c 128,-1,20
 143 891 143 891 143 956 c 0,21,22
 143 1085 143 1085 223.5 1165.5 c 128,-1,23
 304 1246 304 1246 413 1265 c 1,24,-1
 404 1396 l 1,25,-1
 513 1411 l 1,26,-1
 500 1270 l 1,27,28
 677 1261 677 1261 767 1161 c 1,29,-1
 734 851 l 1,30,-1
 688 858 l 1,31,-1
 661 1101 l 1,32,33
 638 1143 638 1143 588.5 1173 c 128,-1,34
 539 1203 539 1203 483 1211 c 1,35,-1
 480 1205 l 1,36,-1
 480 694 l 1,37,38
 497 683 497 683 528.5 662.5 c 128,-1,39
 560 642 560 642 578.5 630 c 128,-1,40
 597 618 597 618 626 598 c 128,-1,41
 655 578 655 578 672.5 564 c 128,-1,42
 690 550 690 550 713.5 529 c 128,-1,43
 737 508 737 508 751 491 c 0,44,45
 826 401 826 401 826 290.5 c 128,-1,0
 826 180 826 180 739 90 c 128,-1,1
431 728 m 1,46,-1
 431 1208 l 1,47,-1
 429 1213 l 1,48,49
 348 1206 348 1206 294.5 1150.5 c 128,-1,50
 241 1095 241 1095 241 1009 c 128,-1,51
 241 923 241 923 290.5 857.5 c 128,-1,52
 340 792 340 792 431 728 c 1,46,-1
716 262 m 0,53,54
 716 390 716 390 555 508 c 0,55,56
 526 529 526 529 482 557 c 1,57,-1
 482 54 l 1,58,-1
 491 37 l 1,59,60
 586 42 586 42 651 101 c 128,-1,61
 716 160 716 160 716 262 c 0,53,54
EndSplineSet
Colour: ffffff
EndChar

StartChar: dollar.osf
Encoding: 65538 -1 176
Width: 860
VWidth: 0
Flags: HMW
LayerCount: 2
Fore
SplineSet
613 708 m 128,-1,1
 613 634 613 634 543 627 c 1,2,-1
 534 663 l 1,3,4
 505 773 505 773 464.5 814 c 128,-1,5
 424 855 424 855 361.5 855 c 128,-1,6
 299 855 299 855 259.5 822.5 c 128,-1,7
 220 790 220 790 220 736 c 128,-1,8
 220 682 220 682 243.5 640.5 c 128,-1,9
 267 599 267 599 304.5 567 c 128,-1,10
 342 535 342 535 387 504.5 c 128,-1,11
 432 474 432 474 478 444 c 0,12,13
 522 412 522 412 560 380 c 0,14,15
 644 307 644 307 644.5 216 c 128,-1,16
 645 125 645 125 583.5 58.5 c 128,-1,17
 522 -8 522 -8 428 -28 c 1,18,-1
 438 -179 l 1,19,-1
 323 -197 l 1,20,-1
 334 -35 l 1,21,22
 233 -28 233 -28 162.5 31 c 128,-1,23
 92 90 92 90 92 169 c 128,-1,24
 92 248 92 248 172 268 c 1,25,26
 192 133 192 133 240.5 74 c 128,-1,27
 289 15 289 15 374 15 c 128,-1,28
 459 15 459 15 507 65 c 128,-1,29
 555 115 555 115 555 161 c 128,-1,30
 555 207 555 207 532 242 c 128,-1,31
 509 277 509 277 473 306 c 0,32,33
 436 335 436 335 392 364 c 0,34,35
 277 439 277 439 224 491 c 0,36,37
 142 571 142 571 142 664 c 128,-1,38
 142 757 142 757 192.5 819 c 128,-1,39
 243 881 243 881 342 895 c 1,40,-1
 330 1042 l 1,41,-1
 438 1060 l 1,42,-1
 426 897 l 1,43,44
 508 888 508 888 560.5 835 c 128,-1,0
 613 782 613 782 613 708 c 128,-1,1
EndSplineSet
Colour: ffffff
EndChar

StartChar: dotaccent
Encoding: 729 729 177
Width: 484
VWidth: 0
Flags: HMW
LayerCount: 2
Fore
SplineSet
293 1376 m 128,-1,1
 230 1376 230 1376 230 1476 c 128,-1,2
 230 1576 230 1576 293 1576 c 128,-1,3
 356 1576 356 1576 356 1476 c 128,-1,0
 356 1376 356 1376 293 1376 c 128,-1,1
EndSplineSet
Colour: ffffff
EndChar

StartChar: dotaccentcomb
Encoding: 775 775 178
Width: 0
VWidth: 0
Flags: HMW
LayerCount: 2
Fore
SplineSet
228 1549 m 0,0,1
 293 1549 293 1549 293 1449.5 c 128,-1,2
 293 1350 293 1350 231 1350 c 128,-1,3
 169 1350 169 1350 169 1449.5 c 128,-1,4
 169 1549 169 1549 228 1549 c 0,0,1
EndSplineSet
Colour: ffffff
EndChar

StartChar: dotbelowcomb
Encoding: 803 803 179
Width: 398
VWidth: 0
Flags: HMW
LayerCount: 2
Fore
SplineSet
43 -280 m 0,0,1
 43 -180 43 -180 106 -181 c 0,2,3
 169 -180 169 -180 169 -280 c 0,4,5
 169 -380 169 -380 106 -380 c 0,6,7
 43 -380 43 -380 43 -280 c 0,0,1
EndSplineSet
Colour: ffffff
EndChar

StartChar: dotlessi
Encoding: 305 305 180
Width: 570
VWidth: 0
Flags: HMW
LayerCount: 2
Fore
SplineSet
123 0 m 1,0,-1
 136 31 l 1,1,-1
 286 59 l 1,2,-1
 286 812 l 1,3,-1
 133 842 l 1,4,-1
 136 867 l 1,5,-1
 372 888 l 1,6,-1
 380 880 l 1,7,-1
 380 59 l 1,8,-1
 540 33 l 1,9,-1
 529 0 l 1,10,-1
 123 0 l 1,0,-1
EndSplineSet
Colour: ffffff
EndChar

StartChar: e
Encoding: 101 101 181
Width: 821
VWidth: 0
Flags: HMW
LayerCount: 2
Fore
SplineSet
638 614 m 128,-1,1
 638 695 638 695 586 756.5 c 128,-1,2
 534 818 534 818 447 818 c 128,-1,3
 360 818 360 818 300.5 732 c 128,-1,4
 241 646 241 646 241 492 c 1,5,-1
 628 514 l 1,6,0
 638 533 638 533 638 614 c 128,-1,1
508 874 m 0,7,8
 740 874 740 874 740 582 c 0,9,10
 740 523 740 523 722 451 c 1,11,-1
 239 444 l 1,12,13
 238 167 238 167 400 83 c 0,14,15
 458 53 458 53 534 53 c 0,16,17
 666 53 666 53 750 137 c 1,18,-1
 767 104 l 1,19,20
 722 44 722 44 647 7.5 c 128,-1,21
 572 -29 572 -29 477 -29 c 0,22,23
 326 -29 326 -29 231 82.5 c 128,-1,24
 136 194 136 194 136 409.5 c 128,-1,25
 136 625 136 625 245.5 749.5 c 128,-1,26
 355 874 355 874 508 874 c 0,7,8
EndSplineSet
Colour: ffffff
EndChar

StartChar: eacute
Encoding: 233 233 182
Width: 821
VWidth: 0
Flags: HMW
LayerCount: 2
Fore
SplineSet
638 614 m 128,-1,1
 638 695 638 695 586 756.5 c 128,-1,2
 534 818 534 818 447 818 c 128,-1,3
 360 818 360 818 300.5 732 c 128,-1,4
 241 646 241 646 241 492 c 1,5,-1
 628 514 l 1,6,0
 638 533 638 533 638 614 c 128,-1,1
508 874 m 0,7,8
 740 874 740 874 740 582 c 0,9,10
 740 523 740 523 722 451 c 1,11,-1
 239 444 l 1,12,13
 238 167 238 167 400 83 c 0,14,15
 458 53 458 53 534 53 c 0,16,17
 666 53 666 53 750 137 c 1,18,-1
 767 104 l 1,19,20
 722 44 722 44 647 7.5 c 128,-1,21
 572 -29 572 -29 477 -29 c 0,22,23
 326 -29 326 -29 231 82.5 c 128,-1,24
 136 194 136 194 136 409.5 c 128,-1,25
 136 625 136 625 245.5 749.5 c 128,-1,26
 355 874 355 874 508 874 c 0,7,8
405 998 m 1,27,-1
 537 1335 l 1,28,-1
 633 1296 l 1,29,-1
 450 972 l 1,30,-1
 405 998 l 1,27,-1
EndSplineSet
Colour: ffffff
EndChar

StartChar: ecaron
Encoding: 283 283 183
Width: 821
VWidth: 0
Flags: HMW
LayerCount: 2
Fore
SplineSet
638 614 m 128,-1,1
 638 695 638 695 586 756.5 c 128,-1,2
 534 818 534 818 447 818 c 128,-1,3
 360 818 360 818 300.5 732 c 128,-1,4
 241 646 241 646 241 492 c 1,5,-1
 628 514 l 1,6,0
 638 533 638 533 638 614 c 128,-1,1
508 874 m 0,7,8
 740 874 740 874 740 582 c 0,9,10
 740 523 740 523 722 451 c 1,11,-1
 239 444 l 1,12,13
 238 167 238 167 400 83 c 0,14,15
 458 53 458 53 534 53 c 0,16,17
 666 53 666 53 750 137 c 1,18,-1
 767 104 l 1,19,20
 722 44 722 44 647 7.5 c 128,-1,21
 572 -29 572 -29 477 -29 c 0,22,23
 326 -29 326 -29 231 82.5 c 128,-1,24
 136 194 136 194 136 409.5 c 128,-1,25
 136 625 136 625 245.5 749.5 c 128,-1,26
 355 874 355 874 508 874 c 0,7,8
283 1174 m 1,27,-1
 338 1223 l 1,28,-1
 504 1054 l 1,29,-1
 513 1054 l 1,30,-1
 656 1219 l 1,31,-1
 692 1192 l 1,32,-1
 518 1008 l 1,33,-1
 462 994 l 1,34,-1
 283 1174 l 1,27,-1
EndSplineSet
Colour: ffffff
EndChar

StartChar: ecircumflex
Encoding: 234 234 184
Width: 821
VWidth: 0
Flags: HMW
LayerCount: 2
Fore
SplineSet
638 614 m 128,-1,1
 638 695 638 695 586 756.5 c 128,-1,2
 534 818 534 818 447 818 c 128,-1,3
 360 818 360 818 300.5 732 c 128,-1,4
 241 646 241 646 241 492 c 1,5,-1
 628 514 l 1,6,0
 638 533 638 533 638 614 c 128,-1,1
508 874 m 0,7,8
 740 874 740 874 740 582 c 0,9,10
 740 523 740 523 722 451 c 1,11,-1
 239 444 l 1,12,13
 238 167 238 167 400 83 c 0,14,15
 458 53 458 53 534 53 c 0,16,17
 666 53 666 53 750 137 c 1,18,-1
 767 104 l 1,19,20
 722 44 722 44 647 7.5 c 128,-1,21
 572 -29 572 -29 477 -29 c 0,22,23
 326 -29 326 -29 231 82.5 c 128,-1,24
 136 194 136 194 136 409.5 c 128,-1,25
 136 625 136 625 245.5 749.5 c 128,-1,26
 355 874 355 874 508 874 c 0,7,8
275 1025 m 1,27,-1
 442 1206 l 1,28,-1
 496 1219 l 1,29,-1
 675 1033 l 1,30,-1
 643 996 l 1,31,-1
 462 1131 l 1,32,-1
 453 1131 l 1,33,-1
 296 995 l 1,34,-1
 275 1025 l 1,27,-1
EndSplineSet
Colour: ffffff
EndChar

StartChar: edieresis
Encoding: 235 235 185
Width: 821
VWidth: 0
Flags: HMW
LayerCount: 2
Fore
SplineSet
638 614 m 128,-1,1
 638 695 638 695 586 756.5 c 128,-1,2
 534 818 534 818 447 818 c 128,-1,3
 360 818 360 818 300.5 732 c 128,-1,4
 241 646 241 646 241 492 c 1,5,-1
 628 514 l 1,6,0
 638 533 638 533 638 614 c 128,-1,1
508 874 m 0,7,8
 740 874 740 874 740 582 c 0,9,10
 740 523 740 523 722 451 c 1,11,-1
 239 444 l 1,12,13
 238 167 238 167 400 83 c 0,14,15
 458 53 458 53 534 53 c 0,16,17
 666 53 666 53 750 137 c 1,18,-1
 767 104 l 1,19,20
 722 44 722 44 647 7.5 c 128,-1,21
 572 -29 572 -29 477 -29 c 0,22,23
 326 -29 326 -29 231 82.5 c 128,-1,24
 136 194 136 194 136 409.5 c 128,-1,25
 136 625 136 625 245.5 749.5 c 128,-1,26
 355 874 355 874 508 874 c 0,7,8
552 1083.5 m 128,-1,28
 552 1163 552 1163 608 1163 c 128,-1,29
 664 1163 664 1163 664 1083.5 c 128,-1,30
 664 1004 664 1004 608 1004 c 128,-1,27
 552 1004 552 1004 552 1083.5 c 128,-1,28
340 1004 m 0,31,32
 283 1004 283 1004 283 1083.5 c 128,-1,33
 283 1163 283 1163 339.5 1163 c 128,-1,34
 396 1163 396 1163 396 1085 c 0,35,36
 396 1044 396 1044 383.5 1024 c 128,-1,37
 371 1004 371 1004 340 1004 c 0,31,32
EndSplineSet
Colour: ffffff
EndChar

StartChar: edotaccent
Encoding: 279 279 186
Width: 821
VWidth: 0
Flags: HMW
LayerCount: 2
Fore
SplineSet
638 614 m 128,-1,1
 638 695 638 695 586 756.5 c 128,-1,2
 534 818 534 818 447 818 c 128,-1,3
 360 818 360 818 300.5 732 c 128,-1,4
 241 646 241 646 241 492 c 1,5,-1
 628 514 l 1,6,0
 638 533 638 533 638 614 c 128,-1,1
508 874 m 0,7,8
 740 874 740 874 740 582 c 0,9,10
 740 523 740 523 722 451 c 1,11,-1
 239 444 l 1,12,13
 238 167 238 167 400 83 c 0,14,15
 458 53 458 53 534 53 c 0,16,17
 666 53 666 53 750 137 c 1,18,-1
 767 104 l 1,19,20
 722 44 722 44 647 7.5 c 128,-1,21
 572 -29 572 -29 477 -29 c 0,22,23
 326 -29 326 -29 231 82.5 c 128,-1,24
 136 194 136 194 136 409.5 c 128,-1,25
 136 625 136 625 245.5 749.5 c 128,-1,26
 355 874 355 874 508 874 c 0,7,8
486 1013 m 128,-1,28
 423 1013 423 1013 423 1113 c 128,-1,29
 423 1213 423 1213 486 1213 c 128,-1,30
 549 1213 549 1213 549 1113 c 128,-1,27
 549 1013 549 1013 486 1013 c 128,-1,28
EndSplineSet
Colour: ffffff
EndChar

StartChar: egrave
Encoding: 232 232 187
Width: 821
VWidth: 0
Flags: HMW
LayerCount: 2
Fore
SplineSet
638 614 m 128,-1,1
 638 695 638 695 586 756.5 c 128,-1,2
 534 818 534 818 447 818 c 128,-1,3
 360 818 360 818 300.5 732 c 128,-1,4
 241 646 241 646 241 492 c 1,5,-1
 628 514 l 1,6,0
 638 533 638 533 638 614 c 128,-1,1
508 874 m 0,7,8
 740 874 740 874 740 582 c 0,9,10
 740 523 740 523 722 451 c 1,11,-1
 239 444 l 1,12,13
 238 167 238 167 400 83 c 0,14,15
 458 53 458 53 534 53 c 0,16,17
 666 53 666 53 750 137 c 1,18,-1
 767 104 l 1,19,20
 722 44 722 44 647 7.5 c 128,-1,21
 572 -29 572 -29 477 -29 c 0,22,23
 326 -29 326 -29 231 82.5 c 128,-1,24
 136 194 136 194 136 409.5 c 128,-1,25
 136 625 136 625 245.5 749.5 c 128,-1,26
 355 874 355 874 508 874 c 0,7,8
298 1307 m 1,27,-1
 392 1344 l 1,28,-1
 525 1008 l 1,29,-1
 479 981 l 1,30,-1
 298 1307 l 1,27,-1
EndSplineSet
Colour: ffffff
EndChar

StartChar: eight
Encoding: 56 56 188
Width: 1000
VWidth: 0
Flags: HMW
LayerCount: 2
Fore
SplineSet
746 891 m 0,0,1
 746 995 746 995 676.5 1075.5 c 128,-1,2
 607 1156 607 1156 521.5 1156 c 128,-1,3
 436 1156 436 1156 378 1102 c 128,-1,4
 320 1048 320 1048 320 961.5 c 128,-1,5
 320 875 320 875 375.5 811.5 c 128,-1,6
 431 748 431 748 597 634 c 1,7,8
 746 745 746 745 746 891 c 0,0,1
290 325 m 0,9,10
 290 189 290 189 380 111 c 128,-1,11
 470 33 470 33 568.5 33 c 128,-1,12
 667 33 667 33 729 88 c 128,-1,13
 791 143 791 143 791 229.5 c 128,-1,14
 791 316 791 316 726 385.5 c 128,-1,15
 661 455 661 455 465 580 c 1,16,17
 392 535 392 535 341 465.5 c 128,-1,18
 290 396 290 396 290 325 c 0,9,10
200 281 m 0,19,20
 200 368 200 368 257.5 453 c 128,-1,21
 315 538 315 538 426 605 c 1,22,-1
 426 610 l 1,23,24
 245 735 245 735 245 914 c 0,25,26
 245 1037 245 1037 328.5 1119.5 c 128,-1,27
 412 1202 412 1202 550.5 1202 c 128,-1,28
 689 1202 689 1202 757.5 1124.5 c 128,-1,29
 826 1047 826 1047 826 926 c 0,30,31
 826 738 826 738 640 610 c 1,32,-1
 639 607 l 1,33,34
 764 527 764 527 822 451 c 128,-1,35
 880 375 880 375 880 281 c 0,36,37
 880 148 880 148 770 60.5 c 128,-1,38
 660 -27 660 -27 519 -27 c 128,-1,39
 378 -27 378 -27 289 61.5 c 128,-1,40
 200 150 200 150 200 281 c 0,19,20
EndSplineSet
Substitution2: "'sups' Superscript lookup 0 subtable" eight.superior
Colour: ffffff
EndChar

StartChar: eight.osf
Encoding: 65539 -1 189
Width: 825
VWidth: 0
Flags: HMW
LayerCount: 2
Fore
SplineSet
626 891 m 0,0,1
 626 994 626 994 556 1075 c 128,-1,2
 486 1156 486 1156 401 1156 c 128,-1,3
 316 1156 316 1156 258 1102 c 128,-1,4
 200 1048 200 1048 200 961.5 c 128,-1,5
 200 875 200 875 255.5 811.5 c 128,-1,6
 311 748 311 748 476 634 c 1,7,8
 626 745 626 745 626 891 c 0,0,1
345 580 m 1,9,10
 170 471 170 471 170 330 c 128,-1,11
 170 189 170 189 260 111 c 128,-1,12
 350 33 350 33 448.5 33 c 128,-1,13
 547 33 547 33 609.5 88.5 c 128,-1,14
 672 144 672 144 672 230 c 128,-1,15
 672 316 672 316 607 385.5 c 128,-1,16
 542 455 542 455 345 580 c 1,9,10
79 281 m 0,17,18
 79 450 79 450 306 605 c 1,19,-1
 306 610 l 1,20,21
 125 735 125 735 125 914 c 0,22,23
 125 1037 125 1037 207.5 1119.5 c 128,-1,24
 290 1202 290 1202 428.5 1202 c 128,-1,25
 567 1202 567 1202 635.5 1124.5 c 128,-1,26
 704 1047 704 1047 704 926 c 0,27,28
 704 739 704 739 517 610 c 1,29,-1
 516 607 l 1,30,31
 641 527 641 527 699.5 451 c 128,-1,32
 758 375 758 375 758 281 c 0,33,34
 758 148 758 148 647.5 60.5 c 128,-1,35
 537 -27 537 -27 396 -27 c 128,-1,36
 255 -27 255 -27 167 61.5 c 128,-1,37
 79 150 79 150 79 281 c 0,17,18
EndSplineSet
Colour: ffffff
EndChar

StartChar: ellipsis
Encoding: 8230 8230 190
Width: 1534
VWidth: 0
Flags: HMW
LayerCount: 2
Fore
SplineSet
762 -33 m 128,-1,1
 699 -33 699 -33 699 67 c 128,-1,2
 699 167 699 167 762 167 c 128,-1,3
 825 167 825 167 825 67 c 128,-1,0
 825 -33 825 -33 762 -33 c 128,-1,1
1234 -33 m 128,-1,5
 1171 -33 1171 -33 1171 67 c 128,-1,6
 1171 167 1171 167 1234 167 c 128,-1,7
 1297 167 1297 167 1297 67 c 128,-1,4
 1297 -33 1297 -33 1234 -33 c 128,-1,5
316 -33 m 128,-1,9
 253 -33 253 -33 253 67 c 128,-1,10
 253 167 253 167 316 167 c 128,-1,11
 379 167 379 167 379 67 c 128,-1,8
 379 -33 379 -33 316 -33 c 128,-1,9
EndSplineSet
Colour: ffffff
EndChar

StartChar: emacron
Encoding: 275 275 191
Width: 821
VWidth: 0
Flags: HMW
LayerCount: 2
Fore
SplineSet
638 614 m 128,-1,1
 638 695 638 695 586 756.5 c 128,-1,2
 534 818 534 818 447 818 c 128,-1,3
 360 818 360 818 300.5 732 c 128,-1,4
 241 646 241 646 241 492 c 1,5,-1
 628 514 l 1,6,0
 638 533 638 533 638 614 c 128,-1,1
508 874 m 0,7,8
 740 874 740 874 740 582 c 0,9,10
 740 523 740 523 722 451 c 1,11,-1
 239 444 l 1,12,13
 238 167 238 167 400 83 c 0,14,15
 458 53 458 53 534 53 c 0,16,17
 666 53 666 53 750 137 c 1,18,-1
 767 104 l 1,19,20
 722 44 722 44 647 7.5 c 128,-1,21
 572 -29 572 -29 477 -29 c 0,22,23
 326 -29 326 -29 231 82.5 c 128,-1,24
 136 194 136 194 136 409.5 c 128,-1,25
 136 625 136 625 245.5 749.5 c 128,-1,26
 355 874 355 874 508 874 c 0,7,8
254 1017 m 1,27,-1
 263 1069 l 1,28,-1
 703 1069 l 1,29,-1
 695 1017 l 1,30,-1
 254 1017 l 1,27,-1
EndSplineSet
Colour: ffffff
EndChar

StartChar: emdash
Encoding: 8212 8212 192
Width: 1297
VWidth: 0
Flags: HMW
LayerCount: 2
Fore
SplineSet
85 430 m 1,0,-1
 98 493 l 1,1,-1
 1217 498 l 1,2,-1
 1205 437 l 1,3,-1
 85 430 l 1,0,-1
EndSplineSet
Colour: ffffff
EndChar

StartChar: emptyset
Encoding: 8709 8709 193
Width: 985
VWidth: 0
Flags: HMW
LayerCount: 2
Fore
SplineSet
483 -37 m 0,0,1
 277 -37 277 -37 146 106 c 1,2,-1
 53 9 l 1,3,-1
 3 87 l 1,4,-1
 102 163 l 1,5,6
 24 283 24 283 24 425.5 c 128,-1,7
 24 568 24 568 89.5 681.5 c 128,-1,8
 155 795 155 795 261.5 863 c 128,-1,9
 368 931 368 931 482 931 c 0,10,11
 682 931 682 931 808 795 c 1,12,-1
 895 889 l 1,13,-1
 945 813 l 1,14,-1
 852 741 l 1,15,16
 936 615 936 615 936 465 c 128,-1,17
 936 315 936 315 881.5 206 c 128,-1,18
 827 97 827 97 722.5 30 c 128,-1,19
 618 -37 618 -37 483 -37 c 0,0,1
484 27 m 0,20,21
 648 27 648 27 748 134 c 128,-1,22
 848 241 848 241 848 444 c 0,23,24
 848 588 848 588 785 691 c 1,25,-1
 199 167 l 1,26,27
 252 99 252 99 327.5 63 c 128,-1,28
 403 27 403 27 484 27 c 0,20,21
485 861 m 128,-1,30
 321 861 321 861 216 746.5 c 128,-1,31
 111 632 111 632 111 444 c 0,32,33
 111 312 111 312 169 212 c 1,34,-1
 753 736 l 1,35,29
 649 861 649 861 485 861 c 128,-1,30
EndSplineSet
Colour: ffffff
EndChar

StartChar: endash
Encoding: 8211 8211 194
Width: 788
VWidth: 0
Flags: HMW
LayerCount: 2
Fore
SplineSet
85 430 m 1,0,-1
 97 493 l 1,1,-1
 706 498 l 1,2,-1
 697 437 l 1,3,-1
 85 430 l 1,0,-1
EndSplineSet
Colour: ffffff
EndChar

StartChar: eng
Encoding: 331 331 195
Width: 967
VWidth: 0
Flags: HMW
LayerCount: 2
Fore
SplineSet
694 880 m 128,-1,1
 790 880 790 880 852 808.5 c 128,-1,2
 914 737 914 737 914 584 c 2,3,-1
 914 149 l 1,4,5
 913 -196 913 -196 691 -353 c 1,6,-1
 646 -384 l 1,7,-1
 614 -335 l 1,8,9
 708 -264 708 -264 763.5 -151 c 128,-1,10
 819 -38 819 -38 819 149 c 2,11,-1
 819 559 l 2,12,13
 819 683 819 683 771.5 742 c 128,-1,14
 724 801 724 801 646 801 c 128,-1,15
 568 801 568 801 512.5 772.5 c 128,-1,16
 457 744 457 744 374 665 c 1,17,-1
 374 57 l 1,18,-1
 516 36 l 1,19,-1
 510 0 l 1,20,-1
 120 0 l 1,21,-1
 127 31 l 1,22,-1
 281 57 l 1,23,-1
 281 788 l 1,24,-1
 127 815 l 1,25,-1
 129 843 l 1,26,-1
 363 863 l 1,27,-1
 369 854 l 1,28,-1
 365 717 l 1,29,-1
 372 717 l 1,30,31
 415 773 415 773 506.5 826.5 c 128,-1,0
 598 880 598 880 694 880 c 128,-1,1
EndSplineSet
Colour: ffffff
EndChar

StartChar: eogonek
Encoding: 281 281 196
Width: 821
VWidth: 0
Flags: HMW
LayerCount: 2
Fore
SplineSet
638 614 m 128,-1,1
 638 695 638 695 586 756.5 c 128,-1,2
 534 818 534 818 447 818 c 128,-1,3
 360 818 360 818 300.5 732 c 128,-1,4
 241 646 241 646 241 492 c 1,5,-1
 628 514 l 1,6,0
 638 533 638 533 638 614 c 128,-1,1
508 874 m 0,7,8
 740 874 740 874 740 582 c 0,9,10
 740 523 740 523 722 451 c 1,11,-1
 239 444 l 1,12,13
 238 167 238 167 400 83 c 0,14,15
 458 53 458 53 534 53 c 0,16,17
 666 53 666 53 750 137 c 1,18,-1
 767 104 l 1,19,20
 707 25 707 25 605 -9 c 1,21,22
 535 -99 535 -99 535 -162 c 128,-1,23
 535 -225 535 -225 569.5 -268 c 128,-1,24
 604 -311 604 -311 676 -353 c 1,25,-1
 643 -387 l 1,26,27
 541 -376 541 -376 489 -326.5 c 128,-1,28
 437 -277 437 -277 437 -223 c 128,-1,29
 437 -169 437 -169 458 -126 c 128,-1,30
 479 -83 479 -83 537 -25 c 1,31,32
 508 -29 508 -29 477 -29 c 0,33,34
 326 -29 326 -29 231 82.5 c 128,-1,35
 136 194 136 194 136 409.5 c 128,-1,36
 136 625 136 625 245.5 749.5 c 128,-1,37
 355 874 355 874 508 874 c 0,7,8
EndSplineSet
Colour: ffffff
EndChar

StartChar: equal
Encoding: 61 61 197
Width: 791
VWidth: 0
Flags: HMW
LayerCount: 2
Fore
SplineSet
85 580 m 1,0,-1
 98 645 l 1,1,-1
 711 645 l 1,2,-1
 700 580 l 1,3,-1
 85 580 l 1,0,-1
82 340 m 1,4,-1
 94 405 l 1,5,-1
 709 405 l 1,6,-1
 698 340 l 1,7,-1
 82 340 l 1,4,-1
EndSplineSet
Colour: ffffff
EndChar

StartChar: eth
Encoding: 240 240 198
Width: 949
VWidth: 0
Flags: HMW
LayerCount: 2
Fore
SplineSet
541 29 m 0,0,1
 614 29 614 29 668 84 c 0,2,3
 772 190 772 190 772 423 c 128,-1,4
 772 656 772 656 680 774.5 c 128,-1,5
 588 893 588 893 480 893 c 2,6,-1
 476 893 l 1,7,8
 402 892 402 892 352 832 c 0,9,10
 260 723 260 723 260.5 498.5 c 128,-1,11
 261 274 261 274 341 151.5 c 128,-1,12
 421 29 421 29 541 29 c 0,0,1
160 451 m 0,13,14
 160 677 160 677 248 813 c 128,-1,15
 336 949 336 949 492 949 c 0,16,17
 574 949 574 949 641 897.5 c 128,-1,18
 708 846 708 846 732 782 c 1,19,-1
 739 783 l 1,20,21
 700 941 700 941 584 1099 c 1,22,-1
 335 1048 l 1,23,-1
 347 1099 l 1,24,-1
 553 1141 l 1,25,26
 502 1205 502 1205 401 1302 c 1,27,-1
 467 1302 l 1,28,29
 555 1246 555 1246 632 1157 c 1,30,-1
 794 1192 l 1,31,-1
 785 1141 l 1,32,-1
 667 1117 l 1,33,34
 873 848 873 848 873 465 c 0,35,36
 873 236 873 236 776.5 104.5 c 128,-1,37
 680 -27 680 -27 517 -27 c 0,38,39
 313 -27 313 -27 216 178 c 0,40,41
 160 296 160 296 160 451 c 0,13,14
EndSplineSet
Colour: ffffff
EndChar

StartChar: exclam
Encoding: 33 33 199
Width: 481
VWidth: 0
Flags: HMW
LayerCount: 2
Fore
SplineSet
215 1253 m 0,0,1
 215 1272 215 1272 235 1283 c 128,-1,2
 255 1294 255 1294 284 1294 c 0,3,4
 337 1294 337 1294 337 1253 c 0,5,6
 337 946 337 946 288 360 c 1,7,-1
 244 369 l 1,8,9
 215 986 215 986 215 1253 c 0,0,1
209 66 m 0,10,11
 209 107 209 107 225 133 c 128,-1,12
 241 159 241 159 267 159 c 0,13,14
 293 159 293 159 309.5 133 c 128,-1,15
 326 107 326 107 326 66 c 0,16,17
 326 -33 326 -33 268 -33 c 0,18,19
 210 -33 210 -33 209 66 c 0,10,11
EndSplineSet
Colour: ffffff
EndChar

StartChar: exclamdown
Encoding: 161 161 200
Width: 481
VWidth: 0
Flags: HMW
LayerCount: 2
Fore
SplineSet
184 809 m 0,0,1
 184 910 184 910 242 910 c 0,2,3
 300 910 300 910 300 809 c 0,4,5
 300 768 300 768 284 742.5 c 128,-1,6
 268 717 268 717 242 717 c 0,7,8
 216 717 216 717 200 742.5 c 128,-1,9
 184 768 184 768 184 809 c 0,0,1
172 -375 m 0,10,11
 172 -71 172 -71 221 515 c 1,12,-1
 227 517 l 1,13,-1
 267 509 l 1,14,-1
 267 507 l 1,15,16
 296 -106 296 -106 296 -374 c 2,17,-1
 296 -375 l 1,18,19
 282 -416 282 -416 227 -416 c 0,20,21
 172 -416 172 -416 172 -375 c 0,10,11
EndSplineSet
Colour: ffffff
EndChar

StartChar: f
Encoding: 102 102 201
Width: 607
VWidth: 0
Flags: HMW
LayerCount: 2
Fore
SplineSet
268 798 m 1,0,-1
 120 798 l 1,1,-1
 132 833 l 1,2,-1
 271 855 l 1,3,4
 296 1182 296 1182 482 1278 c 0,5,6
 534 1304 534 1304 599.5 1304 c 128,-1,7
 665 1304 665 1304 711.5 1271.5 c 128,-1,8
 758 1239 758 1239 758 1189.5 c 128,-1,9
 758 1140 758 1140 710 1121 c 1,10,11
 637 1241 637 1241 532 1241 c 0,12,13
 467 1241 467 1241 419 1170.5 c 128,-1,14
 371 1100 371 1100 371 982 c 2,15,-1
 371 848 l 1,16,-1
 627 848 l 1,17,-1
 616 798 l 1,18,-1
 371 798 l 1,19,-1
 371 61 l 1,20,-1
 616 39 l 1,21,-1
 609 0 l 1,22,-1
 105 0 l 1,23,-1
 118 30 l 1,24,-1
 268 59 l 1,25,-1
 268 798 l 1,0,-1
EndSplineSet
Colour: ffffff
EndChar

StartChar: f.alt2
Encoding: 65540 -1 202
Width: 607
VWidth: 0
Flags: HMW
LayerCount: 2
Fore
SplineSet
464 1241 m 0,0,1
 427 1241 427 1241 399 1170 c 128,-1,2
 371 1099 371 1099 371 982 c 2,3,-1
 371 848 l 1,4,-1
 627 848 l 1,5,-1
 616 798 l 1,6,-1
 371 798 l 1,7,-1
 371 61 l 1,8,-1
 616 39 l 1,9,-1
 609 0 l 1,10,-1
 105 0 l 1,11,-1
 118 30 l 1,12,-1
 268 59 l 1,13,-1
 268 798 l 1,14,-1
 120 798 l 1,15,-1
 132 833 l 1,16,-1
 271 855 l 1,17,18
 271 1186 271 1186 431 1280 c 0,19,20
 472 1304 472 1304 516 1304 c 0,21,22
 641 1304 641 1304 641 1225 c 0,23,24
 641 1170 641 1170 592 1151 c 1,25,26
 538 1241 538 1241 464 1241 c 0,0,1
EndSplineSet
Colour: ffffff
EndChar

StartChar: five
Encoding: 53 53 203
Width: 1000
VWidth: 0
Flags: HMW
LayerCount: 2
Fore
SplineSet
486.5 47 m 128,-1,1
 608 47 608 47 676 123 c 128,-1,2
 744 199 744 199 744 335.5 c 128,-1,3
 744 472 744 472 610 568.5 c 128,-1,4
 476 665 476 665 274 677 c 1,5,-1
 385 1171 l 1,6,-1
 813 1198 l 1,7,-1
 797 1081 l 1,8,-1
 414 1063 l 1,9,-1
 363 779 l 1,10,11
 599 761 599 761 731 652 c 128,-1,12
 863 543 863 543 863 382.5 c 128,-1,13
 863 222 863 222 744.5 107.5 c 128,-1,14
 626 -7 626 -7 458.5 -7 c 128,-1,15
 291 -7 291 -7 169 103 c 1,16,-1
 200 351 l 1,17,-1
 248 340 l 1,18,-1
 263 154 l 1,19,0
 365 47 365 47 486.5 47 c 128,-1,1
EndSplineSet
Substitution2: "'sups' Superscript lookup 0 subtable" five.superior
Colour: ffffff
EndChar

StartChar: five.osf
Encoding: 65541 -1 204
Width: 1000
VWidth: 0
Flags: HMW
LayerCount: 2
Fore
SplineSet
-43 -143.5 m 128,-1,1
 -43 -98 -43 -98 -14.5 -57.5 c 128,-1,2
 14 -17 14 -17 48 -15 c 1,3,4
 76 -125 76 -125 132 -180 c 128,-1,5
 188 -235 188 -235 288 -235 c 128,-1,6
 388 -235 388 -235 479.5 -161.5 c 128,-1,7
 571 -88 571 -88 571 61.5 c 128,-1,8
 571 211 571 211 450 298.5 c 128,-1,9
 329 386 329 386 120 401 c 1,10,-1
 206 912 l 1,11,-1
 652 948 l 1,12,-1
 635 831 l 1,13,-1
 261 804 l 1,14,-1
 206 503 l 1,15,16
 426 484 426 484 557 385 c 128,-1,17
 688 286 688 286 688 111.5 c 128,-1,18
 688 -63 688 -63 564 -180 c 128,-1,19
 440 -297 440 -297 243 -297 c 0,20,21
 88 -297 88 -297 3 -227 c 0,22,0
 -43 -189 -43 -189 -43 -143.5 c 128,-1,1
EndSplineSet
Colour: ffffff
EndChar

StartChar: four
Encoding: 52 52 205
Width: 1000
VWidth: 0
Flags: HMW
LayerCount: 2
Fore
SplineSet
604 444 m 1,0,-1
 604 984 l 1,1,-1
 208 444 l 1,2,-1
 604 444 l 1,0,-1
713 683 m 2,3,-1
 713 444 l 1,4,-1
 969 444 l 1,5,-1
 952 369 l 1,6,-1
 713 369 l 1,7,-1
 713 66 l 1,8,-1
 915 47 l 1,9,-1
 905 1 l 1,10,-1
 342 1 l 1,11,-1
 350 43 l 1,12,-1
 607 73 l 1,13,-1
 607 372 l 1,14,-1
 112 372 l 1,15,-1
 98 398 l 1,16,-1
 688 1187 l 1,17,-1
 722 1175 l 1,18,19
 713 1023 713 1023 713 683 c 2,3,-1
EndSplineSet
Substitution2: "'sups' Superscript lookup 0 subtable" four.superior
Colour: ffffff
EndChar

StartChar: four.osf
Encoding: 65542 -1 206
Width: 948
VWidth: 0
Flags: HMW
LayerCount: 2
Fore
SplineSet
612 200 m 1,0,-1
 612 751 l 1,1,-1
 222 200 l 1,2,-1
 612 200 l 1,0,-1
721 476 m 2,3,-1
 721 200 l 1,4,-1
 976 200 l 1,5,-1
 961 125 l 1,6,-1
 721 125 l 1,7,-1
 721 -271 l 1,8,-1
 616 -297 l 1,9,-1
 616 127 l 1,10,-1
 121 127 l 1,11,-1
 106 154 l 1,12,-1
 698 969 l 1,13,-1
 732 958 l 1,14,15
 721 773 721 773 721 476 c 2,3,-1
EndSplineSet
Colour: ffffff
EndChar

StartChar: fraction
Encoding: 8260 8260 207
Width: 1739
VWidth: 0
Flags: HMW
LayerCount: 2
Fore
SplineSet
205 -43 m 1,0,-1
 551 588 l 1,1,-1
 867 1212 l 1,2,-1
 964 1207 l 1,3,-1
 964 1206 l 1,4,-1
 630 591 l 1,5,-1
 306 -47 l 1,6,-1
 205 -43 l 1,0,-1
EndSplineSet
Colour: ffffff
EndChar

StartChar: g
Encoding: 103 103 208
Width: 840
VWidth: 0
Flags: HMW
LayerCount: 2
Fore
SplineSet
251 594.5 m 128,-1,1
 251 494 251 494 307.5 415.5 c 128,-1,2
 364 337 364 337 443.5 337 c 128,-1,3
 523 337 523 337 572.5 393.5 c 128,-1,4
 622 450 622 450 622 558.5 c 128,-1,5
 622 667 622 667 569.5 747 c 128,-1,6
 517 827 517 827 430 827 c 128,-1,7
 343 827 343 827 297 761 c 128,-1,0
 251 695 251 695 251 594.5 c 128,-1,1
172 -123 m 0,8,9
 172 -319 172 -319 484 -319 c 0,10,11
 588 -319 588 -319 669 -264 c 128,-1,12
 750 -209 750 -209 750 -119.5 c 128,-1,13
 750 -30 750 -30 721 -4.5 c 128,-1,14
 692 21 692 21 648.5 26 c 128,-1,15
 605 31 605 31 559 31 c 2,16,-1
 307 31 l 1,17,18
 172 -23 172 -23 172 -123 c 0,8,9
160 160 m 0,19,20
 160 223 160 223 297 317 c 1,21,22
 247 342 247 342 203 408 c 128,-1,23
 159 474 159 474 159 565 c 0,24,25
 159 691 159 691 246.5 782 c 128,-1,26
 334 873 334 873 462 873 c 0,27,28
 542 873 542 873 633 809 c 1,29,-1
 858 826 l 1,30,-1
 868 813 l 1,31,-1
 837 734 l 1,32,-1
 829 732 l 1,33,-1
 670 772 l 1,34,-1
 665 768 l 1,35,36
 680 746 680 746 698.5 685.5 c 128,-1,37
 717 625 717 625 717 576 c 0,38,39
 717 458 717 458 626.5 369.5 c 128,-1,40
 536 281 536 281 426 281 c 0,41,42
 368 281 368 281 330 300 c 1,43,44
 324 294 324 294 308 280 c 0,45,46
 250 229 250 229 250 195 c 0,47,48
 250 114 250 114 406 114 c 2,49,-1
 576 113 l 1,50,51
 754 113 754 113 796.5 69.5 c 128,-1,52
 839 26 839 26 837 -64 c 0,53,54
 833 -195 833 -195 707 -291 c 128,-1,55
 581 -387 581 -387 417 -387 c 128,-1,56
 253 -387 253 -387 164.5 -326 c 128,-1,57
 76 -265 76 -265 76 -176.5 c 128,-1,58
 76 -88 76 -88 131.5 -42 c 128,-1,59
 187 4 187 4 256 39 c 1,60,-1
 256 44 l 1,61,62
 216 61 216 61 188 91 c 128,-1,63
 160 121 160 121 160 160 c 0,19,20
EndSplineSet
Colour: ffffff
EndChar

StartChar: gbreve
Encoding: 287 287 209
Width: 840
VWidth: 0
Flags: HMW
LayerCount: 2
Fore
SplineSet
251 594.5 m 128,-1,1
 251 494 251 494 307.5 415.5 c 128,-1,2
 364 337 364 337 443.5 337 c 128,-1,3
 523 337 523 337 572.5 393.5 c 128,-1,4
 622 450 622 450 622 558.5 c 128,-1,5
 622 667 622 667 569.5 747 c 128,-1,6
 517 827 517 827 430 827 c 128,-1,7
 343 827 343 827 297 761 c 128,-1,0
 251 695 251 695 251 594.5 c 128,-1,1
172 -123 m 0,8,9
 172 -319 172 -319 484 -319 c 0,10,11
 588 -319 588 -319 669 -264 c 128,-1,12
 750 -209 750 -209 750 -119.5 c 128,-1,13
 750 -30 750 -30 721 -4.5 c 128,-1,14
 692 21 692 21 648.5 26 c 128,-1,15
 605 31 605 31 559 31 c 2,16,-1
 307 31 l 1,17,18
 172 -23 172 -23 172 -123 c 0,8,9
160 160 m 0,19,20
 160 223 160 223 297 317 c 1,21,22
 247 342 247 342 203 408 c 128,-1,23
 159 474 159 474 159 565 c 0,24,25
 159 691 159 691 246.5 782 c 128,-1,26
 334 873 334 873 462 873 c 0,27,28
 542 873 542 873 633 809 c 1,29,-1
 858 826 l 1,30,-1
 868 813 l 1,31,-1
 837 734 l 1,32,-1
 829 732 l 1,33,-1
 670 772 l 1,34,-1
 665 768 l 1,35,36
 680 746 680 746 698.5 685.5 c 128,-1,37
 717 625 717 625 717 576 c 0,38,39
 717 458 717 458 626.5 369.5 c 128,-1,40
 536 281 536 281 426 281 c 0,41,42
 368 281 368 281 330 300 c 1,43,44
 324 294 324 294 308 280 c 0,45,46
 250 229 250 229 250 195 c 0,47,48
 250 114 250 114 406 114 c 2,49,-1
 576 113 l 1,50,51
 754 113 754 113 796.5 69.5 c 128,-1,52
 839 26 839 26 837 -64 c 0,53,54
 833 -195 833 -195 707 -291 c 128,-1,55
 581 -387 581 -387 417 -387 c 128,-1,56
 253 -387 253 -387 164.5 -326 c 128,-1,57
 76 -265 76 -265 76 -176.5 c 128,-1,58
 76 -88 76 -88 131.5 -42 c 128,-1,59
 187 4 187 4 256 39 c 1,60,-1
 256 44 l 1,61,62
 216 61 216 61 188 91 c 128,-1,63
 160 121 160 121 160 160 c 0,19,20
459.5 1087 m 128,-1,65
 556 1087 556 1087 626 1216 c 1,66,-1
 649 1195 l 1,67,68
 589 1012 589 1012 450.5 1012 c 128,-1,69
 312 1012 312 1012 267 1190 c 1,70,-1
 297 1214 l 1,71,64
 363 1087 363 1087 459.5 1087 c 128,-1,65
EndSplineSet
Colour: ffffff
EndChar

StartChar: gcommaaccent
Encoding: 291 291 210
Width: 840
VWidth: 0
Flags: HMW
LayerCount: 2
Fore
SplineSet
251 594.5 m 128,-1,1
 251 494 251 494 307.5 415.5 c 128,-1,2
 364 337 364 337 443.5 337 c 128,-1,3
 523 337 523 337 572.5 393.5 c 128,-1,4
 622 450 622 450 622 558.5 c 128,-1,5
 622 667 622 667 569.5 747 c 128,-1,6
 517 827 517 827 430 827 c 128,-1,7
 343 827 343 827 297 761 c 128,-1,0
 251 695 251 695 251 594.5 c 128,-1,1
172 -123 m 0,8,9
 172 -319 172 -319 484 -319 c 0,10,11
 588 -319 588 -319 669 -264 c 128,-1,12
 750 -209 750 -209 750 -119.5 c 128,-1,13
 750 -30 750 -30 721 -4.5 c 128,-1,14
 692 21 692 21 648.5 26 c 128,-1,15
 605 31 605 31 559 31 c 2,16,-1
 307 31 l 1,17,18
 172 -23 172 -23 172 -123 c 0,8,9
160 160 m 0,19,20
 160 223 160 223 297 317 c 1,21,22
 247 342 247 342 203 408 c 128,-1,23
 159 474 159 474 159 565 c 0,24,25
 159 691 159 691 246.5 782 c 128,-1,26
 334 873 334 873 462 873 c 0,27,28
 542 873 542 873 633 809 c 1,29,-1
 858 826 l 1,30,-1
 868 813 l 1,31,-1
 837 734 l 1,32,-1
 829 732 l 1,33,-1
 670 772 l 1,34,-1
 665 768 l 1,35,36
 680 746 680 746 698.5 685.5 c 128,-1,37
 717 625 717 625 717 576 c 0,38,39
 717 458 717 458 626.5 369.5 c 128,-1,40
 536 281 536 281 426 281 c 0,41,42
 368 281 368 281 330 300 c 1,43,44
 324 294 324 294 308 280 c 0,45,46
 250 229 250 229 250 195 c 0,47,48
 250 114 250 114 406 114 c 2,49,-1
 576 113 l 1,50,51
 754 113 754 113 796.5 69.5 c 128,-1,52
 839 26 839 26 837 -64 c 0,53,54
 833 -195 833 -195 707 -291 c 128,-1,55
 581 -387 581 -387 417 -387 c 128,-1,56
 253 -387 253 -387 164.5 -326 c 128,-1,57
 76 -265 76 -265 76 -176.5 c 128,-1,58
 76 -88 76 -88 131.5 -42 c 128,-1,59
 187 4 187 4 256 39 c 1,60,-1
 256 44 l 1,61,62
 216 61 216 61 188 91 c 128,-1,63
 160 121 160 121 160 160 c 0,19,20
430 1148 m 0,64,65
 430 1065 430 1065 535 1058 c 1,66,67
 535 1034 535 1034 513 1013 c 128,-1,68
 491 992 491 992 452 992 c 128,-1,69
 413 992 413 992 383.5 1024 c 128,-1,70
 354 1056 354 1056 354 1102 c 128,-1,71
 354 1148 354 1148 370 1183 c 128,-1,72
 386 1218 386 1218 430 1251 c 128,-1,73
 474 1284 474 1284 540 1297 c 1,74,-1
 556 1260 l 1,75,76
 496 1246 496 1246 463 1216.5 c 128,-1,77
 430 1187 430 1187 430 1148 c 0,64,65
EndSplineSet
Colour: ffffff
EndChar

StartChar: gdotaccent
Encoding: 289 289 211
Width: 840
VWidth: 0
Flags: HMW
LayerCount: 2
Fore
SplineSet
453 983 m 128,-1,1
 390 983 390 983 390 1083 c 128,-1,2
 390 1183 390 1183 453 1183 c 128,-1,3
 516 1183 516 1183 516 1083 c 128,-1,0
 516 983 516 983 453 983 c 128,-1,1
251 594.5 m 128,-1,5
 251 494 251 494 307.5 415.5 c 128,-1,6
 364 337 364 337 443.5 337 c 128,-1,7
 523 337 523 337 572.5 393.5 c 128,-1,8
 622 450 622 450 622 558.5 c 128,-1,9
 622 667 622 667 569.5 747 c 128,-1,10
 517 827 517 827 430 827 c 128,-1,11
 343 827 343 827 297 761 c 128,-1,4
 251 695 251 695 251 594.5 c 128,-1,5
172 -123 m 0,12,13
 172 -319 172 -319 484 -319 c 0,14,15
 588 -319 588 -319 669 -264 c 128,-1,16
 750 -209 750 -209 750 -119.5 c 128,-1,17
 750 -30 750 -30 721 -4.5 c 128,-1,18
 692 21 692 21 648.5 26 c 128,-1,19
 605 31 605 31 559 31 c 2,20,-1
 307 31 l 1,21,22
 172 -23 172 -23 172 -123 c 0,12,13
160 160 m 0,23,24
 160 223 160 223 297 317 c 1,25,26
 247 342 247 342 203 408 c 128,-1,27
 159 474 159 474 159 565 c 0,28,29
 159 691 159 691 246.5 782 c 128,-1,30
 334 873 334 873 462 873 c 0,31,32
 542 873 542 873 633 809 c 1,33,-1
 858 826 l 1,34,-1
 868 813 l 1,35,-1
 837 734 l 1,36,-1
 829 732 l 1,37,-1
 670 772 l 1,38,-1
 665 768 l 1,39,40
 680 746 680 746 698.5 685.5 c 128,-1,41
 717 625 717 625 717 576 c 0,42,43
 717 458 717 458 626.5 369.5 c 128,-1,44
 536 281 536 281 426 281 c 0,45,46
 368 281 368 281 330 300 c 1,47,48
 324 294 324 294 308 280 c 0,49,50
 250 229 250 229 250 195 c 0,51,52
 250 114 250 114 406 114 c 2,53,-1
 576 113 l 1,54,55
 754 113 754 113 796.5 69.5 c 128,-1,56
 839 26 839 26 837 -64 c 0,57,58
 833 -195 833 -195 707 -291 c 128,-1,59
 581 -387 581 -387 417 -387 c 128,-1,60
 253 -387 253 -387 164.5 -326 c 128,-1,61
 76 -265 76 -265 76 -176.5 c 128,-1,62
 76 -88 76 -88 131.5 -42 c 128,-1,63
 187 4 187 4 256 39 c 1,64,-1
 256 44 l 1,65,66
 216 61 216 61 188 91 c 128,-1,67
 160 121 160 121 160 160 c 0,23,24
EndSplineSet
Colour: ffffff
EndChar

StartChar: germandbls
Encoding: 223 223 212
Width: 1144
VWidth: 0
Flags: HMW
LayerCount: 2
Fore
SplineSet
268 824 m 1,0,-1
 120 824 l 1,1,-1
 132 858 l 1,2,-1
 271 880 l 1,3,4
 281 1070 281 1070 364 1186 c 128,-1,5
 447 1302 447 1302 602 1302 c 0,6,7
 712 1302 712 1302 792.5 1235.5 c 128,-1,8
 873 1169 873 1169 873 1070 c 128,-1,9
 873 971 873 971 796 882 c 0,10,11
 764 845 764 845 732 810 c 0,12,13
 655 726 655 726 655 681.5 c 128,-1,14
 655 637 655 637 678 599 c 128,-1,15
 701 561 701 561 737.5 531.5 c 128,-1,16
 774 502 774 502 818 474 c 0,17,18
 948 392 948 392 988 358 c 0,19,20
 1070 289 1070 289 1070 193 c 128,-1,21
 1070 97 1070 97 986.5 30.5 c 128,-1,22
 903 -36 903 -36 788.5 -36 c 128,-1,23
 674 -36 674 -36 595.5 22.5 c 128,-1,24
 517 81 517 81 517 174 c 0,25,26
 517 243 517 243 597 263 c 1,27,28
 617 129 617 129 665 72 c 128,-1,29
 713 15 713 15 799 15 c 128,-1,30
 885 15 885 15 933.5 58.5 c 128,-1,31
 982 102 982 102 982 148 c 128,-1,32
 982 194 982 194 952 232 c 128,-1,33
 922 270 922 270 877 299 c 0,34,35
 748 382 748 382 681 434 c 0,36,37
 576 514 576 514 576 617 c 128,-1,38
 576 720 576 720 646 804 c 0,39,40
 676 839 676 839 706 872 c 0,41,42
 776 951 776 951 776 1032 c 128,-1,43
 776 1113 776 1113 706.5 1177 c 128,-1,44
 637 1241 637 1241 551 1241 c 128,-1,45
 465 1241 465 1241 418 1167 c 128,-1,46
 371 1093 371 1093 371 982 c 2,47,-1
 371 0 l 1,48,-1
 105 0 l 1,49,-1
 118 30 l 1,50,-1
 268 59 l 1,51,-1
 268 824 l 1,0,-1
EndSplineSet
Colour: ffffff
EndChar

StartChar: grave
Encoding: 96 96 213
Width: 623
VWidth: 0
Flags: HMW
LayerCount: 2
Fore
SplineSet
177 1661 m 1,0,-1
 271 1698 l 1,1,-1
 404 1362 l 1,2,-1
 358 1335 l 1,3,-1
 177 1661 l 1,0,-1
EndSplineSet
Colour: ffffff
EndChar

StartChar: greater
Encoding: 62 62 214
Width: 680
VWidth: 0
Flags: HMW
LayerCount: 2
Fore
SplineSet
75 -37 m 1,0,-1
 595 444 l 1,1,-1
 94 926 l 1,2,-1
 110 973 l 1,3,-1
 729 456 l 1,4,-1
 731 426 l 1,5,-1
 97 -82 l 1,6,-1
 75 -37 l 1,0,-1
EndSplineSet
Colour: ffffff
EndChar

StartChar: greaterequal
Encoding: 8805 8805 215
Width: 713
VWidth: 0
Flags: HMW
LayerCount: 2
Fore
SplineSet
108 -37 m 1,0,-1
 628 444 l 1,1,-1
 127 926 l 1,2,-1
 143 973 l 1,3,-1
 762 456 l 1,4,-1
 764 426 l 1,5,-1
 130 -82 l 1,6,-1
 108 -37 l 1,0,-1
67 -247 m 1,7,-1
 84 -183 l 1,8,-1
 695 -183 l 1,9,-1
 678 -247 l 1,10,-1
 67 -247 l 1,7,-1
EndSplineSet
Colour: ffffff
EndChar

StartChar: guillemotleft
Encoding: 171 171 216
Width: 717
VWidth: 0
Flags: HMW
LayerCount: 2
Fore
SplineSet
326 469 m 1,0,-1
 594 822 l 1,1,-1
 622 786 l 1,2,-1
 434 462 l 1,3,-1
 621 116 l 1,4,-1
 589 78 l 1,5,-1
 329 449 l 1,6,-1
 326 469 l 1,0,-1
79 469 m 1,7,-1
 347 822 l 1,8,-1
 375 786 l 1,9,-1
 187 462 l 1,10,-1
 374 116 l 1,11,-1
 342 78 l 1,12,-1
 82 449 l 1,13,-1
 79 469 l 1,7,-1
EndSplineSet
Colour: ffffff
EndChar

StartChar: guillemotright
Encoding: 187 187 217
Width: 717
VWidth: 0
Flags: HMW
LayerCount: 2
Fore
SplineSet
395 469 m 1,0,-1
 392 449 l 1,1,-1
 132 78 l 1,2,-1
 100 116 l 1,3,-1
 287 462 l 1,4,-1
 99 786 l 1,5,-1
 127 822 l 1,6,-1
 395 469 l 1,0,-1
642 469 m 1,7,-1
 639 449 l 1,8,-1
 379 78 l 1,9,-1
 347 116 l 1,10,-1
 534 462 l 1,11,-1
 346 786 l 1,12,-1
 374 822 l 1,13,-1
 642 469 l 1,7,-1
EndSplineSet
Colour: ffffff
EndChar

StartChar: guilsinglleft
Encoding: 8249 8249 218
Width: 468
VWidth: 0
Flags: HMW
LayerCount: 2
Fore
SplineSet
79 469 m 1,0,-1
 347 822 l 1,1,-1
 375 786 l 1,2,-1
 187 462 l 1,3,-1
 374 116 l 1,4,-1
 342 78 l 1,5,-1
 82 449 l 1,6,-1
 79 469 l 1,0,-1
EndSplineSet
Colour: ffffff
EndChar

StartChar: guilsinglright
Encoding: 8250 8250 219
Width: 468
VWidth: 0
Flags: HMW
LayerCount: 2
Fore
SplineSet
151 469 m 1,0,-1
 148 449 l 1,1,-1
 -112 78 l 1,2,-1
 -144 116 l 1,3,-1
 43 462 l 1,4,-1
 -145 786 l 1,5,-1
 -117 822 l 1,6,-1
 151 469 l 1,0,-1
EndSplineSet
Colour: ffffff
EndChar

StartChar: h
Encoding: 104 104 220
Width: 1062
VWidth: 0
Flags: HMW
LayerCount: 2
Fore
SplineSet
672 880 m 0,0,1
 895 880 895 880 895 576 c 2,2,-1
 895 57 l 1,3,-1
 1035 37 l 1,4,-1
 1029 0 l 1,5,-1
 655 0 l 1,6,-1
 661 33 l 1,7,-1
 801 57 l 1,8,-1
 804 549 l 1,9,-1
 804 555 l 2,10,11
 804 683 804 683 757 742.5 c 128,-1,12
 710 802 710 802 626.5 802 c 128,-1,13
 543 802 543 802 482 767 c 128,-1,14
 421 732 421 732 363 664 c 1,15,-1
 363 59 l 1,16,-1
 505 36 l 1,17,-1
 498 0 l 1,18,-1
 100 0 l 1,19,-1
 111 34 l 1,20,-1
 265 59 l 1,21,-1
 265 1190 l 1,22,-1
 112 1221 l 1,23,-1
 118 1252 l 1,24,-1
 356 1272 l 1,25,-1
 363 1262 l 1,26,-1
 363 826 l 1,27,-1
 353 721 l 1,28,-1
 358 721 l 1,29,30
 420 788 420 788 504.5 834 c 128,-1,31
 589 880 589 880 672 880 c 0,0,1
EndSplineSet
Colour: ffffff
EndChar

StartChar: hbar
Encoding: 295 295 221
Width: 1062
VWidth: 0
Flags: HMW
LayerCount: 2
Fore
SplineSet
672 880 m 0,0,1
 895 880 895 880 895 576 c 2,2,-1
 895 57 l 1,3,-1
 1035 37 l 1,4,-1
 1029 0 l 1,5,-1
 655 0 l 1,6,-1
 661 33 l 1,7,-1
 801 57 l 1,8,-1
 804 549 l 1,9,-1
 804 555 l 2,10,11
 804 683 804 683 757 742.5 c 128,-1,12
 710 802 710 802 626.5 802 c 128,-1,13
 543 802 543 802 482 767 c 128,-1,14
 421 732 421 732 363 664 c 1,15,-1
 363 59 l 1,16,-1
 505 36 l 1,17,-1
 498 0 l 1,18,-1
 100 0 l 1,19,-1
 111 34 l 1,20,-1
 265 59 l 1,21,-1
 265 993 l 1,22,-1
 87 993 l 1,23,-1
 97 1045 l 1,24,-1
 265 1045 l 1,25,-1
 265 1190 l 1,26,-1
 112 1221 l 1,27,-1
 118 1252 l 1,28,-1
 356 1272 l 1,29,-1
 363 1262 l 1,30,-1
 363 1045 l 1,31,-1
 680 1045 l 1,32,-1
 672 993 l 1,33,-1
 363 993 l 1,34,-1
 363 826 l 1,35,-1
 353 721 l 1,36,-1
 358 721 l 1,37,38
 420 788 420 788 504.5 834 c 128,-1,39
 589 880 589 880 672 880 c 0,0,1
EndSplineSet
Colour: ffffff
EndChar

StartChar: hungarumlaut
Encoding: 733 733 222
Width: 774
VWidth: 0
Flags: HMW
LayerCount: 2
Fore
SplineSet
342 1392 m 1,0,-1
 599 1591 l 1,1,-1
 655 1527 l 1,2,-1
 363 1359 l 1,3,-1
 342 1392 l 1,0,-1
133 1392 m 1,4,-1
 393 1601 l 1,5,-1
 453 1531 l 1,6,-1
 154 1359 l 1,7,-1
 133 1392 l 1,4,-1
EndSplineSet
Colour: ffffff
EndChar

StartChar: hyphen
Encoding: 45 45 223
Width: 564
VWidth: 0
Flags: HMW
LayerCount: 2
Fore
SplineSet
82 419 m 1,0,-1
 92 480 l 1,1,-1
 498 497 l 1,2,-1
 489 437 l 1,3,-1
 82 419 l 1,0,-1
EndSplineSet
Colour: ffffff
EndChar

StartChar: i
Encoding: 105 105 224
Width: 570
VWidth: 0
Flags: HMW
LayerCount: 2
Fore
SplineSet
330 1091 m 128,-1,1
 267 1091 267 1091 267 1190.5 c 128,-1,2
 267 1290 267 1290 330 1290 c 128,-1,3
 393 1290 393 1290 393 1190.5 c 128,-1,0
 393 1091 393 1091 330 1091 c 128,-1,1
123 0 m 1,4,-1
 136 31 l 1,5,-1
 286 59 l 1,6,-1
 286 788 l 1,7,-1
 133 816 l 1,8,-1
 136 843 l 1,9,-1
 372 863 l 1,10,-1
 380 854 l 1,11,-1
 380 59 l 1,12,-1
 540 33 l 1,13,-1
 529 0 l 1,14,-1
 123 0 l 1,4,-1
EndSplineSet
Colour: ffffff
EndChar

StartChar: iacute
Encoding: 237 237 225
Width: 570
VWidth: 0
Flags: HMW
LayerCount: 2
Fore
SplineSet
123 0 m 1,0,-1
 136 31 l 1,1,-1
 286 59 l 1,2,-1
 286 812 l 1,3,-1
 133 842 l 1,4,-1
 136 867 l 1,5,-1
 372 888 l 1,6,-1
 380 880 l 1,7,-1
 380 59 l 1,8,-1
 540 33 l 1,9,-1
 529 0 l 1,10,-1
 123 0 l 1,0,-1
260 1032 m 1,11,-1
 392 1369 l 1,12,-1
 488 1330 l 1,13,-1
 305 1006 l 1,14,-1
 260 1032 l 1,11,-1
EndSplineSet
Colour: ffffff
EndChar

StartChar: icaron
Encoding: 464 464 226
Width: 570
VWidth: 0
Flags: HMW
LayerCount: 2
Fore
SplineSet
123 0 m 1,0,-1
 136 31 l 1,1,-1
 286 59 l 1,2,-1
 286 812 l 1,3,-1
 133 842 l 1,4,-1
 136 867 l 1,5,-1
 372 888 l 1,6,-1
 380 880 l 1,7,-1
 380 59 l 1,8,-1
 540 33 l 1,9,-1
 529 0 l 1,10,-1
 123 0 l 1,0,-1
114 1199 m 1,11,-1
 169 1248 l 1,12,-1
 335 1079 l 1,13,-1
 344 1079 l 1,14,-1
 487 1244 l 1,15,-1
 523 1217 l 1,16,-1
 349 1033 l 1,17,-1
 293 1019 l 1,18,-1
 114 1199 l 1,11,-1
EndSplineSet
Colour: ffffff
EndChar

